<svg width="928" height="920" viewBox="0 0 928 920" fill="none" xmlns="http://www.w3.org/2000/svg">
<path d="M919.778 390.127C919.665 389 919.218 387.933 918.497 387.06C917.775 386.187 916.81 385.548 915.725 385.225C914.64 384.901 913.483 384.908 912.401 385.243C911.319 385.578 910.362 386.227 909.65 387.108C908.938 387.989 908.503 389.061 908.402 390.189C908.3 391.317 908.536 392.45 909.08 393.443C909.623 394.437 910.45 395.246 911.454 395.769C912.459 396.292 913.596 396.505 914.721 396.381C916.218 396.215 917.589 395.465 918.536 394.294C919.483 393.123 919.93 391.625 919.778 390.127Z" fill="white"/>
<path d="M907.17 391.897C907.386 394.041 906.743 396.182 905.38 397.851C904.018 399.52 902.048 400.58 899.905 400.797L884.936 402.297C883.842 402.412 882.736 402.3 881.686 401.969C880.637 401.639 879.666 401.096 878.835 400.376L858.978 402.365C858.171 402.47 857.351 402.413 856.567 402.196C855.782 401.979 855.049 401.607 854.411 401.102C853.773 400.597 853.243 399.969 852.852 399.255C852.461 398.541 852.217 397.756 852.135 396.947C852.052 396.137 852.133 395.319 852.373 394.541C852.612 393.763 853.005 393.041 853.528 392.418C854.052 391.795 854.695 391.283 855.419 390.913C856.144 390.542 856.936 390.321 857.747 390.262L877.604 388.307C878.276 387.434 879.119 386.707 880.081 386.171C881.043 385.635 882.105 385.301 883.2 385.188L898.169 383.688C900.312 383.471 902.454 384.115 904.123 385.478C905.792 386.84 906.852 388.81 907.069 390.953L907.17 391.948V391.897Z" fill="white"/>
<path d="M858.978 402.364C857.403 402.47 855.848 401.958 854.643 400.939C853.437 399.919 852.675 398.471 852.518 396.9C852.36 395.329 852.82 393.758 853.799 392.52C854.778 391.281 856.2 390.471 857.765 390.262" fill="white"/>
<path d="M900.933 313.734C900.601 312.653 899.956 311.694 899.078 310.979C898.201 310.265 897.131 309.827 896.005 309.721C894.879 309.615 893.746 309.846 892.751 310.385C891.756 310.923 890.943 311.745 890.415 312.745C889.888 313.746 889.669 314.881 889.787 316.007C889.905 317.132 890.355 318.197 891.078 319.066C891.802 319.936 892.768 320.571 893.853 320.891C894.938 321.211 896.094 321.202 897.174 320.865C897.889 320.643 898.554 320.284 899.13 319.805C899.706 319.327 900.182 318.741 900.531 318.078C900.88 317.416 901.095 316.692 901.164 315.946C901.233 315.201 901.155 314.449 900.933 313.734Z" fill="#C91459"/>
<path d="M888.931 317.983C889.554 320.032 889.342 322.245 888.341 324.139C887.34 326.033 885.632 327.455 883.588 328.096L869.21 332.681C868.158 333.007 867.05 333.116 865.954 333C864.859 332.884 863.799 332.546 862.838 332.007L843.808 337.839C842.265 338.317 840.596 338.163 839.167 337.411C837.738 336.659 836.667 335.37 836.189 333.827C835.71 332.285 835.864 330.616 836.616 329.187C837.369 327.758 838.658 326.687 840.2 326.208L859.231 320.292C859.715 319.304 860.395 318.426 861.229 317.71C862.064 316.994 863.036 316.456 864.086 316.128L878.464 311.678C880.514 311.051 882.728 311.261 884.624 312.263C886.519 313.264 887.94 314.975 888.577 317.022L888.881 317.983H888.931Z" fill="#C91459"/>
<path d="M843.808 337.839C842.265 338.317 840.596 338.163 839.167 337.411C837.738 336.659 836.667 335.37 836.189 333.827C835.71 332.285 835.864 330.616 836.616 329.187C837.369 327.758 838.658 326.687 840.2 326.208" fill="#C91459"/>
<path d="M869.8 241.843C869.262 240.848 868.441 240.036 867.44 239.508C866.44 238.98 865.306 238.761 864.181 238.879C863.056 238.996 861.992 239.444 861.122 240.167C860.252 240.89 859.616 241.854 859.295 242.939C858.974 244.023 858.981 245.178 859.317 246.258C859.653 247.338 860.301 248.294 861.181 249.005C862.06 249.716 863.131 250.15 864.257 250.253C865.383 250.355 866.514 250.121 867.507 249.58C868.836 248.856 869.823 247.636 870.253 246.185C870.682 244.735 870.52 243.173 869.8 241.843Z" fill="white"/>
<path d="M858.86 248.4C859.87 250.286 860.095 252.495 859.486 254.547C858.877 256.598 857.483 258.327 855.607 259.356L842.392 266.537C841.423 267.066 840.356 267.39 839.257 267.488C838.158 267.587 837.05 267.458 836.003 267.11L818.523 276.617C817.819 277.04 817.036 277.316 816.223 277.428C815.409 277.54 814.581 277.487 813.788 277.271C812.996 277.054 812.255 276.68 811.612 276.17C810.968 275.66 810.434 275.024 810.042 274.302C809.65 273.58 809.409 272.786 809.332 271.969C809.255 271.151 809.345 270.326 809.596 269.543C809.846 268.761 810.253 268.038 810.791 267.417C811.328 266.796 811.986 266.29 812.725 265.93L830.238 256.423C830.519 255.355 831.016 254.356 831.697 253.486C832.378 252.616 833.23 251.895 834.199 251.367L847.415 244.186C848.352 243.676 849.38 243.357 850.441 243.245C851.502 243.134 852.574 243.233 853.597 243.537C854.619 243.84 855.572 244.343 856.4 245.015C857.228 245.688 857.915 246.517 858.422 247.456L858.911 248.332L858.86 248.4Z" fill="white"/>
<path d="M818.523 276.617C817.819 277.04 817.036 277.316 816.223 277.428C815.409 277.541 814.581 277.487 813.788 277.271C812.996 277.054 812.255 276.68 811.612 276.17C810.968 275.66 810.434 275.024 810.042 274.302C809.65 273.58 809.409 272.786 809.332 271.969C809.255 271.151 809.345 270.326 809.596 269.544C809.846 268.761 810.253 268.038 810.791 267.417C811.328 266.796 811.986 266.29 812.725 265.93" fill="white"/>
<path d="M827.255 176.34C826.535 175.475 825.575 174.842 824.496 174.521C823.417 174.201 822.267 174.207 821.192 174.54C820.116 174.872 819.163 175.516 818.453 176.389C817.743 177.263 817.308 178.327 817.202 179.448C817.096 180.569 817.325 181.696 817.859 182.687C818.393 183.677 819.209 184.488 820.203 185.016C821.198 185.543 822.326 185.765 823.446 185.652C824.566 185.539 825.628 185.096 826.497 184.381C827.076 183.904 827.555 183.317 827.907 182.654C828.259 181.991 828.476 181.265 828.546 180.518C828.617 179.771 828.539 179.017 828.318 178.3C828.096 177.584 827.735 176.917 827.255 176.34Z" fill="white"/>
<path d="M817.765 184.835C818.447 185.656 818.959 186.604 819.273 187.624C819.588 188.644 819.697 189.715 819.595 190.778C819.493 191.84 819.182 192.872 818.68 193.813C818.178 194.755 817.494 195.588 816.669 196.264L805.038 205.838C804.187 206.537 803.203 207.055 802.145 207.362C801.088 207.669 799.979 207.759 798.886 207.625L783.513 220.301C782.263 221.277 780.681 221.727 779.104 221.554C777.527 221.381 776.08 220.6 775.071 219.375C774.062 218.151 773.571 216.581 773.703 215C773.835 213.419 774.578 211.952 775.776 210.912L791.149 198.236C791.217 197.134 791.511 196.059 792.012 195.076C792.514 194.092 793.213 193.223 794.065 192.522L805.662 182.948C807.323 181.579 809.46 180.926 811.603 181.131C813.746 181.337 815.719 182.384 817.09 184.043L817.731 184.835H817.765Z" fill="white"/>
<path d="M783.547 220.301C782.302 221.33 780.699 221.821 779.092 221.668C777.485 221.514 776.004 220.729 774.976 219.484C773.947 218.239 773.456 216.636 773.609 215.029C773.763 213.421 774.548 211.941 775.793 210.912" fill="white"/>
<path d="M774.495 118.81C773.623 118.091 772.557 117.646 771.433 117.533C770.308 117.419 769.175 117.642 768.177 118.173C767.179 118.703 766.361 119.518 765.826 120.514C765.291 121.51 765.063 122.642 765.171 123.767C765.28 124.892 765.72 125.96 766.435 126.835C767.151 127.71 768.109 128.353 769.191 128.683C770.272 129.013 771.426 129.016 772.509 128.689C773.591 128.363 774.552 127.723 775.271 126.85C776.233 125.681 776.692 124.177 776.547 122.67C776.402 121.162 775.664 119.774 774.495 118.81Z" fill="white"/>
<path d="M766.792 128.958C768.451 130.329 769.498 132.302 769.704 134.445C769.909 136.588 769.256 138.725 767.887 140.386L758.313 151.983C757.614 152.833 756.747 153.531 755.767 154.033C754.787 154.534 753.714 154.829 752.616 154.899L739.94 170.272C738.914 171.519 737.435 172.308 735.827 172.464C734.22 172.621 732.616 172.132 731.369 171.106C730.121 170.08 729.333 168.601 729.176 166.994C729.02 165.386 729.508 163.782 730.534 162.535L743.227 147.162C743.085 146.069 743.171 144.958 743.478 143.9C743.786 142.841 744.308 141.857 745.014 141.01L754.588 129.396C755.956 127.738 757.927 126.691 760.067 126.485C762.207 126.28 764.341 126.933 766 128.3L766.792 128.958Z" fill="white"/>
<path d="M739.923 170.272C739.423 170.912 738.8 171.446 738.09 171.841C737.38 172.237 736.599 172.486 735.791 172.575C734.984 172.663 734.166 172.589 733.388 172.357C732.609 172.124 731.885 171.739 731.258 171.222C730.631 170.705 730.114 170.068 729.737 169.348C729.36 168.629 729.131 167.841 729.064 167.031C728.997 166.221 729.092 165.406 729.344 164.634C729.597 163.862 730.002 163.148 730.534 162.535" fill="white"/>
<path d="M712.785 70.6689C711.792 70.1279 710.66 69.8938 709.534 69.9961C708.408 70.0984 707.337 70.5327 706.458 71.2438C705.579 71.9549 704.93 72.9109 704.594 73.9908C704.259 75.0707 704.251 76.226 704.572 77.3102C704.894 78.3945 705.529 79.3591 706.399 80.0818C707.269 80.8046 708.334 81.253 709.458 81.3703C710.583 81.4876 711.717 81.2685 712.718 80.7408C713.718 80.2131 714.539 79.4005 715.077 78.4058C715.438 77.7481 715.665 77.0253 715.745 76.2794C715.825 75.5334 715.757 74.7789 715.543 74.0596C715.33 73.3402 714.977 72.6702 714.503 72.0882C714.03 71.5063 713.446 71.0239 712.785 70.6689Z" fill="#FFC82D"/>
<path d="M707.171 82.0804C709.061 83.1103 710.464 84.8476 711.074 86.9111C711.684 88.9747 711.451 91.1959 710.425 93.0874L703.244 106.32C702.719 107.292 701.998 108.145 701.128 108.827C700.258 109.509 699.257 110.003 698.187 110.281L688.731 127.794C688.349 128.498 687.832 129.12 687.21 129.624C686.588 130.128 685.873 130.505 685.105 130.733C684.337 130.961 683.532 131.035 682.736 130.952C681.939 130.868 681.167 130.629 680.463 130.247C679.759 129.865 679.137 129.348 678.633 128.726C678.129 128.104 677.752 127.389 677.524 126.621C677.297 125.853 677.222 125.048 677.306 124.251C677.389 123.455 677.629 122.683 678.01 121.979L687.517 104.465C687.177 103.42 687.052 102.316 687.15 101.221C687.249 100.126 687.569 99.0617 688.09 98.0937L695.271 84.8953C695.779 83.9582 696.468 83.1305 697.296 82.4597C698.125 81.7888 699.077 81.288 700.1 80.9858C701.122 80.6836 702.194 80.5861 703.254 80.6987C704.314 80.8113 705.342 81.1319 706.278 81.6421L707.171 82.1141V82.0804Z" fill="#FFC82D"/>
<path d="M688.731 127.794C688.349 128.498 687.832 129.12 687.21 129.624C686.588 130.129 685.873 130.505 685.105 130.733C684.337 130.961 683.532 131.035 682.736 130.952C681.939 130.868 681.167 130.629 680.463 130.247C679.759 129.865 679.137 129.348 678.633 128.726C678.129 128.104 677.752 127.389 677.524 126.621C677.297 125.853 677.222 125.048 677.306 124.252C677.389 123.455 677.629 122.683 678.01 121.979" fill="#FFC82D"/>
<path d="M655.777 39.7211C654.784 39.1801 653.653 38.946 652.527 39.0484C651.401 39.1507 650.33 39.5849 649.451 40.296C648.571 41.0071 647.923 41.9632 647.587 43.0431C647.252 44.123 647.244 45.2782 647.565 46.3625C647.886 47.4468 648.522 48.4113 649.392 49.1341C650.262 49.8568 651.326 50.3052 652.451 50.4226C653.576 50.5399 654.71 50.3208 655.71 49.7931C656.711 49.2654 657.532 48.4527 658.07 47.4581C658.79 46.1277 658.952 44.5661 658.523 43.1158C658.093 41.6655 657.106 40.4447 655.777 39.7211Z" fill="white"/>
<path d="M650.164 51.1831C652.053 52.213 653.457 53.9503 654.067 56.0139C654.677 58.0774 654.443 60.2987 653.417 62.1902L646.236 75.4054C645.711 76.3778 644.991 77.2314 644.121 77.9129C643.251 78.5945 642.25 79.0893 641.18 79.3666L631.673 96.8801C631.291 97.583 630.774 98.2037 630.153 98.7069C629.531 99.21 628.816 99.5859 628.049 99.8128C627.282 100.04 626.478 100.113 625.683 100.03C624.887 99.9458 624.116 99.7061 623.413 99.3243C622.71 98.9424 622.09 98.4259 621.587 97.8042C621.083 97.1824 620.708 96.4677 620.481 95.7007C620.254 94.9338 620.18 94.1296 620.264 93.3342C620.348 92.5387 620.587 91.7676 620.969 91.0648L630.476 73.5512C630.136 72.5055 630.012 71.4018 630.11 70.3068C630.209 69.2117 630.528 68.1479 631.049 67.1796L638.23 53.9475C639.26 52.0582 640.997 50.6546 643.061 50.0447C645.124 49.4348 647.345 49.6684 649.237 50.6943L650.13 51.1831H650.164Z" fill="white"/>
<path d="M631.707 96.8466C630.935 98.266 629.632 99.3209 628.083 99.7793C626.534 100.238 624.866 100.062 623.447 99.2908C622.028 98.5196 620.973 97.2162 620.514 95.6672C620.056 94.1182 620.232 92.4506 621.003 91.0312" fill="white"/>
<path d="M581.644 13.9311C580.567 13.5983 579.417 13.5921 578.337 13.9133C577.257 14.2345 576.296 14.8686 575.577 15.7356C574.857 16.6025 574.411 17.6634 574.294 18.784C574.177 19.9045 574.396 21.0346 574.921 22.0312C575.446 23.0279 576.255 23.8464 577.246 24.3832C578.237 24.9201 579.364 25.1512 580.486 25.0474C581.608 24.9436 582.674 24.5095 583.549 23.8C584.424 23.0905 585.069 22.1374 585.403 21.0613C585.624 20.3463 585.703 19.5946 585.634 18.8493C585.565 18.1039 585.35 17.3795 585.001 16.7173C584.652 16.0551 584.176 15.4682 583.6 14.9902C583.024 14.5121 582.359 14.1522 581.644 13.9311Z" fill="white"/>
<path d="M578.357 26.2192C580.401 26.8601 582.109 28.2823 583.11 30.1764C584.11 32.0705 584.323 34.2832 583.7 36.3329L579.166 50.745C578.847 51.8008 578.312 52.7789 577.595 53.6174C576.878 54.4559 575.996 55.1366 575.002 55.6164L569.103 74.647C568.624 76.1893 567.553 77.4785 566.124 78.2308C564.695 78.9832 563.026 79.1371 561.484 78.6587C559.941 78.1804 558.652 77.109 557.9 75.6801C557.148 74.2513 556.994 72.5821 557.472 71.0398L563.388 52.0092C562.845 51.0502 562.504 49.9904 562.385 48.8947C562.266 47.799 562.373 46.6907 562.697 45.6375L567.164 31.2761C567.801 29.2294 569.223 27.5183 571.118 26.5169C573.013 25.5156 575.228 25.3055 577.278 25.9327L578.256 26.2192H578.357Z" fill="white"/>
<path d="M569.17 74.6469C568.692 76.1892 567.62 77.4784 566.192 78.2307C564.763 78.9831 563.094 79.137 561.551 78.6587C560.009 78.1803 558.72 77.1089 557.967 75.68C557.215 74.2512 557.061 72.582 557.539 71.0397" fill="white"/>
<path d="M504.072 0.884281C502.946 0.759722 501.809 0.972448 500.804 1.49545C499.8 2.01845 498.973 2.82814 498.43 3.82173C497.886 4.81531 497.65 5.94797 497.752 7.07591C497.853 8.20386 498.288 9.27621 499 10.1568C499.712 11.0374 500.67 11.6866 501.751 12.0219C502.833 12.3572 503.99 12.3635 505.075 12.04C506.161 11.7165 507.125 11.0778 507.847 10.205C508.569 9.33224 509.015 8.26468 509.128 7.13791C509.28 5.6395 508.833 4.14194 507.886 2.97087C506.939 1.79981 505.569 1.04992 504.072 0.884281Z" fill="white"/>
<path d="M503.313 13.594C505.458 13.8193 507.426 14.8866 508.785 16.5615C510.144 18.2365 510.783 20.3823 510.561 22.5278L509.044 37.4961C508.932 38.5918 508.597 39.6531 508.061 40.6152C507.525 41.5774 506.798 42.4202 505.926 43.0923L503.937 62.9151C503.878 63.7268 503.657 64.5184 503.286 65.2431C502.916 65.9678 502.404 66.6108 501.781 67.1342C501.157 67.6575 500.436 68.0504 499.658 68.2898C498.88 68.5292 498.062 68.6102 497.252 68.5278C496.443 68.4455 495.658 68.2016 494.944 67.8106C494.23 67.4195 493.602 66.8893 493.097 66.2513C492.592 65.6132 492.22 64.8803 492.003 64.0959C491.786 63.3115 491.729 62.4916 491.834 61.6847L493.823 41.8618C493.104 41.029 492.561 40.0588 492.228 39.0098C491.894 37.9609 491.778 36.8552 491.885 35.7599L493.402 20.7916C493.507 19.731 493.821 18.7015 494.324 17.7622C494.828 16.8228 495.512 15.992 496.337 15.3172C497.162 14.6424 498.112 14.1369 499.133 13.8297C500.153 13.5224 501.224 13.4195 502.285 13.5266L503.296 13.6278L503.313 13.594Z" fill="white"/>
<path d="M503.937 62.8812C503.776 64.4883 502.983 65.9657 501.733 66.9884C500.483 68.011 498.878 68.4951 497.271 68.3341C495.663 68.1732 494.186 67.3804 493.163 66.1302C492.141 64.88 491.657 63.2747 491.818 61.6675" fill="white"/>
<path d="M425.421 0.614721C424.299 0.731308 423.238 1.17816 422.37 1.89868C421.502 2.6192 420.868 3.58097 420.548 4.66219C420.227 5.74341 420.235 6.89544 420.569 7.97237C420.904 9.0493 421.551 10.0027 422.428 10.7118C423.305 11.4209 424.372 11.8538 425.495 11.9557C426.619 12.0575 427.747 11.8238 428.737 11.2841C429.727 10.7444 430.535 9.92294 431.058 8.92381C431.581 7.92468 431.796 6.79282 431.675 5.67157C431.597 4.92859 431.373 4.20826 431.017 3.5518C430.66 2.89534 430.178 2.31566 429.597 1.84595C429.016 1.37623 428.348 1.0257 427.632 0.814427C426.915 0.603155 426.164 0.535292 425.421 0.614721Z" fill="#C91459"/>
<path d="M427.208 13.2566C429.347 13.04 431.484 13.6819 433.15 15.0412C434.816 16.4004 435.874 18.3657 436.091 20.5048L437.608 35.473C437.713 36.5709 437.596 37.6788 437.263 38.7302C436.93 39.7816 436.388 40.7549 435.669 41.5918L437.675 61.4147C437.836 63.0218 437.352 64.6271 436.329 65.8773C435.307 67.1275 433.829 67.9203 432.222 68.0813C430.615 68.2422 429.01 67.7581 427.76 66.7355C426.509 65.7129 425.717 64.2355 425.556 62.6283L423.55 42.7549C422.678 42.0833 421.953 41.2403 421.42 40.2778C420.886 39.3154 420.556 38.2538 420.448 37.1587L418.931 22.1904C418.824 21.1299 418.927 20.0587 419.234 19.0381C419.542 18.0175 420.047 17.0675 420.722 16.2424C421.397 15.4173 422.227 14.7334 423.167 14.2297C424.106 13.7261 425.136 13.4126 426.196 13.3072L427.208 13.2061V13.2566Z" fill="#C91459"/>
<path d="M437.659 61.4148C437.764 62.9901 437.253 64.5447 436.233 65.7501C435.214 66.9556 433.765 67.7175 432.194 67.8751C430.624 68.0326 429.053 67.5734 427.814 66.5944C426.576 65.6154 425.766 64.1933 425.556 62.6284" fill="#C91459"/>
<path d="M347.748 13.2062C346.683 13.5564 345.745 14.213 345.051 15.0939C344.357 15.9748 343.939 17.0408 343.848 18.1583C343.758 19.2759 343.999 20.3953 344.542 21.3765C345.084 22.3576 345.904 23.1568 346.899 23.6739C347.894 24.191 349.019 24.4031 350.134 24.2836C351.249 24.1641 352.304 23.7183 353.167 23.0021C354.029 22.2858 354.661 21.331 354.984 20.2571C355.306 19.1833 355.305 18.0381 354.979 16.9652C354.759 16.2386 354.395 15.5633 353.91 14.9792C353.425 14.395 352.828 13.9137 352.155 13.5635C351.481 13.2133 350.744 13.0013 349.987 12.94C349.231 12.8786 348.469 12.9691 347.748 13.2062Z" fill="white"/>
<path d="M352.013 25.208C354.062 24.5808 356.277 24.7909 358.172 25.7922C360.068 26.7935 361.489 28.5047 362.126 30.5514L366.593 44.9128C366.922 45.9653 367.03 47.0744 366.911 48.1706C366.792 49.2669 366.449 50.3269 365.902 51.2844L371.835 70.315C372.314 71.8574 372.16 73.5266 371.407 74.9554C370.655 76.3842 369.366 77.4557 367.824 77.934C366.281 78.4124 364.612 78.2584 363.183 77.5061C361.754 76.7537 360.683 75.4646 360.205 73.9223L354.305 54.8917C353.314 54.4093 352.432 53.7278 351.716 52.8896C350.999 52.0515 350.464 51.0747 350.142 50.0202L345.675 35.6588C345.043 33.609 345.251 31.3923 346.253 29.4958C347.255 27.5993 348.969 26.1783 351.018 25.5451L351.996 25.2417L352.013 25.208Z" fill="white"/>
<path d="M371.835 70.315C372.314 71.8573 372.16 73.5265 371.407 74.9554C370.655 76.3842 369.366 77.4556 367.824 77.934C366.281 78.4123 364.612 78.2584 363.183 77.506C361.754 76.7537 360.683 75.4646 360.205 73.9222" fill="white"/>
<path d="M273.429 38.5578C272.434 39.0959 271.622 39.917 271.094 40.9172C270.566 41.9174 270.347 43.0517 270.465 44.1765C270.582 45.3013 271.03 46.3659 271.753 47.2357C272.476 48.1055 273.44 48.7413 274.525 49.0625C275.609 49.3838 276.764 49.3761 277.844 49.0405C278.924 48.7048 279.88 48.0563 280.591 47.1769C281.302 46.2976 281.736 45.2271 281.839 44.1009C281.941 42.9746 281.707 41.8433 281.166 40.8503C280.811 40.1893 280.329 39.6052 279.747 39.1317C279.165 38.6581 278.495 38.3046 277.775 38.0915C277.056 37.8783 276.301 37.8098 275.555 37.8898C274.81 37.9699 274.087 38.1969 273.429 38.5578Z" fill="white"/>
<path d="M279.936 49.4975C281.826 48.4769 284.043 48.2463 286.102 48.8559C288.162 49.4655 289.896 50.8659 290.926 52.7507L298.107 65.9828C298.631 66.9498 298.953 68.0138 299.051 69.1094C299.15 70.2051 299.023 71.3094 298.68 72.3544L308.203 89.9522C308.975 91.3716 309.15 93.0392 308.692 94.5882C308.234 96.1372 307.179 97.4406 305.759 98.2118C304.34 98.9829 302.672 99.1587 301.123 98.7003C299.574 98.2419 298.271 97.187 297.5 95.7676L287.993 78.1529C286.923 77.8757 285.922 77.3808 285.052 76.6993C284.182 76.0177 283.461 75.1641 282.936 74.1917L275.755 60.9765C275.252 60.0341 274.94 59.0016 274.838 57.9383C274.735 56.8751 274.843 55.8019 275.157 54.7807C275.47 53.7594 275.982 52.8101 276.663 51.9873C277.344 51.1645 278.182 50.4845 279.127 49.9863L280.02 49.4975H279.936Z" fill="white"/>
<path d="M308.203 89.9522C308.974 91.3716 309.15 93.0392 308.692 94.5882C308.233 96.1372 307.178 97.4406 305.759 98.2118C304.34 98.9829 302.672 99.1587 301.123 98.7003C299.574 98.2419 298.271 97.187 297.499 95.7676" fill="white"/>
<path d="M216.421 69.5059C215.427 70.044 214.614 70.8651 214.086 71.8653C213.559 72.8655 213.34 73.9998 213.457 75.1245C213.574 76.2493 214.023 77.314 214.745 78.1838C215.468 79.0536 216.433 79.6893 217.517 80.0106C218.601 80.3319 219.757 80.3242 220.836 79.9885C221.916 79.6529 222.872 79.0043 223.584 78.125C224.295 77.2457 224.729 76.1751 224.831 75.0489C224.934 73.9227 224.699 72.7914 224.158 71.7983C223.803 71.1373 223.321 70.5532 222.739 70.0797C222.157 69.6062 221.487 69.2527 220.768 69.0395C220.048 68.8264 219.294 68.7579 218.548 68.8379C217.802 68.9179 217.079 69.145 216.421 69.5059Z" fill="white"/>
<path d="M222.928 80.4454C223.864 79.9352 224.892 79.6146 225.952 79.502C227.012 79.3894 228.084 79.487 229.106 79.7892C230.129 80.0913 231.081 80.5922 231.91 81.263C232.739 81.9339 233.427 82.7616 233.935 83.6987L241.116 96.9308C241.641 97.8974 241.963 98.9614 242.062 100.057C242.16 101.153 242.033 102.257 241.689 103.302L251.196 120.816C251.965 122.235 252.138 123.902 251.678 125.449C251.218 126.997 250.163 128.298 248.743 129.067C247.324 129.836 245.657 130.01 244.11 129.55C242.562 129.09 241.261 128.034 240.492 126.614L230.985 109.101C229.915 108.824 228.914 108.329 228.044 107.647C227.174 106.966 226.454 106.112 225.928 105.14L218.748 91.9245C217.722 90.033 217.488 87.8117 218.098 85.7482C218.708 83.6846 220.112 81.9473 222.001 80.9174L222.894 80.4454H222.928Z" fill="white"/>
<path d="M251.196 120.816C251.578 121.519 251.817 122.29 251.901 123.085C251.985 123.881 251.911 124.685 251.684 125.452C251.457 126.219 251.082 126.934 250.578 127.555C250.075 128.177 249.455 128.694 248.752 129.075C248.049 129.457 247.278 129.697 246.482 129.781C245.687 129.865 244.883 129.791 244.116 129.564C243.349 129.337 242.634 128.961 242.012 128.458C241.391 127.955 240.874 127.334 240.492 126.631" fill="white"/>
<path d="M154.391 117.259C153.519 117.978 152.879 118.939 152.552 120.021C152.226 121.104 152.228 122.258 152.558 123.339C152.888 124.421 153.532 125.379 154.407 126.095C155.282 126.81 156.35 127.25 157.475 127.359C158.6 127.467 159.732 127.239 160.728 126.704C161.724 126.169 162.538 125.351 163.069 124.353C163.6 123.355 163.822 122.222 163.709 121.097C163.595 119.973 163.151 118.907 162.432 118.035C161.468 116.866 160.08 116.128 158.572 115.983C157.064 115.837 155.561 116.297 154.391 117.259Z" fill="#AA46EB"/>
<path d="M162.937 126.749C164.599 125.381 166.735 124.727 168.878 124.933C171.021 125.138 172.994 126.186 174.366 127.845L183.94 139.459C184.634 140.306 185.15 141.285 185.457 142.336C185.764 143.387 185.856 144.49 185.727 145.578L198.402 160.933C198.912 161.55 199.294 162.261 199.529 163.025C199.763 163.789 199.845 164.593 199.769 165.388C199.693 166.184 199.461 166.958 199.086 167.664C198.712 168.37 198.201 168.996 197.585 169.505C196.968 170.014 196.258 170.397 195.493 170.631C194.729 170.866 193.926 170.947 193.13 170.871C192.334 170.795 191.561 170.563 190.855 170.189C190.148 169.814 189.523 169.304 189.014 168.687L176.304 153.348C175.206 153.276 174.134 152.98 173.154 152.479C172.174 151.977 171.307 151.281 170.607 150.432L161.134 138.835C160.453 138.016 159.941 137.07 159.627 136.053C159.313 135.035 159.203 133.965 159.304 132.905C159.404 131.845 159.712 130.815 160.212 129.874C160.711 128.934 161.391 128.101 162.212 127.423L163.005 126.766L162.937 126.749Z" fill="#AA46EB"/>
<path d="M198.402 160.984C199.379 162.234 199.829 163.817 199.656 165.394C199.483 166.97 198.701 168.418 197.477 169.426C196.253 170.435 194.683 170.926 193.102 170.794C191.521 170.663 190.054 169.919 189.014 168.721" fill="#AA46EB"/>
<path d="M154.391 117.259C153.519 117.978 152.879 118.939 152.552 120.021C152.226 121.104 152.228 122.258 152.558 123.339C152.888 124.421 153.532 125.379 154.407 126.095C155.282 126.81 156.35 127.25 157.475 127.359C158.6 127.467 159.732 127.239 160.728 126.704C161.724 126.169 162.538 125.351 163.069 124.353C163.6 123.355 163.822 122.222 163.709 121.097C163.595 119.973 163.151 118.907 162.432 118.035C161.468 116.866 160.08 116.128 158.572 115.983C157.064 115.837 155.561 116.297 154.391 117.259Z" fill="#AA46EB"/>
<path d="M162.937 126.749C164.599 125.381 166.735 124.727 168.878 124.933C171.021 125.138 172.994 126.186 174.366 127.845L183.94 139.459C184.634 140.306 185.15 141.285 185.457 142.336C185.764 143.387 185.856 144.49 185.727 145.578L198.402 160.933C198.912 161.55 199.294 162.261 199.529 163.025C199.763 163.789 199.845 164.593 199.769 165.388C199.693 166.184 199.461 166.958 199.086 167.664C198.712 168.37 198.201 168.996 197.585 169.505C196.968 170.014 196.258 170.397 195.493 170.631C194.729 170.866 193.926 170.947 193.13 170.871C192.334 170.795 191.561 170.563 190.855 170.189C190.148 169.814 189.523 169.304 189.014 168.687L176.304 153.348C175.206 153.276 174.134 152.98 173.154 152.479C172.174 151.977 171.307 151.281 170.607 150.432L161.134 138.835C160.453 138.016 159.941 137.07 159.627 136.053C159.313 135.035 159.203 133.965 159.304 132.905C159.404 131.845 159.712 130.815 160.212 129.874C160.711 128.934 161.391 128.101 162.212 127.423L163.005 126.766L162.937 126.749Z" fill="#AA46EB"/>
<path d="M198.402 160.984C199.379 162.234 199.829 163.817 199.656 165.394C199.483 166.97 198.701 168.418 197.477 169.426C196.253 170.435 194.683 170.926 193.102 170.794C191.521 170.663 190.054 169.919 189.014 168.721" fill="#AA46EB"/>
<path d="M101.344 174.469C100.625 175.341 100.181 176.407 100.067 177.531C99.9539 178.656 100.177 179.789 100.707 180.787C101.238 181.785 102.052 182.603 103.048 183.138C104.044 183.673 105.176 183.901 106.301 183.793C107.426 183.684 108.494 183.244 109.369 182.529C110.244 181.813 110.888 180.855 111.218 179.773C111.548 178.692 111.55 177.538 111.224 176.455C110.897 175.373 110.258 174.412 109.385 173.693C108.807 173.215 108.14 172.855 107.422 172.634C106.705 172.414 105.951 172.338 105.204 172.41C104.456 172.482 103.731 172.701 103.069 173.054C102.406 173.408 101.82 173.888 101.344 174.469Z" fill="white"/>
<path d="M111.492 182.173C112.17 181.349 113.003 180.667 113.945 180.167C114.886 179.666 115.917 179.355 116.979 179.254C118.04 179.152 119.112 179.261 120.131 179.573C121.151 179.886 122.099 180.397 122.92 181.077L134.517 190.651C135.369 191.349 136.068 192.216 136.569 193.196C137.071 194.176 137.365 195.25 137.434 196.349L152.806 209.025C154.004 210.065 154.748 211.532 154.88 213.113C155.011 214.694 154.52 216.264 153.511 217.488C152.503 218.712 151.056 219.494 149.479 219.667C147.902 219.84 146.319 219.39 145.069 218.413L129.697 205.738C128.603 205.871 127.495 205.782 126.437 205.475C125.38 205.168 124.395 204.649 123.544 203.951L111.93 194.461C110.271 193.09 109.223 191.116 109.018 188.973C108.813 186.83 109.466 184.694 110.834 183.032L111.492 182.257V182.173Z" fill="white"/>
<path d="M152.806 209.024C153.447 209.525 153.98 210.148 154.376 210.858C154.771 211.567 155.021 212.349 155.109 213.157C155.198 213.964 155.124 214.781 154.891 215.56C154.659 216.338 154.273 217.062 153.756 217.689C153.24 218.316 152.603 218.834 151.883 219.21C151.163 219.587 150.375 219.816 149.566 219.884C148.756 219.951 147.941 219.856 147.169 219.603C146.397 219.351 145.683 218.946 145.069 218.413" fill="white"/>
<path d="M58.4288 239.703C57.8879 240.696 57.6537 241.827 57.7561 242.953C57.8584 244.079 58.2926 245.15 59.0037 246.029C59.7148 246.909 60.6709 247.557 61.7508 247.893C62.8307 248.228 63.9859 248.236 65.0702 247.915C66.1545 247.594 67.119 246.958 67.8418 246.088C68.5645 245.218 69.0129 244.154 69.1303 243.029C69.2476 241.904 69.0285 240.77 68.5008 239.77C67.9731 238.769 67.1604 237.948 66.1658 237.41C64.8354 236.69 63.2738 236.528 61.8235 236.957C60.3732 237.387 59.1524 238.374 58.4288 239.703Z" fill="white"/>
<path d="M69.8572 245.332C70.3641 244.394 71.0512 243.565 71.8791 242.892C72.7071 242.219 73.6596 241.717 74.6821 241.413C75.7046 241.109 76.777 241.01 77.8379 241.122C78.8987 241.233 79.9272 241.553 80.8643 242.062L94.0795 249.243C95.0525 249.768 95.9066 250.488 96.5883 251.358C97.2699 252.228 97.7644 253.23 98.0407 254.3L115.622 263.773C117.041 264.542 118.097 265.843 118.557 267.391C119.017 268.938 118.843 270.605 118.074 272.024C117.305 273.444 116.004 274.499 114.457 274.959C112.909 275.419 111.243 275.246 109.823 274.477L92.3096 264.97C91.2611 265.31 90.1547 265.434 89.0568 265.336C87.959 265.238 86.8924 264.918 85.9211 264.397L72.7059 257.216C71.7674 256.709 70.938 256.022 70.2655 255.194C69.5929 254.366 69.0904 253.414 68.7866 252.391C68.4828 251.369 68.3838 250.296 68.4952 249.235C68.6066 248.174 68.9262 247.146 69.4358 246.209L69.9246 245.332H69.8572Z" fill="white"/>
<path d="M115.622 263.773C117.041 264.542 118.097 265.843 118.557 267.391C119.017 268.938 118.843 270.605 118.074 272.024C117.305 273.444 116.004 274.499 114.457 274.959C112.909 275.419 111.243 275.246 109.823 274.477" fill="white"/>
<path d="M26.8573 311.409C26.5245 312.485 26.5183 313.636 26.8394 314.716C27.1606 315.796 27.7948 316.756 28.6617 317.476C29.5287 318.195 30.5895 318.642 31.7101 318.758C32.8307 318.875 33.9607 318.657 34.9574 318.132C35.954 317.606 36.7725 316.797 37.3094 315.807C37.8462 314.816 38.0774 313.689 37.9735 312.567C37.8697 311.445 37.4356 310.379 36.7261 309.504C36.0166 308.629 35.0636 307.983 33.9874 307.65C33.2725 307.426 32.5203 307.346 31.7743 307.413C31.0282 307.481 30.3029 307.696 29.6402 308.046C28.9774 308.395 28.3904 308.872 27.9128 309.449C27.4352 310.026 27.0764 310.692 26.8573 311.409Z" fill="white"/>
<path d="M39.1623 314.695C39.7996 312.648 41.2204 310.936 43.1149 309.932C45.0094 308.928 47.224 308.713 49.2759 309.335L63.6542 313.802C64.7039 314.13 65.6757 314.668 66.5104 315.384C67.345 316.1 68.025 316.978 68.5088 317.966L87.5394 323.865C89.0818 324.344 90.3709 325.415 91.1232 326.844C91.8756 328.273 92.0295 329.942 91.5512 331.484C91.0728 333.026 90.0014 334.316 88.5726 335.068C87.1437 335.82 85.4745 335.974 83.9322 335.496L64.9016 329.596C63.9414 330.137 62.881 330.475 61.7854 330.591C60.6897 330.707 59.582 330.598 58.53 330.271L44.1685 325.804C42.1192 325.17 40.4052 323.749 39.4032 321.853C38.4012 319.956 38.1933 317.74 38.8251 315.69L39.1285 314.729L39.1623 314.695Z" fill="white"/>
<path d="M87.573 323.882C88.3637 324.095 89.1033 324.465 89.7475 324.97C90.3918 325.476 90.9274 326.106 91.3224 326.823C91.7174 327.54 91.9636 328.33 92.0463 329.144C92.129 329.959 92.0464 330.782 91.8036 331.564C91.5607 332.345 91.1626 333.07 90.6329 333.695C90.1033 334.319 89.4532 334.83 88.7214 335.197C87.9896 335.565 87.1912 335.78 86.3741 335.832C85.5569 335.883 84.7378 335.769 83.9658 335.496" fill="white"/>
<path d="M7.5399 387.7C7.41873 388.822 7.6335 389.954 8.15697 390.954C8.68044 391.954 9.48903 392.776 10.4802 393.315C11.4714 393.855 12.6004 394.088 13.7242 393.985C14.8481 393.882 15.916 393.448 16.7926 392.737C17.6691 392.026 18.3149 391.071 18.648 389.993C18.981 388.915 18.9863 387.762 18.6633 386.68C18.3402 385.599 17.7033 384.638 16.8333 383.919C15.9633 383.2 14.8995 382.756 13.7767 382.643C12.2801 382.492 10.7845 382.939 9.61612 383.886C8.44774 384.833 7.7014 386.204 7.5399 387.7Z" fill="white"/>
<path d="M20.2496 388.475C20.3528 387.413 20.6649 386.383 21.1679 385.442C21.6709 384.502 22.3548 383.67 23.1804 382.995C24.0059 382.32 24.9568 381.814 25.9784 381.508C26.9999 381.202 28.0719 381.1 29.1328 381.21L44.1011 382.71C45.1973 382.82 46.2593 383.154 47.2217 383.69C48.1841 384.227 49.0266 384.954 49.6973 385.828L69.5201 387.834C70.3345 387.889 71.1295 388.106 71.858 388.474C72.5865 388.842 73.2335 389.353 73.7606 389.976C74.2876 390.599 74.6839 391.322 74.926 392.101C75.168 392.881 75.2507 393.701 75.1693 394.513C75.0879 395.325 74.8439 396.112 74.452 396.828C74.06 397.544 73.528 398.174 72.8878 398.68C72.2475 399.186 71.5119 399.558 70.7249 399.774C69.9378 399.99 69.1154 400.045 68.3065 399.937L48.4837 397.931C47.651 398.656 46.6782 399.202 45.6256 399.536C44.5731 399.869 43.4632 399.983 42.3649 399.87L27.3966 398.42C25.2561 398.199 23.2908 397.137 21.932 395.469C20.5731 393.8 19.9317 391.661 20.1485 389.52L20.2496 388.525V388.475Z" fill="white"/>
<path d="M69.52 387.835C70.3344 387.889 71.1294 388.107 71.8579 388.475C72.5864 388.842 73.2334 389.353 73.7604 389.976C74.2875 390.599 74.6838 391.322 74.9258 392.102C75.1679 392.881 75.2506 393.701 75.1692 394.513C75.0878 395.325 74.8438 396.113 74.4518 396.829C74.0599 397.544 73.5279 398.174 72.8876 398.68C72.2474 399.186 71.5118 399.558 70.7248 399.774C69.9377 399.99 69.1153 400.046 68.3064 399.937" fill="white"/>
<path d="M0.891035 456.181C0.834411 457.308 1.11379 458.427 1.69373 459.395C2.27368 460.363 3.12806 461.137 4.14853 461.619C5.16901 462.101 6.3096 462.269 7.42566 462.101C8.54172 461.934 9.58296 461.439 10.4173 460.679C11.2517 459.919 11.8417 458.929 12.1123 457.833C12.383 456.738 12.3222 455.586 11.9377 454.525C11.5531 453.464 10.8621 452.542 9.95237 451.874C9.0426 451.206 7.95502 450.824 6.82755 450.775C5.32362 450.705 3.8536 451.236 2.74046 452.249C1.62733 453.263 0.962137 454.677 0.891035 456.181Z" fill="white"/>
<path d="M13.6567 456.207C13.7011 455.143 13.9551 454.098 14.4044 453.132C14.8536 452.166 15.4891 451.299 16.2745 450.579C17.0598 449.859 17.9796 449.302 18.9809 448.939C19.9823 448.575 21.0455 448.413 22.1096 448.462L37.1393 449.101C38.2316 449.156 39.3014 449.431 40.2839 449.912C41.2664 450.392 42.141 451.068 42.8547 451.896L62.8094 452.742C64.4232 452.811 65.9436 453.518 67.0362 454.707C68.1289 455.897 68.7042 457.472 68.6357 459.085C68.5672 460.699 67.8605 462.219 66.6709 463.312C65.4814 464.405 63.9065 464.98 62.2928 464.912L42.3876 464.046C41.5955 464.814 40.6553 465.413 39.6241 465.806C38.593 466.199 37.4926 466.378 36.39 466.332L21.3594 465.676C19.2163 465.586 17.1967 464.648 15.7446 463.069C14.2925 461.491 13.5267 459.4 13.6157 457.257L13.6586 456.241L13.6567 456.207Z" fill="white"/>
<path d="M62.8098 452.742C64.4235 452.811 65.944 453.518 67.0366 454.707C68.1293 455.897 68.7046 457.471 68.6361 459.085C68.5676 460.699 67.8608 462.219 66.6713 463.312C65.4818 464.405 63.9069 464.98 62.2932 464.912" fill="white"/>
<path d="M7.3728 530.874C7.48657 532.001 7.93259 533.069 8.65424 533.941C9.37588 534.814 10.3406 535.453 11.4259 535.776C12.5112 536.1 13.6682 536.094 14.7499 535.758C15.8316 535.423 16.7894 534.774 17.5014 533.893C18.2135 533.013 18.6479 531.94 18.7494 530.812C18.8509 529.684 18.6149 528.552 18.0714 527.558C17.528 526.564 16.7015 525.755 15.697 525.232C14.6925 524.709 13.5553 524.496 12.4296 524.621C10.9328 524.786 9.56177 525.536 8.61481 526.707C7.66786 527.878 7.2215 529.376 7.3728 530.874Z" fill="#AA46EB"/>
<path d="M19.9811 529.104C19.7645 526.961 20.4082 524.819 21.7706 523.15C23.133 521.481 25.1026 520.421 27.2461 520.204L42.2144 518.704C43.3088 518.59 44.4151 518.701 45.4647 519.032C46.5142 519.362 47.4848 519.905 48.3163 520.625L68.1391 518.636C68.9461 518.531 69.766 518.588 70.5504 518.805C71.3348 519.022 72.0677 519.394 72.7057 519.899C73.3438 520.404 73.874 521.033 74.2651 521.746C74.6561 522.46 74.9 523.245 74.9823 524.055C75.0646 524.864 74.9837 525.682 74.7443 526.46C74.5049 527.238 74.1119 527.96 73.5886 528.583C73.0653 529.206 72.4223 529.718 71.6976 530.089C70.9729 530.459 70.1813 530.68 69.3696 530.739L49.5299 532.745C48.8592 533.619 48.0167 534.347 47.0543 534.883C46.0919 535.419 45.0299 535.753 43.9337 535.863L28.9654 537.364C27.9049 537.471 26.8338 537.368 25.8131 537.061C24.7925 536.753 23.8425 536.248 23.0174 535.573C22.1923 534.898 21.5084 534.067 21.0048 533.128C20.5011 532.189 20.1876 531.159 20.0822 530.099L19.9811 529.104Z" fill="#AA46EB"/>
<path d="M68.1391 518.636C68.9461 518.531 69.766 518.588 70.5504 518.805C71.3348 519.022 72.0677 519.394 72.7057 519.899C73.3438 520.404 73.874 521.033 74.2651 521.746C74.6561 522.46 74.9 523.245 74.9823 524.055C75.0646 524.864 74.9837 525.682 74.7443 526.46C74.5049 527.238 74.1119 527.96 73.5886 528.583C73.0653 529.206 72.4223 529.718 71.6976 530.089C70.9729 530.459 70.1813 530.68 69.3696 530.739" fill="#AA46EB"/>
<path d="M7.3728 530.874C7.48657 532.001 7.93259 533.069 8.65424 533.941C9.37588 534.814 10.3406 535.453 11.4259 535.776C12.5112 536.1 13.6682 536.094 14.7499 535.758C15.8316 535.423 16.7894 534.774 17.5014 533.893C18.2135 533.013 18.6479 531.94 18.7494 530.812C18.8509 529.684 18.6149 528.552 18.0714 527.558C17.528 526.564 16.7015 525.755 15.697 525.232C14.6925 524.709 13.5553 524.496 12.4296 524.621C10.9328 524.786 9.56177 525.536 8.61481 526.707C7.66786 527.878 7.2215 529.376 7.3728 530.874Z" fill="#AA46EB"/>
<path d="M19.9811 529.104C19.7645 526.961 20.4082 524.819 21.7706 523.15C23.133 521.481 25.1026 520.421 27.2461 520.204L42.2144 518.704C43.3088 518.59 44.4151 518.701 45.4647 519.032C46.5142 519.362 47.4848 519.905 48.3163 520.625L68.1391 518.636C68.9461 518.531 69.766 518.588 70.5504 518.805C71.3348 519.022 72.0677 519.394 72.7057 519.899C73.3438 520.404 73.874 521.033 74.2651 521.746C74.6561 522.46 74.9 523.245 74.9823 524.055C75.0646 524.864 74.9837 525.682 74.7443 526.46C74.5049 527.238 74.1119 527.96 73.5886 528.583C73.0653 529.206 72.4223 529.718 71.6976 530.089C70.9729 530.459 70.1813 530.68 69.3696 530.739L49.5299 532.745C48.8592 533.619 48.0167 534.347 47.0543 534.883C46.0919 535.419 45.0299 535.753 43.9337 535.863L28.9654 537.364C27.9049 537.471 26.8338 537.368 25.8131 537.061C24.7925 536.753 23.8425 536.248 23.0174 535.573C22.1923 534.898 21.5084 534.067 21.0048 533.128C20.5011 532.189 20.1876 531.159 20.0822 530.099L19.9811 529.104Z" fill="#AA46EB"/>
<path d="M68.1391 518.636C68.9461 518.531 69.766 518.588 70.5504 518.805C71.3348 519.022 72.0677 519.394 72.7057 519.899C73.3438 520.404 73.874 521.033 74.2651 521.746C74.6561 522.46 74.9 523.245 74.9823 524.055C75.0646 524.864 74.9837 525.682 74.7443 526.46C74.5049 527.238 74.1119 527.96 73.5886 528.583C73.0653 529.206 72.4223 529.718 71.6976 530.089C70.9729 530.459 70.1813 530.68 69.3696 530.739" fill="#AA46EB"/>
<path d="M26.3683 607.234C26.7001 608.315 27.3456 609.274 28.2229 609.989C29.1002 610.703 30.1699 611.141 31.2963 611.247C32.4228 611.353 33.5553 611.122 34.5504 610.584C35.5456 610.045 36.3584 609.223 36.8861 608.223C37.4137 607.222 37.6324 606.087 37.5143 604.962C37.3962 603.836 36.9468 602.771 36.2229 601.902C35.4991 601.032 34.5333 600.397 33.4482 600.077C32.363 599.757 31.2072 599.766 30.1272 600.103C28.6881 600.558 27.4863 601.561 26.7825 602.896C26.0788 604.231 25.9299 605.79 26.3683 607.234Z" fill="white"/>
<path d="M38.3699 602.986C37.7473 600.936 37.9595 598.724 38.9602 596.829C39.9609 594.935 41.6692 593.513 43.7133 592.872L58.0916 588.422C59.1437 588.096 60.2514 587.987 61.3468 588.103C62.4423 588.219 63.5027 588.557 64.4632 589.096L83.477 583.18C84.2406 582.942 85.0437 582.857 85.8403 582.929C86.637 583.002 87.4115 583.23 88.1198 583.602C88.8281 583.974 89.4562 584.481 89.9683 585.096C90.4804 585.71 90.8664 586.42 91.1044 587.183C91.3423 587.947 91.4275 588.75 91.3551 589.547C91.2827 590.343 91.0541 591.118 90.6824 591.826C90.3106 592.534 89.803 593.163 89.1885 593.675C88.5741 594.187 87.8647 594.573 87.101 594.811L68.0704 600.694C67.5815 601.68 66.8978 602.558 66.0606 603.274C65.2234 603.989 64.25 604.528 63.199 604.857L48.8207 609.307C46.771 609.934 44.5563 609.724 42.661 608.723C40.7657 607.721 39.3441 606.01 38.707 603.964L38.4036 603.003L38.3699 602.986Z" fill="white"/>
<path d="M83.4938 583.146C84.2659 582.874 85.085 582.759 85.9021 582.811C86.7192 582.862 87.5176 583.078 88.2494 583.445C88.9812 583.812 89.6314 584.323 90.161 584.948C90.6906 585.572 91.0887 586.297 91.3316 587.079C91.5744 587.861 91.657 588.684 91.5743 589.498C91.4917 590.313 91.2455 591.102 90.8505 591.82C90.4555 592.537 89.9198 593.167 89.2755 593.672C88.6313 594.177 87.8917 594.547 87.1011 594.76" fill="white"/>
<path d="M57.6534 679.058C58.1869 680.054 59.0037 680.87 60.0007 681.402C60.9977 681.934 62.13 682.158 63.2545 682.047C64.3789 681.935 65.4451 681.493 66.3182 680.775C67.1913 680.058 67.8321 679.098 68.1597 678.016C68.4872 676.935 68.4867 675.781 68.1582 674.699C67.8298 673.618 67.1882 672.659 66.3145 671.942C65.4407 671.225 64.3742 670.784 63.2496 670.673C62.125 670.563 60.9929 670.788 59.9964 671.321C59.3328 671.673 58.7453 672.153 58.268 672.734C57.7906 673.314 57.4328 673.983 57.215 674.702C56.9972 675.421 56.9239 676.176 56.9991 676.924C57.0743 677.671 57.2967 678.397 57.6534 679.058Z" fill="white"/>
<path d="M68.5933 672.552C67.5588 670.667 67.3151 668.449 67.9157 666.385C68.5163 664.321 69.912 662.58 71.7959 661.545L85.0112 654.364C85.9824 653.843 87.049 653.523 88.1468 653.425C89.2447 653.326 90.3511 653.451 91.3996 653.791L108.896 644.284C109.599 643.902 110.37 643.663 111.166 643.579C111.961 643.495 112.765 643.569 113.532 643.796C114.299 644.023 115.014 644.398 115.636 644.902C116.257 645.405 116.774 646.025 117.156 646.728C117.538 647.431 117.777 648.202 117.861 648.998C117.945 649.793 117.871 650.597 117.644 651.364C117.417 652.131 117.042 652.846 116.538 653.468C116.035 654.089 115.415 654.606 114.712 654.988L97.1982 664.495C96.9209 665.565 96.426 666.566 95.7445 667.436C95.0629 668.306 94.2093 669.026 93.237 669.551L80.0217 676.732C78.1302 677.758 75.909 677.992 73.8454 677.382C71.7819 676.772 70.0446 675.368 69.0147 673.479L68.5258 672.586L68.5933 672.552Z" fill="white"/>
<path d="M108.981 644.283C110.4 643.514 112.067 643.341 113.614 643.801C115.161 644.261 116.463 645.317 117.232 646.736C118.001 648.155 118.174 649.822 117.714 651.369C117.254 652.917 116.198 654.218 114.779 654.987" fill="white"/>
<path d="M100.316 744.477C101.033 745.346 101.991 745.984 103.07 746.308C104.149 746.633 105.3 746.631 106.377 746.301C107.455 745.972 108.41 745.331 109.123 744.458C109.836 743.586 110.275 742.522 110.383 741.401C110.491 740.279 110.265 739.151 109.732 738.158C109.199 737.166 108.384 736.353 107.39 735.824C106.395 735.294 105.266 735.071 104.145 735.184C103.024 735.296 101.962 735.738 101.092 736.454C99.9281 737.417 99.1934 738.802 99.0481 740.305C98.9028 741.809 99.3587 743.309 100.316 744.477Z" fill="white"/>
<path d="M109.806 735.998C108.438 734.337 107.785 732.2 107.99 730.057C108.195 727.914 109.243 725.941 110.902 724.57L122.516 714.995C123.363 714.29 124.347 713.767 125.406 713.46C126.464 713.152 127.575 713.067 128.669 713.209L144.024 700.516C144.641 700.007 145.352 699.624 146.116 699.39C146.88 699.155 147.684 699.074 148.479 699.149C149.275 699.225 150.049 699.457 150.755 699.832C151.461 700.207 152.087 700.717 152.596 701.333C153.105 701.95 153.488 702.661 153.722 703.425C153.957 704.189 154.038 704.992 153.962 705.788C153.886 706.584 153.654 707.358 153.28 708.064C152.905 708.77 152.395 709.396 151.778 709.905L136.405 722.597C136.331 723.695 136.035 724.767 135.533 725.746C135.032 726.726 134.337 727.593 133.489 728.295L121.875 737.869C120.214 739.238 118.077 739.891 115.935 739.686C113.792 739.48 111.818 738.433 110.447 736.773L109.806 735.998Z" fill="white"/>
<path d="M144.025 700.516C144.641 700.007 145.352 699.624 146.116 699.39C146.881 699.155 147.684 699.074 148.48 699.149C149.275 699.225 150.049 699.457 150.755 699.832C151.461 700.207 152.087 700.717 152.596 701.333C153.105 701.95 153.488 702.661 153.722 703.425C153.957 704.189 154.038 704.992 153.962 705.788C153.886 706.584 153.654 707.358 153.28 708.064C152.905 708.77 152.395 709.396 151.778 709.905" fill="white"/>
<path d="M153.194 801.889C154.064 802.605 155.127 803.047 156.248 803.159C157.369 803.271 158.498 803.048 159.492 802.519C160.487 801.989 161.302 801.177 161.835 800.184C162.368 799.191 162.594 798.063 162.486 796.942C162.377 795.82 161.939 794.756 161.226 793.884C160.513 793.012 159.557 792.37 158.48 792.041C157.402 791.712 156.252 791.709 155.173 792.034C154.094 792.359 153.136 792.996 152.419 793.865C151.461 795.034 151.005 796.533 151.151 798.037C151.296 799.541 152.031 800.925 153.194 801.889Z" fill="#C91459"/>
<path d="M160.897 791.758C159.238 790.387 158.191 788.414 157.985 786.271C157.78 784.128 158.433 781.991 159.802 780.33L169.376 768.733C170.077 767.883 170.944 767.185 171.923 766.681C172.903 766.177 173.975 765.877 175.073 765.8L187.766 750.427C188.275 749.811 188.901 749.3 189.607 748.926C190.313 748.551 191.087 748.319 191.882 748.243C192.678 748.167 193.482 748.249 194.246 748.483C195.01 748.718 195.721 749.1 196.337 749.61C196.954 750.119 197.464 750.744 197.839 751.45C198.214 752.157 198.446 752.93 198.521 753.726C198.597 754.522 198.516 755.325 198.281 756.089C198.047 756.854 197.664 757.564 197.155 758.181L184.462 773.554C184.603 774.647 184.517 775.757 184.21 776.816C183.902 777.875 183.38 778.858 182.676 779.706L173.101 791.303C171.733 792.961 169.762 794.008 167.622 794.214C165.482 794.419 163.348 793.766 161.69 792.399L160.897 791.758Z" fill="#C91459"/>
<path d="M187.766 750.427C188.794 749.182 190.275 748.396 191.882 748.243C193.49 748.09 195.092 748.581 196.337 749.61C197.583 750.638 198.368 752.118 198.521 753.726C198.675 755.333 198.183 756.936 197.155 758.181" fill="#C91459"/>
<path d="M215.073 849.912C216.066 850.453 217.198 850.687 218.324 850.585C219.45 850.482 220.521 850.048 221.4 849.337C222.279 848.626 222.928 847.67 223.263 846.59C223.599 845.51 223.607 844.355 223.286 843.27C222.964 842.186 222.329 841.222 221.459 840.499C220.589 839.776 219.524 839.328 218.4 839.21C217.275 839.093 216.14 839.312 215.14 839.84C214.14 840.368 213.319 841.18 212.781 842.175C212.42 842.833 212.193 843.555 212.113 844.301C212.033 845.047 212.101 845.802 212.314 846.521C212.528 847.24 212.881 847.91 213.355 848.492C213.828 849.074 214.412 849.557 215.073 849.912Z" fill="white"/>
<path d="M220.619 838.5C219.68 837.993 218.851 837.306 218.178 836.478C217.506 835.65 217.003 834.698 216.699 833.675C216.396 832.653 216.297 831.58 216.408 830.519C216.519 829.459 216.839 828.43 217.349 827.493L224.529 814.261C225.058 813.291 225.779 812.439 226.649 811.758C227.518 811.077 228.518 810.581 229.586 810.3L239.059 792.854C239.44 792.151 239.955 791.53 240.576 791.026C241.197 790.523 241.911 790.146 242.677 789.918C243.443 789.691 244.247 789.616 245.042 789.699C245.837 789.782 246.608 790.02 247.31 790.401C248.013 790.782 248.634 791.297 249.138 791.918C249.641 792.539 250.018 793.252 250.245 794.019C250.473 794.785 250.548 795.588 250.465 796.383C250.382 797.178 250.144 797.949 249.763 798.652L240.256 816.166C240.605 817.21 240.734 818.315 240.635 819.411C240.536 820.508 240.212 821.572 239.683 822.537L232.502 835.769C231.994 836.706 231.306 837.534 230.477 838.205C229.649 838.876 228.696 839.377 227.673 839.679C226.651 839.981 225.579 840.079 224.519 839.966C223.459 839.853 222.431 839.533 221.495 839.023L220.619 838.551V838.5Z" fill="white"/>
<path d="M239.076 792.854C239.447 792.132 239.958 791.491 240.58 790.97C241.201 790.449 241.921 790.057 242.697 789.818C243.472 789.579 244.287 789.497 245.095 789.578C245.902 789.659 246.685 789.9 247.398 790.288C248.111 790.676 248.739 791.202 249.245 791.836C249.751 792.47 250.126 793.199 250.346 793.98C250.566 794.761 250.628 795.578 250.528 796.384C250.428 797.189 250.168 797.966 249.763 798.669" fill="white"/>
<path d="M271.996 880.86C272.989 881.401 274.121 881.635 275.247 881.533C276.373 881.431 277.444 880.996 278.323 880.285C279.202 879.574 279.851 878.618 280.187 877.538C280.522 876.458 280.53 875.303 280.209 874.219C279.887 873.135 279.252 872.17 278.382 871.447C277.512 870.725 276.447 870.276 275.323 870.159C274.198 870.042 273.064 870.261 272.063 870.788C271.063 871.316 270.242 872.129 269.704 873.123C268.984 874.454 268.821 876.015 269.251 877.466C269.681 878.916 270.668 880.137 271.996 880.86Z" fill="white"/>
<path d="M277.626 869.431C276.688 868.926 275.859 868.241 275.187 867.414C274.515 866.588 274.012 865.637 273.708 864.616C273.405 863.594 273.305 862.523 273.417 861.464C273.528 860.404 273.847 859.377 274.356 858.441L281.537 845.209C282.066 844.239 282.787 843.388 283.656 842.706C284.526 842.025 285.526 841.529 286.594 841.248L296.084 823.734C296.855 822.315 298.159 821.26 299.707 820.802C301.256 820.343 302.924 820.519 304.343 821.29C305.763 822.061 306.818 823.365 307.276 824.914C307.734 826.463 307.559 828.13 306.788 829.55L297.281 847.063C297.629 848.108 297.758 849.213 297.66 850.309C297.561 851.405 297.237 852.47 296.708 853.435L289.527 866.667C288.497 868.556 286.76 869.96 284.696 870.57C282.633 871.18 280.411 870.946 278.52 869.92L277.643 869.431H277.626Z" fill="white"/>
<path d="M296.084 823.734C296.454 823.012 296.966 822.372 297.587 821.85C298.209 821.329 298.929 820.937 299.704 820.698C300.48 820.459 301.295 820.377 302.103 820.458C302.91 820.539 303.693 820.78 304.406 821.168C305.119 821.556 305.747 822.082 306.253 822.716C306.759 823.351 307.133 824.08 307.354 824.861C307.574 825.642 307.636 826.459 307.536 827.264C307.436 828.069 307.176 828.846 306.771 829.549" fill="white"/>
<path d="M346.197 906.515C347.277 906.851 348.431 906.859 349.516 906.539C350.6 906.219 351.565 905.584 352.288 904.715C353.011 903.846 353.461 902.782 353.579 901.658C353.698 900.534 353.48 899.4 352.954 898.399C352.428 897.399 351.616 896.577 350.623 896.037C349.629 895.498 348.498 895.265 347.372 895.369C346.247 895.473 345.177 895.908 344.299 896.62C343.42 897.331 342.773 898.288 342.438 899.368C341.995 900.814 342.141 902.377 342.845 903.716C343.549 905.055 344.754 906.061 346.197 906.515Z" fill="white"/>
<path d="M349.484 894.21C347.44 893.569 345.732 892.146 344.731 890.252C343.73 888.358 343.518 886.146 344.141 884.096L348.608 869.734C348.929 868.68 349.464 867.702 350.181 866.864C350.897 866.026 351.779 865.345 352.771 864.863L358.671 845.832C358.908 845.069 359.293 844.359 359.804 843.744C360.315 843.129 360.942 842.621 361.649 842.249C362.357 841.876 363.131 841.647 363.927 841.573C364.723 841.5 365.526 841.584 366.29 841.821C367.053 842.058 367.763 842.442 368.378 842.954C368.993 843.465 369.501 844.092 369.874 844.799C370.246 845.507 370.476 846.281 370.549 847.077C370.622 847.873 370.538 848.676 370.302 849.44L364.385 868.47C364.927 869.43 365.268 870.489 365.387 871.585C365.506 872.68 365.4 873.789 365.076 874.842L360.609 889.22C359.968 891.264 358.546 892.973 356.652 893.973C354.758 894.974 352.545 895.186 350.496 894.564L349.535 894.26L349.484 894.21Z" fill="white"/>
<path d="M358.671 845.782C358.907 845.019 359.292 844.309 359.803 843.694C360.314 843.079 360.942 842.571 361.649 842.198C362.357 841.826 363.131 841.596 363.927 841.523C364.723 841.449 365.526 841.534 366.289 841.77C367.053 842.007 367.763 842.392 368.378 842.903C368.993 843.414 369.501 844.042 369.873 844.749C370.246 845.457 370.475 846.231 370.549 847.027C370.622 847.823 370.538 848.626 370.301 849.389" fill="white"/>
<path d="M423.803 919.393C424.928 919.518 426.066 919.305 427.07 918.782C428.075 918.259 428.901 917.449 429.445 916.456C429.988 915.462 430.224 914.329 430.123 913.201C430.021 912.073 429.587 911.001 428.875 910.12C428.163 909.24 427.205 908.591 426.123 908.255C425.041 907.92 423.884 907.914 422.799 908.237C421.714 908.561 420.749 909.199 420.027 910.072C419.306 910.945 418.86 912.013 418.746 913.139C418.599 914.637 419.047 916.132 419.993 917.302C420.939 918.472 422.308 919.223 423.803 919.393Z" fill="#AA46EB"/>
<path d="M424.578 906.684C422.435 906.467 420.465 905.407 419.103 903.738C417.74 902.069 417.097 899.927 417.313 897.784L418.83 882.816C418.938 881.72 419.268 880.659 419.802 879.696C420.335 878.734 421.06 877.891 421.932 877.219L423.938 857.396C423.992 856.582 424.21 855.787 424.578 855.059C424.946 854.33 425.456 853.683 426.079 853.156C426.703 852.629 427.425 852.233 428.205 851.991C428.984 851.749 429.804 851.666 430.616 851.747C431.428 851.829 432.216 852.073 432.932 852.465C433.648 852.857 434.277 853.389 434.783 854.029C435.289 854.669 435.661 855.405 435.877 856.192C436.093 856.979 436.149 857.801 436.04 858.61L434.051 878.45C434.772 879.281 435.315 880.252 435.645 881.301C435.976 882.351 436.087 883.457 435.973 884.552L434.473 899.52C434.256 901.66 433.198 903.627 431.533 904.989C429.868 906.351 427.73 906.997 425.59 906.785L424.578 906.684Z" fill="#AA46EB"/>
<path d="M423.938 857.396C424.099 855.789 424.891 854.311 426.142 853.289C427.392 852.266 428.997 851.782 430.604 851.943C432.211 852.104 433.689 852.897 434.711 854.147C435.734 855.397 436.218 857.003 436.057 858.61" fill="#AA46EB"/>
<path d="M423.803 919.393C424.928 919.518 426.066 919.305 427.07 918.782C428.075 918.259 428.901 917.449 429.445 916.456C429.988 915.462 430.224 914.329 430.123 913.201C430.021 912.073 429.587 911.001 428.875 910.12C428.163 909.24 427.205 908.591 426.123 908.255C425.041 907.92 423.884 907.914 422.799 908.237C421.714 908.561 420.749 909.199 420.027 910.072C419.306 910.945 418.86 912.013 418.746 913.139C418.599 914.637 419.047 916.132 419.993 917.302C420.939 918.472 422.308 919.223 423.803 919.393Z" fill="#AA46EB"/>
<path d="M424.578 906.684C422.435 906.467 420.465 905.407 419.103 903.738C417.74 902.069 417.097 899.927 417.313 897.784L418.83 882.816C418.938 881.72 419.268 880.659 419.802 879.696C420.335 878.734 421.06 877.891 421.932 877.219L423.938 857.396C423.992 856.582 424.21 855.787 424.578 855.059C424.946 854.33 425.456 853.683 426.079 853.156C426.703 852.629 427.425 852.233 428.205 851.991C428.984 851.749 429.804 851.666 430.616 851.747C431.428 851.829 432.216 852.073 432.932 852.465C433.648 852.857 434.277 853.389 434.783 854.029C435.289 854.669 435.661 855.405 435.877 856.192C436.093 856.979 436.149 857.801 436.04 858.61L434.051 878.45C434.772 879.281 435.315 880.252 435.645 881.301C435.976 882.351 436.087 883.457 435.973 884.552L434.473 899.52C434.256 901.66 433.198 903.627 431.533 904.989C429.868 906.351 427.73 906.997 425.59 906.785L424.578 906.684Z" fill="#AA46EB"/>
<path d="M423.938 857.396C424.099 855.789 424.891 854.311 426.142 853.289C427.392 852.266 428.997 851.782 430.604 851.943C432.211 852.104 433.689 852.897 434.711 854.147C435.734 855.397 436.218 857.003 436.057 858.61" fill="#AA46EB"/>
<path d="M502.453 919.46C503.575 919.344 504.637 918.897 505.505 918.177C506.372 917.456 507.006 916.494 507.327 915.413C507.647 914.332 507.64 913.18 507.305 912.103C506.97 911.026 506.324 910.073 505.447 909.363C504.57 908.654 503.502 908.222 502.379 908.12C501.256 908.018 500.128 908.251 499.138 908.791C498.148 909.331 497.34 910.152 496.817 911.151C496.294 912.151 496.079 913.282 496.2 914.404C496.278 915.147 496.501 915.867 496.858 916.523C497.214 917.18 497.697 917.76 498.278 918.229C498.859 918.699 499.526 919.05 500.243 919.261C500.959 919.472 501.711 919.54 502.453 919.46Z" fill="white"/>
<path d="M500.667 906.869C498.526 907.081 496.388 906.435 494.723 905.073C493.058 903.711 492.001 901.744 491.783 899.604L490.266 884.636C490.157 883.537 490.273 882.429 490.606 881.377C490.939 880.325 491.483 879.352 492.205 878.517L490.199 858.694C490.038 857.087 490.522 855.481 491.545 854.231C492.567 852.981 494.045 852.188 495.652 852.027C497.259 851.866 498.864 852.35 500.115 853.373C501.365 854.396 502.158 855.873 502.319 857.48L504.308 877.303C505.182 877.974 505.909 878.816 506.446 879.779C506.982 880.741 507.316 881.803 507.426 882.899L508.943 897.868C509.05 898.928 508.947 899.999 508.64 901.02C508.333 902.04 507.827 902.99 507.152 903.816C506.478 904.641 505.647 905.325 504.707 905.828C503.768 906.332 502.739 906.645 501.678 906.751L500.667 906.869Z" fill="white"/>
<path d="M490.199 858.694C490.038 857.087 490.522 855.481 491.545 854.231C492.567 852.981 494.045 852.188 495.652 852.027C497.259 851.866 498.864 852.35 500.115 853.373C501.365 854.396 502.158 855.873 502.319 857.48" fill="white"/>
<path d="M580.093 906.751C581.173 906.416 582.13 905.769 582.841 904.891C583.553 904.012 583.988 902.943 584.092 901.817C584.196 900.691 583.963 899.56 583.424 898.566C582.884 897.573 582.062 896.762 581.062 896.235C580.061 895.709 578.927 895.491 577.803 895.61C576.679 895.729 575.615 896.178 574.746 896.901C573.877 897.625 573.242 898.589 572.922 899.674C572.602 900.758 572.61 901.913 572.946 902.992C573.4 904.435 574.406 905.64 575.745 906.344C577.084 907.048 578.647 907.194 580.093 906.751Z" fill="white"/>
<path d="M575.795 894.749C573.745 895.376 571.53 895.166 569.635 894.165C567.74 893.164 566.318 891.453 565.681 889.406L561.214 875.027C560.887 873.978 560.778 872.873 560.894 871.78C561.01 870.688 561.349 869.63 561.888 868.673L555.989 849.642C555.51 848.1 555.664 846.431 556.417 845.002C557.169 843.573 558.458 842.502 560.001 842.023C561.543 841.545 563.212 841.699 564.641 842.451C566.07 843.203 567.141 844.493 567.62 846.035L573.519 865.066C574.507 865.549 575.385 866.229 576.101 867.064C576.817 867.899 577.355 868.87 577.683 869.92L582.15 884.298C582.777 886.348 582.567 888.563 581.565 890.458C580.564 892.353 578.853 893.775 576.806 894.412L575.828 894.715L575.795 894.749Z" fill="white"/>
<path d="M555.989 849.626C555.752 848.862 555.668 848.059 555.741 847.263C555.815 846.467 556.044 845.693 556.417 844.985C556.789 844.278 557.297 843.651 557.912 843.14C558.527 842.629 559.237 842.244 560.001 842.007C560.764 841.77 561.567 841.686 562.363 841.759C563.159 841.833 563.933 842.062 564.641 842.435C565.348 842.807 565.976 843.315 566.487 843.93C566.998 844.545 567.383 845.255 567.62 846.018" fill="white"/>
<path d="M654.361 881.248C655.356 880.709 656.168 879.888 656.696 878.888C657.224 877.888 657.443 876.754 657.326 875.629C657.208 874.504 656.76 873.439 656.037 872.57C655.314 871.7 654.35 871.064 653.266 870.743C652.181 870.422 651.026 870.429 649.946 870.765C648.866 871.101 647.91 871.749 647.199 872.628C646.488 873.508 646.054 874.578 645.951 875.704C645.849 876.831 646.083 877.962 646.624 878.955C647.348 880.283 648.569 881.271 650.019 881.7C651.469 882.13 653.031 881.967 654.361 881.248Z" fill="white"/>
<path d="M647.838 870.392C645.946 871.418 643.725 871.652 641.661 871.042C639.598 870.432 637.861 869.028 636.831 867.139L629.734 853.823C629.213 852.854 628.894 851.79 628.796 850.695C628.697 849.6 628.821 848.497 629.161 847.451L619.621 829.937C618.849 828.518 618.674 826.85 619.132 825.301C619.59 823.752 620.645 822.449 622.065 821.678C623.484 820.907 625.152 820.731 626.701 821.189C628.25 821.648 629.553 822.703 630.324 824.122L639.848 841.636C640.916 841.917 641.916 842.413 642.785 843.094C643.655 843.775 644.376 844.627 644.905 845.597L652.069 858.829C652.578 859.764 652.899 860.79 653.011 861.849C653.124 862.908 653.026 863.978 652.724 864.999C652.421 866.02 651.921 866.972 651.25 867.799C650.579 868.626 649.752 869.312 648.815 869.819L647.922 870.308L647.838 870.392Z" fill="white"/>
<path d="M619.621 829.937C618.849 828.518 618.674 826.85 619.132 825.301C619.59 823.752 620.645 822.449 622.065 821.678C623.484 820.907 625.152 820.731 626.701 821.189C628.25 821.648 629.553 822.703 630.324 824.122" fill="white"/>
<path d="M711.369 850.3C712.363 849.762 713.176 848.941 713.704 847.94C714.232 846.94 714.451 845.806 714.333 844.681C714.216 843.556 713.768 842.492 713.045 841.622C712.322 840.752 711.357 840.116 710.273 839.795C709.189 839.474 708.034 839.482 706.954 839.817C705.874 840.153 704.918 840.801 704.207 841.681C703.496 842.56 703.061 843.631 702.959 844.757C702.857 845.883 703.091 847.014 703.632 848.007C704.355 849.336 705.576 850.323 707.027 850.753C708.477 851.182 710.038 851.02 711.369 850.3Z" fill="#FFC82D"/>
<path d="M704.845 839.36C703.909 839.87 702.882 840.191 701.822 840.303C700.762 840.416 699.69 840.318 698.667 840.016C697.645 839.714 696.692 839.213 695.863 838.542C695.035 837.872 694.347 837.044 693.838 836.107L686.658 822.875C686.136 821.907 685.816 820.843 685.718 819.748C685.619 818.652 685.744 817.549 686.085 816.503L676.578 798.99C675.809 797.57 675.635 795.903 676.095 794.356C676.555 792.809 677.611 791.507 679.03 790.738C680.45 789.969 682.116 789.796 683.664 790.256C685.211 790.716 686.512 791.772 687.281 793.191L696.788 810.705C697.857 810.985 698.856 811.482 699.726 812.163C700.595 812.844 701.316 813.696 701.845 814.666L709.009 827.881C709.519 828.817 709.84 829.845 709.952 830.905C710.065 831.965 709.967 833.037 709.665 834.059C709.363 835.082 708.862 836.034 708.191 836.863C707.521 837.692 706.693 838.38 705.756 838.888L704.862 839.36H704.845Z" fill="#FFC82D"/>
<path d="M676.578 798.99C675.807 797.57 675.631 795.903 676.089 794.354C676.547 792.805 677.602 791.501 679.022 790.73C680.441 789.959 682.109 789.783 683.658 790.242C685.207 790.7 686.51 791.755 687.281 793.174" fill="#FFC82D"/>
<path d="M711.369 850.3C712.363 849.762 713.176 848.941 713.704 847.94C714.232 846.94 714.451 845.806 714.333 844.681C714.216 843.556 713.768 842.492 713.045 841.622C712.322 840.752 711.357 840.116 710.273 839.795C709.189 839.474 708.034 839.482 706.954 839.817C705.874 840.153 704.918 840.801 704.207 841.681C703.496 842.56 703.061 843.631 702.959 844.757C702.857 845.883 703.091 847.014 703.632 848.007C704.355 849.336 705.576 850.323 707.027 850.753C708.477 851.182 710.038 851.02 711.369 850.3Z" fill="#FFC82D"/>
<path d="M704.845 839.36C703.909 839.87 702.882 840.191 701.822 840.303C700.762 840.416 699.69 840.318 698.667 840.016C697.645 839.714 696.692 839.213 695.863 838.542C695.035 837.872 694.347 837.044 693.838 836.107L686.658 822.875C686.136 821.907 685.816 820.843 685.718 819.748C685.619 818.652 685.744 817.549 686.085 816.503L676.578 798.99C675.809 797.57 675.635 795.903 676.095 794.356C676.555 792.809 677.611 791.507 679.03 790.738C680.45 789.969 682.116 789.796 683.664 790.256C685.211 790.716 686.512 791.772 687.281 793.191L696.788 810.705C697.857 810.985 698.856 811.482 699.726 812.163C700.595 812.844 701.316 813.696 701.845 814.666L709.009 827.881C709.519 828.817 709.84 829.845 709.952 830.905C710.065 831.965 709.967 833.037 709.665 834.059C709.363 835.082 708.862 836.034 708.191 836.863C707.521 837.692 706.693 838.38 705.756 838.888L704.862 839.36H704.845Z" fill="#FFC82D"/>
<path d="M676.578 798.99C675.807 797.57 675.631 795.903 676.089 794.354C676.547 792.805 677.602 791.501 679.022 790.73C680.441 789.959 682.109 789.783 683.658 790.242C685.207 790.7 686.51 791.755 687.281 793.174" fill="#FFC82D"/>
<path d="M773.248 802.411C774.114 801.693 774.749 800.734 775.072 799.656C775.394 798.578 775.39 797.428 775.06 796.352C774.729 795.276 774.088 794.322 773.216 793.61C772.344 792.898 771.28 792.461 770.16 792.353C769.04 792.245 767.912 792.471 766.92 793.003C765.928 793.535 765.116 794.349 764.586 795.342C764.057 796.335 763.833 797.463 763.943 798.583C764.054 799.703 764.494 800.765 765.207 801.636C766.171 802.804 767.559 803.542 769.067 803.688C770.575 803.833 772.078 803.374 773.248 802.411Z" fill="white"/>
<path d="M764.752 792.854C763.091 794.223 760.954 794.876 758.811 794.67C756.668 794.465 754.695 793.418 753.324 791.758L743.749 780.144C743.052 779.296 742.534 778.314 742.227 777.26C741.92 776.205 741.83 775.099 741.963 774.009L729.287 758.636C728.258 757.391 727.767 755.788 727.92 754.181C728.074 752.574 728.859 751.093 730.104 750.065C731.349 749.036 732.952 748.545 734.559 748.698C736.167 748.851 737.647 749.637 738.676 750.882L751.351 766.255C752.451 766.327 753.525 766.625 754.505 767.129C755.485 767.634 756.351 768.335 757.049 769.188L766.623 780.785C767.304 781.606 767.816 782.553 768.13 783.572C768.444 784.59 768.555 785.661 768.454 786.723C768.354 787.785 768.046 788.816 767.546 789.758C767.047 790.7 766.367 791.535 765.544 792.213L764.752 792.854Z" fill="white"/>
<path d="M729.287 758.703C728.778 758.087 728.395 757.376 728.16 756.612C727.926 755.847 727.844 755.044 727.92 754.248C727.996 753.453 728.228 752.679 728.603 751.973C728.978 751.267 729.488 750.641 730.104 750.132C730.721 749.623 731.431 749.24 732.196 749.006C732.96 748.771 733.763 748.69 734.559 748.766C735.355 748.842 736.128 749.074 736.835 749.448C737.541 749.823 738.166 750.333 738.676 750.95" fill="white"/>
<path d="M826.226 745.1C826.942 744.23 827.384 743.168 827.496 742.047C827.609 740.926 827.386 739.797 826.856 738.802C826.327 737.808 825.514 736.993 824.522 736.46C823.529 735.927 822.401 735.701 821.279 735.809C820.158 735.917 819.094 736.356 818.222 737.069C817.349 737.782 816.708 738.737 816.379 739.815C816.049 740.892 816.047 742.043 816.372 743.122C816.696 744.201 817.334 745.159 818.203 745.876C818.78 746.352 819.446 746.71 820.162 746.928C820.878 747.147 821.63 747.223 822.375 747.151C823.121 747.079 823.844 746.861 824.505 746.509C825.166 746.157 825.751 745.678 826.226 745.1Z" fill="white"/>
<path d="M816.096 737.397C814.725 739.056 812.751 740.104 810.608 740.309C808.466 740.514 806.329 739.861 804.668 738.493L793.054 728.918C792.206 728.216 791.511 727.349 791.01 726.37C790.508 725.39 790.212 724.319 790.138 723.221L774.697 710.545C774.081 710.036 773.571 709.41 773.196 708.704C772.821 707.998 772.589 707.225 772.513 706.429C772.437 705.633 772.519 704.83 772.753 704.065C772.988 703.301 773.371 702.59 773.88 701.974C774.389 701.357 775.014 700.847 775.721 700.472C776.427 700.098 777.2 699.866 777.996 699.79C778.792 699.714 779.595 699.796 780.36 700.03C781.124 700.264 781.835 700.647 782.451 701.156L797.824 713.832C798.917 713.691 800.028 713.777 801.086 714.085C802.145 714.392 803.129 714.914 803.976 715.619L815.573 725.193C817.233 726.564 818.28 728.538 818.486 730.681C818.691 732.823 818.038 734.96 816.669 736.622L816.029 737.397H816.096Z" fill="white"/>
<path d="M774.697 710.529C774.081 710.02 773.571 709.394 773.196 708.688C772.821 707.981 772.589 707.208 772.513 706.412C772.437 705.616 772.519 704.813 772.753 704.049C772.988 703.285 773.371 702.574 773.88 701.957C774.389 701.341 775.014 700.831 775.721 700.456C776.427 700.081 777.2 699.849 777.996 699.773C778.792 699.697 779.595 699.779 780.36 700.013C781.124 700.248 781.835 700.631 782.451 701.14" fill="white"/>
<path d="M869.092 679.783C869.633 678.789 869.867 677.658 869.765 676.532C869.662 675.406 869.228 674.335 868.517 673.456C867.806 672.577 866.85 671.928 865.77 671.592C864.69 671.257 863.535 671.249 862.451 671.57C861.366 671.892 860.402 672.527 859.679 673.397C858.956 674.267 858.508 675.332 858.39 676.456C858.273 677.581 858.492 678.715 859.02 679.716C859.548 680.716 860.36 681.537 861.355 682.075C862.685 682.795 864.247 682.958 865.697 682.528C867.148 682.098 868.368 681.111 869.092 679.783Z" fill="white"/>
<path d="M857.596 674.153C856.569 676.045 854.833 677.453 852.769 678.066C850.705 678.679 848.482 678.448 846.589 677.423L833.374 670.243C832.404 669.714 831.552 668.993 830.871 668.123C830.19 667.254 829.693 666.254 829.412 665.186L811.899 655.679C811.16 655.319 810.502 654.813 809.965 654.192C809.427 653.571 809.021 652.848 808.77 652.066C808.519 651.283 808.43 650.458 808.506 649.641C808.583 648.823 808.825 648.029 809.216 647.307C809.608 646.585 810.142 645.95 810.786 645.439C811.43 644.929 812.17 644.555 812.962 644.339C813.755 644.122 814.583 644.069 815.397 644.181C816.211 644.293 816.993 644.569 817.697 644.992L835.211 654.499C836.258 654.15 837.366 654.021 838.465 654.119C839.564 654.218 840.631 654.542 841.599 655.072L854.815 662.253C855.751 662.76 856.578 663.446 857.249 664.273C857.92 665.099 858.422 666.05 858.726 667.071C859.029 668.091 859.129 669.162 859.019 670.221C858.909 671.28 858.592 672.307 858.085 673.243L857.596 674.136V674.153Z" fill="white"/>
<path d="M811.899 655.696C810.479 654.927 809.424 653.625 808.964 652.078C808.504 650.531 808.677 648.864 809.446 647.445C810.215 646.025 811.516 644.969 813.064 644.509C814.611 644.049 816.278 644.223 817.697 644.992" fill="white"/>
<path d="M900.444 608.009C900.777 606.933 900.783 605.782 900.462 604.702C900.141 603.622 899.507 602.662 898.64 601.942C897.773 601.222 896.712 600.776 895.591 600.659C894.471 600.543 893.341 600.761 892.344 601.286C891.347 601.812 890.529 602.621 889.992 603.611C889.455 604.602 889.224 605.729 889.328 606.851C889.432 607.973 889.866 609.039 890.575 609.914C891.285 610.789 892.238 611.434 893.314 611.768C894.029 611.992 894.781 612.072 895.527 612.004C896.273 611.936 896.999 611.722 897.661 611.372C898.324 611.023 898.911 610.546 899.389 609.969C899.866 609.391 900.225 608.725 900.444 608.009Z" fill="#00AA6D"/>
<path d="M888.156 604.722C887.515 606.766 886.093 608.474 884.199 609.475C882.305 610.476 880.092 610.688 878.042 610.065L863.664 605.615C862.615 605.288 861.643 604.749 860.808 604.033C859.973 603.318 859.293 602.439 858.81 601.452L839.779 595.535C838.988 595.323 838.249 594.952 837.605 594.447C836.96 593.942 836.425 593.312 836.03 592.595C835.635 591.878 835.388 591.088 835.306 590.273C835.223 589.459 835.306 588.636 835.549 587.854C835.791 587.072 836.19 586.347 836.719 585.723C837.249 585.099 837.899 584.587 838.631 584.22C839.362 583.853 840.161 583.637 840.978 583.586C841.795 583.535 842.614 583.649 843.386 583.921L862.417 589.821C863.377 589.281 864.437 588.942 865.533 588.826C866.629 588.71 867.736 588.819 868.788 589.147L883.15 593.614C885.199 594.247 886.913 595.668 887.915 597.564C888.917 599.461 889.125 601.678 888.493 603.727L888.207 604.688L888.156 604.722Z" fill="#00AA6D"/>
<path d="M839.728 595.536C838.965 595.299 838.255 594.914 837.64 594.403C837.025 593.892 836.517 593.264 836.145 592.557C835.772 591.849 835.543 591.076 835.469 590.279C835.396 589.483 835.48 588.68 835.717 587.917C835.954 587.153 836.338 586.443 836.85 585.828C837.361 585.214 837.988 584.705 838.695 584.333C839.403 583.96 840.177 583.731 840.973 583.657C841.769 583.584 842.572 583.668 843.336 583.905" fill="#00AA6D"/>
<path d="M919.66 531.685C919.785 530.559 919.572 529.422 919.049 528.418C918.526 527.413 917.716 526.587 916.723 526.043C915.729 525.5 914.596 525.264 913.469 525.365C912.341 525.467 911.268 525.901 910.388 526.613C909.507 527.325 908.858 528.283 908.523 529.365C908.187 530.446 908.181 531.603 908.504 532.689C908.828 533.774 909.467 534.739 910.339 535.46C911.212 536.182 912.28 536.628 913.406 536.742C914.905 536.893 916.403 536.447 917.574 535.5C918.745 534.553 919.495 533.182 919.66 531.685Z" fill="white"/>
<path d="M906.9 530.909C906.795 531.97 906.481 532.999 905.978 533.939C905.474 534.878 904.79 535.709 903.965 536.384C903.14 537.059 902.19 537.564 901.169 537.871C900.149 538.178 899.078 538.281 898.017 538.174L883.049 536.674C881.95 536.564 880.886 536.231 879.921 535.694C878.955 535.158 878.11 534.43 877.436 533.556L857.613 531.584C856.801 531.525 856.01 531.303 855.285 530.933C854.56 530.563 853.917 530.051 853.394 529.427C852.871 528.804 852.478 528.082 852.238 527.304C851.999 526.527 851.918 525.709 852 524.899C852.083 524.089 852.327 523.304 852.718 522.591C853.109 521.877 853.639 521.249 854.277 520.744C854.915 520.239 855.648 519.867 856.432 519.65C857.217 519.433 858.037 519.375 858.843 519.481L878.666 521.47C879.499 520.752 880.47 520.211 881.519 519.88C882.568 519.55 883.674 519.437 884.768 519.548L899.736 521.048C900.797 521.154 901.827 521.467 902.766 521.971C903.705 522.475 904.536 523.159 905.211 523.984C905.886 524.809 906.391 525.759 906.698 526.779C907.006 527.8 907.109 528.871 907.001 529.932L906.9 530.943V530.909Z" fill="white"/>
<path d="M857.613 531.584C856.801 531.525 856.01 531.303 855.285 530.933C854.56 530.563 853.917 530.051 853.394 529.427C852.871 528.804 852.478 528.082 852.238 527.304C851.999 526.527 851.918 525.709 852 524.899C852.083 524.089 852.327 523.304 852.718 522.591C853.109 521.877 853.639 521.249 854.277 520.744C854.915 520.239 855.648 519.867 856.432 519.65C857.217 519.433 858.037 519.375 858.843 519.481" fill="white"/>
<path d="M926.217 463.074C926.205 461.941 925.858 460.838 925.218 459.903C924.578 458.969 923.675 458.246 922.623 457.825C921.572 457.405 920.419 457.307 919.311 457.543C918.204 457.779 917.191 458.339 916.402 459.152C915.614 459.964 915.084 460.993 914.881 462.107C914.678 463.222 914.811 464.371 915.262 465.409C915.714 466.448 916.464 467.329 917.417 467.941C918.37 468.552 919.483 468.867 920.615 468.845C921.362 468.834 922.1 468.677 922.786 468.381C923.472 468.085 924.093 467.657 924.613 467.121C925.134 466.585 925.543 465.952 925.818 465.257C926.093 464.563 926.229 463.821 926.217 463.074Z" fill="white"/>
<path d="M913.508 463.846C913.549 465.996 912.735 468.074 911.245 469.623C909.754 471.173 907.709 472.067 905.559 472.108L890.519 472.416C889.415 472.439 888.318 472.236 887.296 471.819C886.273 471.403 885.346 470.782 884.572 469.994L864.654 470.4C863.854 470.415 863.059 470.273 862.315 469.981C861.57 469.689 860.89 469.253 860.314 468.699C859.15 467.578 858.478 466.042 858.447 464.427C858.417 462.812 859.028 461.25 860.149 460.086C860.703 459.51 861.366 459.049 862.099 458.728C862.832 458.408 863.621 458.235 864.421 458.22L884.341 457.831C885.079 457.015 885.977 456.358 886.979 455.901C887.98 455.444 889.065 455.197 890.166 455.174L905.208 454.883C906.274 454.858 907.335 455.045 908.329 455.431C909.323 455.817 910.231 456.396 911 457.135C911.769 457.874 912.385 458.757 912.812 459.734C913.239 460.712 913.468 461.764 913.487 462.83L913.508 463.846Z" fill="white"/>
<path d="M864.654 470.4C863.854 470.415 863.059 470.273 862.315 469.981C861.57 469.689 860.89 469.253 860.314 468.699C859.15 467.578 858.478 466.042 858.447 464.427C858.417 462.812 859.028 461.25 860.149 460.086C860.703 459.51 861.366 459.049 862.099 458.728C862.832 458.408 863.621 458.235 864.421 458.22" fill="white"/>
</svg>
