<svg width="1130" height="1131" viewBox="0 0 1130 1131" fill="none" xmlns="http://www.w3.org/2000/svg">
<path d="M1123.98 498.501C1123.88 497.4 1123.46 496.352 1122.77 495.491C1122.07 494.629 1121.14 493.993 1120.08 493.663C1119.03 493.332 1117.9 493.322 1116.83 493.634C1115.77 493.945 1114.83 494.564 1114.12 495.413C1113.41 496.261 1112.96 497.301 1112.85 498.401C1112.73 499.501 1112.94 500.611 1113.45 501.592C1113.96 502.573 1114.75 503.38 1115.72 503.911C1116.69 504.442 1117.8 504.674 1118.9 504.577C1119.63 504.513 1120.35 504.304 1121 503.964C1121.65 503.623 1122.23 503.158 1122.7 502.593C1123.17 502.029 1123.53 501.377 1123.75 500.675C1123.97 499.973 1124.05 499.234 1123.98 498.501Z" fill="white"/>
<path d="M1111.58 500.107C1111.77 502.215 1111.11 504.311 1109.76 505.934C1108.4 507.558 1106.45 508.577 1104.35 508.766L1089.63 510.074C1088.55 510.176 1087.46 510.055 1086.43 509.719C1085.4 509.383 1084.45 508.839 1083.64 508.12L1064.17 509.941C1063.38 510.028 1062.58 509.957 1061.81 509.73C1061.05 509.504 1060.34 509.128 1059.73 508.624C1059.11 508.12 1058.6 507.499 1058.23 506.796C1057.86 506.093 1057.63 505.323 1057.56 504.53C1057.49 503.738 1057.58 502.94 1057.82 502.182C1058.06 501.425 1058.45 500.723 1058.97 500.118C1059.49 499.513 1060.12 499.018 1060.83 498.661C1061.54 498.303 1062.31 498.092 1063.11 498.038L1082.59 496.299C1083.26 495.449 1084.1 494.744 1085.05 494.228C1086 493.713 1087.05 493.398 1088.12 493.303L1102.84 491.978C1104.95 491.79 1107.04 492.444 1108.66 493.797C1110.29 495.15 1111.31 497.092 1111.5 499.197V500.19L1111.58 500.107Z" fill="white"/>
<path d="M1064.17 509.941C1063.38 510.023 1062.58 509.948 1061.83 509.72C1061.07 509.492 1060.36 509.115 1059.75 508.612C1059.14 508.109 1058.63 507.49 1058.26 506.79C1057.89 506.09 1057.67 505.323 1057.6 504.535C1057.52 503.746 1057.61 502.951 1057.85 502.196C1058.09 501.441 1058.47 500.741 1058.98 500.137C1059.5 499.532 1060.12 499.036 1060.83 498.675C1061.53 498.315 1062.3 498.098 1063.09 498.038" fill="white"/>
<path d="M1110.22 423.985C1109.93 422.913 1109.33 421.952 1108.49 421.224C1107.65 420.497 1106.61 420.035 1105.51 419.897C1104.41 419.759 1103.29 419.951 1102.29 420.449C1101.3 420.948 1100.48 421.73 1099.93 422.696C1099.38 423.663 1099.13 424.77 1099.21 425.878C1099.3 426.986 1099.7 428.045 1100.39 428.921C1101.07 429.796 1102 430.449 1103.06 430.796C1104.11 431.144 1105.25 431.17 1106.32 430.872C1107.75 430.473 1108.96 429.525 1109.69 428.235C1110.43 426.944 1110.62 425.416 1110.22 423.985Z" fill="white"/>
<path d="M1098.3 427.775C1098.86 429.813 1098.59 431.988 1097.55 433.826C1096.51 435.663 1094.78 437.012 1092.74 437.576L1078.49 441.483C1077.45 441.768 1076.36 441.837 1075.28 441.686C1074.21 441.536 1073.19 441.168 1072.26 440.606L1053.39 445.788C1052.63 445.995 1051.83 446.051 1051.05 445.952C1050.27 445.852 1049.51 445.6 1048.83 445.209C1048.14 444.817 1047.54 444.295 1047.06 443.672C1046.58 443.048 1046.22 442.335 1046.01 441.574C1045.81 440.814 1045.75 440.019 1045.85 439.237C1045.95 438.454 1046.2 437.699 1046.59 437.014C1046.98 436.329 1047.51 435.728 1048.13 435.245C1048.75 434.762 1049.47 434.407 1050.23 434.199L1069.1 429.017C1069.62 428.057 1070.32 427.212 1071.18 426.535C1072.03 425.857 1073.02 425.361 1074.07 425.077L1088.32 421.17C1089.33 420.894 1090.38 420.819 1091.42 420.95C1092.46 421.08 1093.46 421.414 1094.37 421.933C1095.28 422.451 1096.08 423.143 1096.72 423.969C1097.36 424.795 1097.83 425.74 1098.11 426.749L1098.37 427.709L1098.3 427.775Z" fill="white"/>
<path d="M1053.39 445.788C1052.63 445.997 1051.83 446.054 1051.05 445.955C1050.27 445.857 1049.51 445.605 1048.83 445.215C1048.14 444.824 1047.54 444.303 1047.06 443.68C1046.57 443.056 1046.21 442.344 1046.01 441.583C1045.8 440.822 1045.74 440.028 1045.84 439.245C1045.94 438.462 1046.19 437.706 1046.58 437.02C1046.97 436.335 1047.49 435.733 1048.11 435.249C1048.74 434.765 1049.45 434.408 1050.21 434.199" fill="white"/>
<path d="M1087.49 351.819C1087.02 350.821 1086.26 349.986 1085.3 349.421C1084.35 348.856 1083.26 348.585 1082.15 348.643C1081.05 348.701 1079.98 349.085 1079.1 349.746C1078.21 350.408 1077.54 351.317 1077.17 352.36C1076.8 353.402 1076.75 354.531 1077.02 355.604C1077.29 356.676 1077.87 357.644 1078.7 358.385C1079.52 359.126 1080.54 359.607 1081.63 359.768C1082.73 359.928 1083.85 359.76 1084.84 359.286C1086.18 358.645 1087.22 357.499 1087.71 356.1C1088.21 354.7 1088.13 353.161 1087.49 351.819Z" fill="white"/>
<path d="M1076.43 357.63C1077.34 359.543 1077.44 361.735 1076.73 363.727C1076.02 365.719 1074.55 367.348 1072.64 368.258L1059.3 374.599C1058.32 375.063 1057.26 375.321 1056.18 375.358C1055.09 375.395 1054.02 375.21 1053.01 374.814L1035.33 383.225C1034.62 383.561 1033.85 383.753 1033.06 383.792C1032.28 383.831 1031.5 383.715 1030.76 383.45C1030.02 383.186 1029.34 382.778 1028.75 382.251C1028.17 381.724 1027.7 381.087 1027.36 380.377C1027.03 379.667 1026.84 378.898 1026.8 378.114C1026.76 377.329 1026.87 376.545 1027.14 375.806C1027.4 375.066 1027.81 374.386 1028.34 373.804C1028.87 373.222 1029.5 372.75 1030.21 372.414L1047.88 364.02C1048.21 362.991 1048.75 362.04 1049.47 361.226C1050.18 360.412 1051.05 359.752 1052.03 359.285L1065.38 352.961C1067.29 352.053 1069.48 351.941 1071.47 352.649C1073.46 353.357 1075.09 354.827 1076 356.736L1076.42 357.63H1076.43Z" fill="white"/>
<path d="M1035.33 383.209C1033.9 383.866 1032.27 383.934 1030.79 383.398C1029.31 382.863 1028.11 381.766 1027.43 380.346C1026.76 378.926 1026.67 377.297 1027.18 375.813C1027.7 374.328 1028.78 373.107 1030.2 372.414" fill="white"/>
<path d="M1060.18 294.272C1059.7 293.268 1058.94 292.427 1057.99 291.856C1057.04 291.285 1055.94 291.009 1054.83 291.064C1053.72 291.118 1052.65 291.501 1051.76 292.163C1050.87 292.825 1050.19 293.736 1049.82 294.782C1049.44 295.828 1049.39 296.961 1049.66 298.038C1049.93 299.115 1050.52 300.088 1051.34 300.833C1052.16 301.577 1053.19 302.061 1054.29 302.222C1055.39 302.383 1056.51 302.215 1057.51 301.738C1058.18 301.426 1058.78 300.984 1059.27 300.439C1059.77 299.893 1060.15 299.255 1060.4 298.561C1060.65 297.866 1060.76 297.13 1060.72 296.394C1060.68 295.658 1060.5 294.936 1060.18 294.272Z" fill="white"/>
<path d="M1049.1 300.083C1050.01 301.993 1050.12 304.185 1049.41 306.178C1048.71 308.171 1047.24 309.802 1045.33 310.711L1031.97 317.036C1030.99 317.501 1029.93 317.762 1028.85 317.802C1027.77 317.842 1026.7 317.66 1025.69 317.267L1008.01 325.661C1006.58 326.319 1004.95 326.387 1003.47 325.851C1002 325.315 1000.79 324.218 1000.11 322.798C999.439 321.379 999.35 319.75 999.868 318.265C1000.39 316.78 1001.47 315.559 1002.88 314.867L1020.56 306.473C1020.89 305.442 1021.43 304.491 1022.15 303.676C1022.86 302.862 1023.74 302.203 1024.72 301.738L1038.06 295.397C1039 294.949 1040.03 294.691 1041.07 294.639C1042.12 294.587 1043.17 294.741 1044.15 295.093C1045.14 295.445 1046.04 295.988 1046.82 296.691C1047.59 297.394 1048.22 298.242 1048.67 299.189L1049.1 300.083Z" fill="white"/>
<path d="M1008.01 325.661C1007.3 326.01 1006.53 326.214 1005.74 326.261C1004.95 326.309 1004.16 326.2 1003.41 325.939C1002.66 325.679 1001.98 325.273 1001.39 324.745C1000.8 324.216 1000.32 323.576 999.98 322.862C999.641 322.148 999.446 321.373 999.408 320.583C999.37 319.792 999.489 319.003 999.759 318.259C1000.03 317.515 1000.44 316.832 1000.98 316.25C1001.51 315.668 1002.16 315.198 1002.88 314.867" fill="white"/>
<path d="M1019.17 230.979C1018.53 230.072 1017.63 229.375 1016.6 228.976C1015.56 228.578 1014.43 228.496 1013.35 228.74C1012.26 228.985 1011.28 229.546 1010.51 230.351C1009.75 231.157 1009.24 232.171 1009.05 233.265C1008.86 234.36 1009.01 235.486 1009.46 236.5C1009.91 237.514 1010.65 238.371 1011.59 238.963C1012.53 239.555 1013.63 239.855 1014.74 239.825C1015.85 239.795 1016.92 239.436 1017.83 238.794C1018.43 238.37 1018.94 237.831 1019.34 237.208C1019.73 236.585 1020 235.891 1020.12 235.165C1020.25 234.439 1020.23 233.696 1020.06 232.977C1019.9 232.259 1019.6 231.58 1019.17 230.979Z" fill="#AA46EB"/>
<path d="M1009.25 238.595C1009.86 239.45 1010.29 240.415 1010.52 241.436C1010.75 242.456 1010.78 243.513 1010.6 244.545C1010.43 245.576 1010.05 246.563 1009.49 247.449C1008.93 248.334 1008.2 249.1 1007.35 249.704L995.28 258.297C994.398 258.925 993.396 259.366 992.337 259.591C991.277 259.816 990.183 259.82 989.121 259.604L973.145 270.895C972.507 271.377 971.778 271.726 971.002 271.921C970.226 272.115 969.419 272.152 968.628 272.029C967.838 271.907 967.08 271.626 966.4 271.205C965.72 270.784 965.131 270.23 964.669 269.577C964.206 268.924 963.88 268.185 963.709 267.404C963.537 266.622 963.525 265.814 963.671 265.028C963.818 264.241 964.121 263.492 964.563 262.825C965.004 262.158 965.575 261.587 966.242 261.144L982.234 249.837C982.389 248.763 982.763 247.734 983.333 246.811C983.902 245.888 984.656 245.092 985.546 244.473L997.614 235.947C998.469 235.341 999.434 234.91 1000.45 234.679C1001.48 234.447 1002.53 234.418 1003.56 234.595C1004.6 234.772 1005.58 235.151 1006.47 235.709C1007.35 236.268 1008.12 236.995 1008.72 237.85L1009.29 238.662L1009.25 238.595Z" fill="#AA46EB"/>
<path d="M973.145 270.829C972.507 271.311 971.778 271.66 971.002 271.854C970.226 272.049 969.419 272.086 968.628 271.963C967.838 271.84 967.08 271.56 966.4 271.139C965.72 270.718 965.131 270.164 964.669 269.511C964.206 268.858 963.88 268.119 963.709 267.338C963.537 266.556 963.525 265.748 963.671 264.962C963.818 264.175 964.121 263.426 964.563 262.759C965.004 262.092 965.575 261.52 966.242 261.078" fill="#AA46EB"/>
<path d="M970.86 173.334C970.076 172.548 969.076 172.012 967.987 171.795C966.898 171.577 965.769 171.688 964.743 172.113C963.717 172.537 962.84 173.256 962.222 174.18C961.605 175.103 961.276 176.188 961.276 177.299C961.276 178.409 961.605 179.495 962.222 180.418C962.84 181.341 963.717 182.06 964.743 182.485C965.769 182.909 966.898 183.02 967.987 182.802C969.076 182.585 970.076 182.05 970.86 181.264C971.911 180.211 972.501 178.785 972.501 177.299C972.501 175.812 971.911 174.386 970.86 173.334Z" fill="white"/>
<path d="M962.384 182.522C963.877 184.018 964.715 186.045 964.715 188.159C964.715 190.272 963.877 192.3 962.384 193.796L951.937 204.242C951.17 205.008 950.254 205.609 949.246 206.007C948.238 206.406 947.16 206.594 946.076 206.56L932.252 220.401C931.129 221.502 929.616 222.116 928.042 222.109C926.468 222.102 924.961 221.474 923.847 220.363C922.733 219.251 922.103 217.745 922.092 216.171C922.082 214.598 922.693 213.083 923.793 211.957L937.633 198.117C937.601 197.036 937.791 195.961 938.189 194.956C938.588 193.951 939.187 193.038 939.951 192.273L950.397 181.81C951.896 180.321 953.922 179.485 956.034 179.485C958.147 179.485 960.173 180.321 961.672 181.81L962.384 182.522Z" fill="white"/>
<path d="M932.236 220.4C931.1 221.437 929.608 221.996 928.071 221.961C926.533 221.926 925.068 221.3 923.981 220.212C922.894 219.125 922.267 217.66 922.232 216.122C922.197 214.585 922.756 213.093 923.793 211.957" fill="white"/>
<path d="M915.78 121.978C914.874 121.336 913.797 120.977 912.687 120.947C911.577 120.916 910.483 121.216 909.543 121.808C908.604 122.4 907.861 123.257 907.409 124.272C906.956 125.286 906.815 126.412 907.003 127.506C907.191 128.601 907.699 129.615 908.464 130.42C909.228 131.226 910.215 131.786 911.298 132.031C912.381 132.276 913.513 132.194 914.549 131.795C915.586 131.397 916.481 130.699 917.121 129.792C917.547 129.191 917.851 128.512 918.014 127.794C918.178 127.076 918.197 126.332 918.073 125.606C917.948 124.88 917.682 124.186 917.288 123.563C916.895 122.941 916.382 122.402 915.78 121.978Z" fill="white"/>
<path d="M908.975 132.474C909.831 133.078 910.558 133.845 911.117 134.73C911.675 135.615 912.054 136.602 912.231 137.634C912.407 138.666 912.379 139.722 912.147 140.743C911.915 141.764 911.485 142.729 910.879 143.583L902.353 155.652C901.734 156.542 900.938 157.295 900.015 157.865C899.092 158.434 898.062 158.808 896.989 158.963L885.698 174.939C885.245 175.581 884.67 176.126 884.006 176.545C883.341 176.965 882.601 177.249 881.827 177.382C881.053 177.515 880.26 177.494 879.494 177.32C878.728 177.147 878.004 176.825 877.363 176.371C876.721 175.918 876.175 175.343 875.756 174.679C875.337 174.014 875.053 173.274 874.92 172.5C874.787 171.726 874.808 170.933 874.981 170.167C875.155 169.401 875.477 168.677 875.93 168.036L887.221 152.059C887.013 150.998 887.022 149.905 887.247 148.847C887.471 147.788 887.908 146.786 888.529 145.901L897.055 133.832C898.272 132.108 900.123 130.936 902.202 130.573C904.28 130.21 906.418 130.685 908.148 131.895L908.959 132.474H908.975Z" fill="white"/>
<path d="M885.682 174.906C885.239 175.573 884.668 176.144 884.001 176.585C883.333 177.027 882.584 177.33 881.798 177.477C881.011 177.623 880.204 177.611 879.422 177.439C878.641 177.268 877.901 176.942 877.249 176.479C876.596 176.017 876.042 175.428 875.621 174.748C875.2 174.068 874.919 173.31 874.796 172.52C874.674 171.729 874.711 170.922 874.905 170.146C875.1 169.37 875.449 168.641 875.93 168.003" fill="white"/>
<path d="M863.762 85.2083C862.856 84.5662 861.78 84.2073 860.67 84.1771C859.56 84.1469 858.466 84.4467 857.526 85.0386C856.586 85.6305 855.843 86.4879 855.391 87.5022C854.939 88.5165 854.798 89.6421 854.986 90.7366C855.174 91.8312 855.682 92.8454 856.446 93.6509C857.211 94.4564 858.197 95.017 859.28 95.2617C860.364 95.5065 861.495 95.4243 862.532 95.0257C863.568 94.6272 864.463 93.93 865.103 93.0225C865.53 92.4219 865.833 91.743 865.997 91.0247C866.16 90.3064 866.18 89.563 866.055 88.837C865.931 88.111 865.664 87.4167 865.271 86.794C864.877 86.1713 864.365 85.6325 863.762 85.2083Z" fill="white"/>
<path d="M856.958 95.6881C857.814 96.2934 858.542 97.0614 859.1 97.9482C859.659 98.835 860.038 99.8232 860.215 100.856C860.391 101.889 860.363 102.947 860.131 103.969C859.899 104.992 859.468 105.958 858.862 106.813L850.336 118.866C849.715 119.754 848.919 120.507 847.996 121.076C847.074 121.645 846.044 122.02 844.972 122.177L833.648 138.136C833.205 138.803 832.634 139.374 831.967 139.816C831.299 140.257 830.55 140.56 829.764 140.707C828.978 140.854 828.17 140.841 827.388 140.67C826.607 140.498 825.868 140.172 825.215 139.71C824.562 139.247 824.008 138.659 823.587 137.979C823.166 137.298 822.885 136.541 822.762 135.75C822.64 134.96 822.677 134.152 822.871 133.376C823.066 132.6 823.415 131.872 823.897 131.233L835.187 115.257C834.971 114.195 834.976 113.101 835.201 112.041C835.426 110.982 835.867 109.98 836.495 109.098L845.021 97.0291C845.625 96.174 846.392 95.4463 847.277 94.8877C848.163 94.3292 849.149 93.9506 850.181 93.7738C851.213 93.597 852.269 93.6253 853.29 93.8572C854.311 94.0891 855.276 94.5199 856.13 95.1252L856.941 95.6881H856.958Z" fill="white"/>
<path d="M833.648 138.136C832.732 139.432 831.34 140.31 829.776 140.579C828.213 140.847 826.607 140.484 825.312 139.568C824.017 138.653 823.138 137.26 822.87 135.697C822.601 134.134 822.964 132.528 823.88 131.233" fill="white"/>
<path d="M796.961 50.1762C795.958 49.6995 794.836 49.5311 793.738 49.6924C792.639 49.8536 791.612 50.3372 790.789 51.0819C789.965 51.8266 789.38 52.799 789.11 53.876C788.839 54.953 788.893 56.0862 789.267 57.1321C789.64 58.178 790.315 59.0897 791.207 59.7516C792.099 60.4136 793.167 60.7961 794.276 60.8508C795.385 60.9054 796.486 60.6298 797.438 60.0588C798.391 59.4877 799.152 58.6469 799.627 57.6428C800.262 56.2989 800.338 54.7581 799.838 53.3583C799.338 51.9586 798.304 50.8142 796.961 50.1762Z" fill="#41B9FF"/>
<path d="M792.061 61.6825C793.006 62.1313 793.853 62.7619 794.554 63.5381C795.255 64.3144 795.796 65.2211 796.146 66.2066C796.497 67.1921 796.65 68.2369 796.597 69.2815C796.543 70.3261 796.285 71.35 795.835 72.2946L789.495 85.6549C789.033 86.6307 788.376 87.5014 787.564 88.2133C786.753 88.9251 785.804 89.4631 784.776 89.7938L776.383 107.475C776.052 108.194 775.582 108.84 774.999 109.375C774.417 109.911 773.734 110.325 772.991 110.595C772.247 110.864 771.457 110.984 770.667 110.946C769.877 110.908 769.102 110.713 768.388 110.373C767.673 110.034 767.033 109.556 766.505 108.967C765.977 108.378 765.571 107.69 765.31 106.943C765.05 106.196 764.94 105.405 764.988 104.615C765.036 103.825 765.24 103.053 765.589 102.343L774.048 84.6616C773.653 83.6566 773.469 82.5812 773.506 81.502C773.543 80.4228 773.801 79.3626 774.264 78.387L780.604 65.0267C781.517 63.1415 783.135 61.6917 785.109 60.9914C787.083 60.2911 789.254 60.3966 791.15 61.2852L792.061 61.7156L792.061 61.6825Z" fill="#41B9FF"/>
<path d="M776.383 107.475C775.702 108.909 774.48 110.013 772.985 110.546C771.49 111.078 769.845 110.995 768.411 110.315C766.978 109.634 765.873 108.412 765.341 106.917C764.808 105.422 764.891 103.777 765.572 102.343" fill="#41B9FF"/>
<path d="M726.235 23.605C725.165 23.3099 724.03 23.3392 722.976 23.6891C721.922 24.039 720.996 24.6938 720.314 25.5706C719.632 26.4474 719.226 27.5067 719.146 28.6145C719.067 29.7223 719.318 30.8288 719.868 31.7938C720.418 32.7589 721.241 33.5391 722.235 34.0357C723.228 34.5323 724.347 34.723 725.449 34.5836C726.55 34.4442 727.586 33.9811 728.425 33.2527C729.263 32.5244 729.867 31.5636 730.159 30.4921C730.355 29.7822 730.409 29.0407 730.317 28.31C730.226 27.5794 729.991 26.8739 729.627 26.2341C729.262 25.5943 728.775 25.0327 728.193 24.5815C727.611 24.1304 726.946 23.7985 726.235 23.605Z" fill="white"/>
<path d="M723.404 35.7899C724.415 36.0658 725.361 36.5384 726.189 37.1806C727.017 37.8228 727.709 38.6221 728.228 39.5325C728.746 40.443 729.08 41.4468 729.209 42.4864C729.339 43.526 729.262 44.5809 728.984 45.5908L725.076 59.8286C724.796 60.8825 724.301 61.8674 723.623 62.7219C722.945 63.5763 722.099 64.2821 721.136 64.7952L715.954 83.6686C715.535 85.2054 714.522 86.5126 713.139 87.3028C711.756 88.0929 710.116 88.3013 708.579 87.882C707.042 87.4626 705.735 86.45 704.945 85.0668C704.154 83.6837 703.946 82.0432 704.365 80.5065L709.547 61.6331C708.986 60.7065 708.619 59.6754 708.468 58.6025C708.317 57.5296 708.386 56.4372 708.67 55.3917L712.594 41.1539C712.868 40.1439 713.338 39.1979 713.979 38.3704C714.62 37.5428 715.417 36.8499 716.327 36.3315C717.236 35.8131 718.238 35.4794 719.277 35.3495C720.315 35.2196 721.369 35.2962 722.378 35.5747L723.338 35.8396L723.404 35.7899Z" fill="white"/>
<path d="M715.954 83.619C715.535 85.1558 714.522 86.4631 713.139 87.2532C711.756 88.0434 710.116 88.2517 708.579 87.8324C707.042 87.4131 705.735 86.4005 704.945 85.0173C704.154 83.6341 703.946 81.9937 704.365 80.4569" fill="white"/>
<path d="M652.464 5.74165C651.362 5.64464 650.256 5.87646 649.285 6.4078C648.315 6.93915 647.524 7.74618 647.012 8.72693C646.5 9.70768 646.291 10.8181 646.41 11.918C646.529 13.0178 646.971 14.0577 647.681 14.9062C648.391 15.7548 649.336 16.3739 650.398 16.6853C651.459 16.9968 652.589 16.9866 653.645 16.656C654.701 16.3255 655.635 15.6894 656.329 14.8282C657.024 13.9671 657.447 12.9194 657.546 11.8175C657.612 11.0847 657.533 10.3461 657.313 9.64393C657.093 8.94177 656.737 8.28985 656.265 7.7255C655.793 7.16114 655.214 6.69543 654.562 6.35502C653.91 6.0146 653.197 5.80617 652.464 5.74165Z" fill="white"/>
<path d="M651.851 18.2409C653.956 18.4341 655.898 19.4543 657.251 21.0775C658.604 22.7008 659.258 24.7945 659.07 26.8994L657.762 41.6173C657.661 42.6952 657.342 43.7413 656.824 44.6919C656.306 45.6425 655.6 46.4778 654.749 47.1469L653.01 66.6327C652.956 67.4263 652.744 68.201 652.387 68.9116C652.03 69.6222 651.534 70.2544 650.93 70.771C650.325 71.2877 649.623 71.6785 648.866 71.9204C648.108 72.1624 647.31 72.2507 646.518 72.1802C645.725 72.1097 644.955 71.8818 644.252 71.5098C643.549 71.1378 642.927 70.6292 642.424 70.0139C641.92 69.3985 641.544 68.6888 641.317 67.9263C641.091 67.1638 641.02 66.3638 641.107 65.5732L642.845 46.0708C642.127 45.262 641.583 44.314 641.246 43.2858C640.91 42.2575 640.79 41.1711 640.892 40.0942L642.199 25.3763C642.393 23.2718 643.413 21.33 645.036 19.9767C646.659 18.6235 648.753 17.9695 650.858 18.1581L651.851 18.2409Z" fill="white"/>
<path d="M653.01 66.6165C652.956 67.41 652.744 68.1848 652.387 68.8954C652.03 69.606 651.534 70.2381 650.93 70.7548C650.325 71.2715 649.623 71.6622 648.866 71.9042C648.108 72.1462 647.31 72.2345 646.517 72.164C645.725 72.0934 644.955 71.8655 644.252 71.4935C643.549 71.1215 642.927 70.613 642.423 69.9976C641.919 69.3823 641.543 68.6726 641.317 67.91C641.091 67.1475 641.02 66.3475 641.107 65.5569" fill="white"/>
<path d="M589.006 0.0298648C587.901 -0.0704629 586.79 0.159378 585.815 0.690313C584.84 1.22125 584.045 2.02942 583.529 3.01261C583.013 3.9958 582.801 5.10982 582.919 6.21376C583.036 7.31771 583.478 8.36197 584.19 9.21446C584.901 10.067 585.849 10.6894 586.914 11.003C587.979 11.3166 589.113 11.3073 590.173 10.9763C591.232 10.6453 592.17 10.0074 592.867 9.14342C593.564 8.2794 593.989 7.22803 594.089 6.12231C594.222 4.64053 593.762 3.16643 592.809 2.024C591.856 0.881576 590.488 0.164314 589.006 0.0298648Z" fill="white"/>
<path d="M588.394 12.546C589.436 12.6376 590.45 12.934 591.377 13.4182C592.305 13.9025 593.127 14.5651 593.798 15.368C594.468 16.1709 594.974 17.0984 595.285 18.0971C595.597 19.0959 595.708 20.1463 595.612 21.188L594.304 35.9059C594.207 36.9806 593.891 38.024 593.376 38.9721C592.86 39.9202 592.157 40.7528 591.308 41.4189L589.553 60.9214C589.39 62.4838 588.618 63.9193 587.405 64.9172C586.192 65.9152 584.635 66.3954 583.07 66.254C581.506 66.1125 580.06 65.3608 579.045 64.1615C578.031 62.9621 577.529 61.4116 577.649 59.8453L579.404 40.3594C578.685 39.5509 578.138 38.6033 577.8 37.5753C577.461 36.5474 577.336 35.4608 577.434 34.3828L578.759 19.6649C578.85 18.6221 579.146 17.6076 579.631 16.6795C580.115 15.7513 580.777 14.9277 581.58 14.2557C582.382 13.5838 583.309 13.0767 584.308 12.7634C585.307 12.4502 586.358 12.3369 587.401 12.4302L588.394 12.5295V12.546Z" fill="white"/>
<path d="M589.553 60.9376C589.39 62.5 588.618 63.9355 587.405 64.9335C586.192 65.9315 584.635 66.4117 583.07 66.2702C581.506 66.1288 580.06 65.3771 579.045 64.1777C578.031 62.9784 577.529 61.4278 577.649 59.8615" fill="white"/>
<path d="M513.231 2.31455C512.125 2.41088 511.071 2.83352 510.205 3.52893C509.339 4.22434 508.698 5.16124 508.364 6.22096C508.031 7.28067 508.02 8.41553 508.331 9.48178C508.643 10.548 509.265 11.4977 510.117 12.2105C510.969 12.9233 512.014 13.3672 513.118 13.4859C514.223 13.6047 515.338 13.3929 516.322 12.8774C517.306 12.362 518.115 11.5661 518.647 10.5905C519.178 9.61486 519.408 8.50349 519.307 7.3971C519.173 5.91856 518.458 4.55356 517.319 3.60097C516.18 2.64838 514.71 2.18581 513.231 2.31455Z" fill="#C91459"/>
<path d="M514.837 14.7312C515.879 14.6356 516.93 14.7467 517.928 15.0581C518.927 15.3694 519.854 15.8749 520.657 16.5456C521.46 17.2162 522.123 18.0388 522.607 18.9661C523.091 19.8934 523.388 20.9072 523.479 21.9494L524.804 36.6673C524.902 37.7452 524.777 38.8318 524.438 39.8598C524.1 40.8878 523.553 41.8353 522.834 42.6438L524.589 62.1297C524.709 63.696 524.207 65.2466 523.193 66.4459C522.178 67.6453 520.732 68.397 519.168 68.5384C517.603 68.6799 516.046 68.1996 514.833 67.2017C513.619 66.2037 512.848 64.7682 512.685 63.2058L510.93 43.7034C510.074 43.0259 509.366 42.1796 508.85 41.217C508.335 40.2543 508.023 39.1959 507.934 38.1076L506.626 23.3897C506.437 21.2866 507.092 19.1947 508.445 17.5741C509.799 15.9535 511.741 14.9368 513.844 14.7477H514.837V14.7312Z" fill="#C91459"/>
<path d="M524.589 62.1464C524.695 63.7063 524.185 65.2456 523.17 66.4343C522.154 67.623 520.713 68.3664 519.156 68.505C517.598 68.6436 516.049 68.1665 514.839 67.1758C513.629 66.1852 512.856 64.7601 512.685 63.206" fill="#C91459"/>
<path d="M438.235 13.4729C437.163 13.766 436.202 14.3707 435.475 15.2103C434.747 16.05 434.285 17.0867 434.147 18.1893C434.009 19.2918 434.201 20.4105 434.699 21.4036C435.198 22.3967 435.98 23.2196 436.946 23.7678C437.913 24.3161 439.02 24.5652 440.128 24.4835C441.236 24.4018 442.295 23.9929 443.171 23.3088C444.047 22.6247 444.699 21.6961 445.047 20.6406C445.394 19.5852 445.42 18.4503 445.122 17.38C444.724 15.9505 443.776 14.737 442.485 14.0048C441.194 13.2726 439.666 13.0814 438.235 13.4729Z" fill="white"/>
<path d="M442.026 25.3932C443.035 25.1141 444.089 25.0367 445.127 25.1653C446.166 25.2939 447.169 25.6261 448.08 26.1427C448.99 26.6593 449.789 27.3504 450.432 28.1763C451.075 29.0021 451.549 29.9467 451.827 30.9558L455.734 45.2102C456.025 46.2513 456.099 47.3412 455.951 48.4121C455.803 49.483 455.436 50.512 454.873 51.4351L460.055 70.3084C460.474 71.8452 460.266 73.4856 459.476 74.8688C458.686 76.2519 457.378 77.2646 455.842 77.6839C454.305 78.1032 452.664 77.8949 451.281 77.1047C449.898 76.3145 448.885 75.0073 448.466 73.4705L443.334 54.6634C442.374 54.1493 441.53 53.443 440.855 52.5885C440.18 51.734 439.688 50.7496 439.41 49.6967L435.487 35.4424C435.21 34.4336 435.136 33.3803 435.266 32.3426C435.397 31.3049 435.731 30.3031 436.249 29.3945C436.768 28.4859 437.46 27.6883 438.286 27.0472C439.112 26.4061 440.057 25.934 441.066 25.6581L442.026 25.3932Z" fill="white"/>
<path d="M460.055 70.3082C460.476 71.8449 460.27 73.4862 459.482 74.871C458.693 76.2557 457.387 77.2704 455.85 77.6919C454.313 78.1135 452.672 77.9072 451.287 77.1186C449.902 76.33 448.888 75.0236 448.466 73.4868" fill="white"/>
<path d="M376.814 30.3432C375.747 30.6383 374.792 31.2429 374.07 32.0806C373.347 32.9183 372.888 33.9514 372.753 35.0495C372.617 36.1476 372.81 37.2614 373.307 38.2499C373.804 39.2385 374.583 40.0575 375.545 40.6035C376.507 41.1494 377.61 41.3978 378.713 41.3173C379.817 41.2367 380.872 40.8308 381.745 40.1509C382.618 39.4709 383.269 38.5475 383.618 37.4972C383.966 36.447 383.995 35.3171 383.701 34.2503C383.508 33.5402 383.176 32.8753 382.724 32.294C382.273 31.7127 381.711 31.2264 381.071 30.8632C380.43 30.5001 379.725 30.2671 378.994 30.1779C378.264 30.0886 377.523 30.1448 376.814 30.3432Z" fill="white"/>
<path d="M380.589 42.2465C382.628 41.6881 384.806 41.9621 386.643 43.0082C388.481 44.0543 389.828 45.787 390.39 47.8257L394.313 62.0801C394.598 63.1228 394.667 64.2126 394.516 65.283C394.365 66.3533 393.998 67.3816 393.436 68.305L398.618 87.1783C398.825 87.9392 398.881 88.7336 398.782 89.5161C398.682 90.2985 398.43 91.0538 398.038 91.7387C397.647 92.4235 397.125 93.0246 396.501 93.5077C395.878 93.9907 395.165 94.3462 394.404 94.5538C393.643 94.7614 392.849 94.8171 392.066 94.7178C391.284 94.6184 390.529 94.3658 389.844 93.9746C389.159 93.5834 388.558 93.061 388.075 92.4375C387.592 91.8139 387.236 91.1013 387.029 90.3404L381.847 71.4671C380.887 70.953 380.043 70.2467 379.368 69.3922C378.693 68.5377 378.201 67.5533 377.923 66.5004L374.016 52.2461C373.457 50.2088 373.729 48.0331 374.772 46.1958C375.814 44.3586 377.543 43.0098 379.579 42.4452L380.539 42.1803L380.589 42.2465Z" fill="white"/>
<path d="M398.618 87.1782C398.826 87.9391 398.883 88.7337 398.785 89.5166C398.686 90.2995 398.435 91.0553 398.044 91.741C397.654 92.4266 397.132 93.0286 396.509 93.5127C395.886 93.9967 395.173 94.3532 394.412 94.5619C393.651 94.7707 392.857 94.8274 392.074 94.7291C391.291 94.6307 390.535 94.3791 389.85 93.9886C389.164 93.5981 388.562 93.0764 388.078 92.4533C387.594 91.8301 387.237 91.1178 387.029 90.3568" fill="white"/>
<path d="M307.628 61.0868C306.63 61.5635 305.795 62.3255 305.23 63.2763C304.665 64.2271 304.394 65.3242 304.452 66.4289C304.51 67.5336 304.894 68.5963 305.555 69.4829C306.217 70.3694 307.126 71.04 308.169 71.4099C309.211 71.7797 310.34 71.8323 311.413 71.5609C312.485 71.2895 313.453 70.7064 314.194 69.8852C314.935 69.0639 315.416 68.0415 315.577 66.9469C315.737 65.8524 315.569 64.7349 315.095 63.7357C314.454 62.3962 313.308 61.3653 311.909 60.8688C310.509 60.3723 308.97 60.4507 307.628 61.0868Z" fill="white"/>
<path d="M313.439 72.1625C314.384 71.7133 315.407 71.4547 316.452 71.4014C317.497 71.348 318.542 71.501 319.527 71.8515C320.512 72.202 321.419 72.7432 322.195 73.4443C322.972 74.1453 323.602 74.9924 324.051 75.9371L330.359 89.2809C330.824 90.2585 331.084 91.3207 331.124 92.4025C331.164 93.4843 330.982 94.5629 330.591 95.572L338.984 113.253C339.665 114.687 339.748 116.332 339.216 117.827C338.683 119.322 337.579 120.544 336.145 121.225C334.711 121.905 333.066 121.989 331.571 121.456C330.076 120.924 328.854 119.819 328.173 118.386L319.78 100.704C318.753 100.367 317.805 99.8251 316.994 99.1108C316.183 98.3965 315.526 97.5249 315.061 96.5488L308.837 83.205C307.933 81.2942 307.823 79.1035 308.531 77.1118C309.238 75.1201 310.705 73.4895 312.611 72.5764L313.522 72.1625H313.439Z" fill="white"/>
<path d="M339.017 113.253C339.698 114.687 339.781 116.332 339.249 117.827C338.716 119.322 337.612 120.544 336.178 121.225C334.745 121.905 333.099 121.988 331.604 121.456C330.109 120.924 328.887 119.819 328.207 118.385" fill="white"/>
<path d="M243.029 99.876C242.121 100.516 241.424 101.411 241.026 102.448C240.627 103.484 240.545 104.616 240.79 105.699C241.034 106.782 241.595 107.768 242.4 108.533C243.206 109.297 244.22 109.806 245.315 109.994C246.409 110.181 247.535 110.04 248.549 109.588C249.563 109.136 250.421 108.393 251.013 107.453C251.605 106.514 251.904 105.42 251.874 104.309C251.844 103.199 251.485 102.123 250.843 101.217C249.984 100.004 248.678 99.182 247.213 98.9306C245.748 98.6792 244.243 99.0192 243.029 99.876Z" fill="#41B9FF"/>
<path d="M250.661 109.793C251.516 109.189 252.482 108.759 253.504 108.528C254.525 108.298 255.582 108.271 256.614 108.449C257.646 108.628 258.632 109.008 259.517 109.568C260.402 110.128 261.167 110.857 261.77 111.714L270.296 123.766C270.917 124.652 271.353 125.654 271.577 126.712C271.802 127.77 271.811 128.863 271.604 129.925L282.895 145.901C283.81 147.196 284.174 148.802 283.905 150.365C283.636 151.928 282.758 153.321 281.463 154.236C280.821 154.69 280.097 155.012 279.331 155.186C278.565 155.359 277.772 155.38 276.998 155.247C275.435 154.978 274.042 154.1 273.127 152.804L261.836 136.828C260.763 136.673 259.733 136.299 258.81 135.73C257.887 135.16 257.092 134.407 256.472 133.517L247.929 121.448C246.713 119.72 246.232 117.579 246.592 115.497C246.952 113.414 248.124 111.559 249.85 110.339L250.661 109.76L250.661 109.793Z" fill="#41B9FF"/>
<path d="M282.895 145.917C283.362 146.558 283.696 147.285 283.88 148.057C284.063 148.828 284.091 149.628 283.962 150.41C283.833 151.192 283.549 151.941 283.128 152.612C282.707 153.284 282.157 153.865 281.509 154.322C280.861 154.779 280.129 155.102 279.355 155.273C278.581 155.444 277.78 155.46 277 155.318C276.22 155.177 275.476 154.882 274.811 154.451C274.146 154.019 273.574 153.459 273.127 152.804" fill="#41B9FF"/>
<path d="M183.759 146.265C182.973 147.05 182.438 148.05 182.221 149.139C182.003 150.228 182.114 151.357 182.538 152.383C182.963 153.409 183.682 154.286 184.605 154.903C185.528 155.52 186.614 155.85 187.724 155.85C188.835 155.85 189.92 155.52 190.843 154.903C191.767 154.286 192.486 153.409 192.91 152.383C193.335 151.357 193.446 150.228 193.228 149.139C193.011 148.05 192.475 147.05 191.689 146.265C190.637 145.215 189.211 144.625 187.724 144.625C186.238 144.625 184.812 145.215 183.759 146.265Z" fill="white"/>
<path d="M192.948 154.742C194.444 153.248 196.471 152.41 198.585 152.41C200.699 152.41 202.726 153.248 204.222 154.742L214.685 165.205C215.449 165.97 216.048 166.883 216.447 167.888C216.845 168.893 217.034 169.968 217.003 171.049L230.843 184.873C231.965 185.995 232.595 187.516 232.595 189.103C232.595 190.689 231.965 192.211 230.843 193.333C229.722 194.454 228.2 195.085 226.613 195.085C225.027 195.085 223.505 194.454 222.383 193.333L208.543 179.492C207.462 179.526 206.386 179.337 205.381 178.938C204.376 178.54 203.463 177.939 202.699 177.174L192.252 166.728C190.759 165.232 189.921 163.204 189.921 161.091C189.921 158.977 190.759 156.95 192.252 155.453L192.948 154.742Z" fill="white"/>
<path d="M230.844 184.889C231.943 186.016 232.554 187.53 232.544 189.103C232.533 190.677 231.903 192.183 230.789 193.295C229.675 194.407 228.168 195.034 226.594 195.041C225.021 195.048 223.508 194.434 222.384 193.333" fill="white"/>
<path d="M138.712 191.313C137.926 192.098 137.39 193.098 137.173 194.186C136.956 195.275 137.066 196.404 137.491 197.43C137.915 198.457 138.635 199.334 139.558 199.951C140.481 200.568 141.566 200.897 142.677 200.897C143.787 200.897 144.873 200.568 145.796 199.951C146.719 199.334 147.438 198.457 147.863 197.43C148.287 196.404 148.398 195.275 148.181 194.186C147.963 193.098 147.428 192.098 146.642 191.313C145.59 190.263 144.164 189.673 142.677 189.673C141.19 189.673 139.764 190.263 138.712 191.313Z" fill="white"/>
<path d="M147.9 199.789C149.396 198.296 151.424 197.457 153.537 197.457C155.651 197.457 157.678 198.296 159.174 199.789L169.638 210.252C170.401 211.018 171 211.931 171.399 212.935C171.797 213.94 171.987 215.016 171.955 216.096L185.796 229.92C186.918 231.042 187.548 232.564 187.548 234.15C187.548 235.737 186.918 237.258 185.796 238.38C184.674 239.502 183.152 240.132 181.566 240.132C179.979 240.132 178.458 239.502 177.336 238.38L163.495 224.54C162.415 224.573 161.338 224.385 160.333 223.986C159.328 223.587 158.415 222.987 157.651 222.222L147.205 211.775C145.712 210.279 144.873 208.252 144.873 206.138C144.873 204.025 145.712 201.997 147.205 200.501L147.9 199.789Z" fill="white"/>
<path d="M185.796 229.937C186.36 230.49 186.809 231.15 187.117 231.878C187.425 232.606 187.585 233.388 187.589 234.178C187.592 234.969 187.439 235.752 187.138 236.483C186.837 237.213 186.393 237.877 185.834 238.435C185.275 238.994 184.61 239.436 183.879 239.735C183.147 240.035 182.364 240.187 181.573 240.182C180.783 240.177 180.002 240.015 179.274 239.706C178.547 239.396 177.888 238.946 177.336 238.38" fill="white"/>
<path d="M93.7138 251.674C93.0717 252.58 92.7128 253.656 92.6826 254.766C92.6524 255.876 92.9522 256.971 93.5441 257.91C94.136 258.85 94.9933 259.593 96.0076 260.045C97.022 260.497 98.1476 260.638 99.2421 260.45C100.337 260.263 101.351 259.754 102.156 258.99C102.962 258.225 103.522 257.239 103.767 256.156C104.012 255.073 103.93 253.941 103.531 252.905C103.133 251.868 102.435 250.973 101.528 250.333C100.927 249.907 100.248 249.603 99.5302 249.44C98.8119 249.276 98.0685 249.256 97.3425 249.381C96.6165 249.505 95.9222 249.772 95.2995 250.166C94.6768 250.559 94.138 251.072 93.7138 251.674Z" fill="white"/>
<path d="M104.193 258.545C104.799 257.689 105.567 256.961 106.454 256.402C107.34 255.844 108.329 255.465 109.362 255.288C110.395 255.111 111.453 255.14 112.475 255.372C113.497 255.604 114.463 256.035 115.319 256.641L127.371 265.167C128.26 265.788 129.012 266.584 129.581 267.507C130.151 268.429 130.526 269.458 130.682 270.531L146.592 281.822C147.888 282.737 148.766 284.13 149.035 285.693C149.303 287.256 148.94 288.862 148.024 290.158C147.109 291.453 145.716 292.331 144.153 292.6C142.59 292.869 140.984 292.505 139.689 291.59L123.712 280.299C122.651 280.515 121.557 280.51 120.497 280.285C119.438 280.06 118.436 279.62 117.554 278.991L105.485 270.465C104.63 269.861 103.902 269.094 103.343 268.209C102.785 267.324 102.406 266.337 102.23 265.305C102.053 264.273 102.081 263.217 102.313 262.196C102.545 261.175 102.976 260.21 103.581 259.356L104.144 258.545H104.193Z" fill="white"/>
<path d="M146.592 281.838C147.833 282.774 148.66 284.156 148.899 285.691C149.137 287.227 148.769 288.795 147.871 290.063C146.973 291.331 145.617 292.2 144.089 292.485C142.562 292.77 140.983 292.449 139.688 291.589" fill="white"/>
<path d="M56.4809 317.251C56.0042 318.254 55.8358 319.376 55.997 320.475C56.1582 321.574 56.6418 322.6 57.3865 323.424C58.1313 324.247 59.1037 324.832 60.1807 325.103C61.2577 325.374 62.3909 325.319 63.4368 324.946C64.4827 324.572 65.3943 323.897 66.0563 323.005C66.7182 322.114 67.1007 321.046 67.1554 319.936C67.2101 318.827 66.9345 317.727 66.3634 316.774C65.7923 315.822 64.9515 315.06 63.9474 314.586C62.6036 313.951 61.0628 313.875 59.663 314.374C58.2632 314.874 57.1188 315.909 56.4809 317.251Z" fill="#00AA6D"/>
<path d="M67.9871 322.151C68.4359 321.207 69.0664 320.36 69.8427 319.659C70.619 318.958 71.5257 318.416 72.5112 318.066C73.4967 317.715 74.5415 317.562 75.5861 317.616C76.6307 317.669 77.6546 317.928 78.5992 318.377L91.9595 324.718C92.9414 325.183 93.8161 325.847 94.5285 326.668C95.2409 327.489 95.7754 328.448 96.0984 329.486L113.78 337.763C115.191 338.456 116.273 339.677 116.79 341.162C117.308 342.646 117.219 344.275 116.544 345.695C115.869 347.115 114.662 348.212 113.184 348.747C111.705 349.283 110.076 349.215 108.648 348.558L90.9662 340.23C89.9582 340.625 88.8802 340.809 87.7984 340.772C86.7166 340.735 85.6538 340.477 84.6751 340.015L71.3313 333.674C70.3865 333.225 69.5395 332.595 68.8384 331.819C68.1374 331.042 67.5962 330.135 67.2456 329.15C66.8951 328.165 66.7422 327.12 66.7955 326.075C66.8489 325.031 67.1075 324.007 67.5566 323.062L67.9871 322.151Z" fill="#00AA6D"/>
<path d="M113.78 337.763C114.49 338.1 115.126 338.574 115.653 339.156C116.18 339.739 116.587 340.421 116.85 341.161C117.114 341.901 117.229 342.686 117.189 343.471C117.15 344.255 116.956 345.025 116.619 345.735C116.282 346.444 115.808 347.081 115.225 347.608C114.642 348.135 113.961 348.541 113.221 348.805C112.481 349.069 111.696 349.184 110.911 349.144C110.126 349.105 109.357 348.911 108.647 348.574" fill="#00AA6D"/>
<path d="M27.4751 387.066C27.1844 388.133 27.2165 389.262 27.5672 390.311C27.918 391.36 28.5717 392.281 29.4458 392.959C30.3199 393.637 31.3751 394.04 32.4783 394.118C33.5815 394.197 34.6832 393.946 35.6441 393.399C36.6051 392.851 37.3823 392.031 37.8775 391.042C38.3728 390.053 38.5639 388.94 38.4267 387.843C38.2896 386.745 37.8303 385.713 37.1069 384.876C36.3834 384.04 35.4283 383.436 34.3622 383.142C33.6523 382.944 32.9103 382.889 32.1788 382.979C31.4474 383.069 30.7411 383.304 30.1007 383.668C29.4604 384.033 28.8987 384.521 28.448 385.104C27.9973 385.688 27.6667 386.354 27.4751 387.066Z" fill="white"/>
<path d="M39.6433 389.897C40.2082 387.86 41.5562 386.13 43.3927 385.085C45.2292 384.04 47.4048 383.764 49.4441 384.317L63.6985 388.241C64.7514 388.519 65.7358 389.011 66.5902 389.686C67.4447 390.361 68.151 391.205 68.6651 392.165L87.4723 397.363C88.2332 397.571 88.9458 397.926 89.5693 398.409C90.1929 398.892 90.7152 399.493 91.1065 400.178C91.4977 400.863 91.7502 401.618 91.8496 402.401C91.949 403.183 91.8933 403.978 91.6856 404.739C91.478 405.5 91.1225 406.212 90.6395 406.836C90.1565 407.459 89.5554 407.982 88.8705 408.373C88.1856 408.764 87.4304 409.017 86.6479 409.116C85.8655 409.215 85.0711 409.16 84.3101 408.952L65.4699 403.687C64.5462 404.248 63.5179 404.616 62.4477 404.766C61.3776 404.917 60.2879 404.849 59.245 404.565L44.9576 400.674C42.9213 400.109 41.1914 398.761 40.146 396.925C39.1005 395.088 38.8246 392.913 39.3784 390.873L39.6433 389.913V389.897Z" fill="white"/>
<path d="M87.4723 397.363C89.0091 397.783 90.3163 398.795 91.1065 400.178C91.8967 401.561 92.105 403.202 91.6857 404.739C91.2664 406.275 90.2537 407.583 88.8705 408.373C87.4874 409.163 85.847 409.371 84.3102 408.952" fill="white"/>
<path d="M10.6051 448.503C10.3079 449.575 10.336 450.711 10.6858 451.767C11.0356 452.823 11.6912 453.751 12.5696 454.434C13.4479 455.117 14.5093 455.523 15.6189 455.601C16.7285 455.679 17.8364 455.426 18.8018 454.873C19.7671 454.321 20.5465 453.494 21.0409 452.497C21.5354 451.501 21.7225 450.38 21.5786 449.277C21.4348 448.174 20.9664 447.138 20.2329 446.302C19.4994 445.466 18.5339 444.866 17.4591 444.58C16.03 444.194 14.5064 444.391 13.2218 445.126C11.9372 445.861 10.9963 447.076 10.6051 448.503Z" fill="white"/>
<path d="M22.7734 451.334C23.3383 449.298 24.6863 447.568 26.5228 446.522C28.3593 445.477 30.535 445.201 32.5743 445.755L46.8286 449.662C47.8826 449.943 48.8675 450.437 49.7219 451.115C50.5764 451.793 51.2822 452.64 51.7953 453.602L70.6686 458.784C72.2054 459.206 73.5118 460.22 74.3004 461.605C75.089 462.99 75.2953 464.631 74.8738 466.168C74.4522 467.705 73.4375 469.011 72.0528 469.8C70.668 470.588 69.0268 470.794 67.49 470.373L48.6166 465.191C47.6933 465.753 46.665 466.121 45.5947 466.271C44.5243 466.422 43.4345 466.353 42.3918 466.068L28.1374 462.161C26.1017 461.597 24.373 460.248 23.3302 458.411C22.2875 456.573 22.0158 454.398 22.5748 452.36L22.8231 451.4L22.7734 451.334Z" fill="white"/>
<path d="M70.6189 458.784C72.1556 459.206 73.462 460.221 74.2506 461.605C75.0392 462.99 75.2455 464.631 74.824 466.168C74.4025 467.705 73.3877 469.011 72.003 469.8C70.6183 470.589 68.977 470.795 67.4402 470.373" fill="white"/>
<path d="M1.30074 523.831C1.20041 524.936 1.43025 526.047 1.96119 527.022C2.49212 527.997 3.3003 528.793 4.28348 529.308C5.26667 529.824 6.38069 530.036 7.48464 529.919C8.58858 529.801 9.63285 529.359 10.4853 528.648C11.3378 527.936 11.9602 526.988 12.2739 525.923C12.5875 524.858 12.5782 523.724 12.2472 522.665C11.9162 521.605 11.2783 520.667 10.4143 519.97C9.55027 519.273 8.4989 518.848 7.39318 518.748C5.9114 518.615 4.4373 519.075 3.29488 520.028C2.15245 520.981 1.43519 522.349 1.30074 523.831Z" fill="white"/>
<path d="M13.8 524.444C13.9893 522.342 15.003 520.402 16.6194 519.046C18.2358 517.69 20.3233 517.03 22.4254 517.209L37.1433 518.533C38.2257 518.628 39.2773 518.942 40.2339 519.458C41.1904 519.973 42.0316 520.678 42.706 521.53L62.1588 523.268C63.7394 523.411 65.1987 524.176 66.2155 525.394C67.2323 526.613 67.7234 528.186 67.5807 529.766C67.438 531.347 66.6732 532.806 65.4546 533.823C64.236 534.84 62.6633 535.331 61.0826 535.188L41.6299 533.433C40.8233 534.151 39.8785 534.696 38.8536 535.035C37.8286 535.373 36.7451 535.499 35.6699 535.403L20.952 534.079C19.9092 533.987 18.8947 533.691 17.9665 533.207C17.0384 532.723 16.2147 532.061 15.5428 531.258C14.8708 530.455 14.3637 529.528 14.0505 528.529C13.7372 527.53 13.624 526.48 13.7172 525.437L13.8165 524.444H13.8Z" fill="white"/>
<path d="M62.1588 523.285C63.7129 523.456 65.1381 524.229 66.1287 525.439C67.1193 526.648 67.5964 528.198 67.4578 529.755C67.3192 531.313 66.5758 532.754 65.3871 533.769C64.1985 534.785 62.6591 535.294 61.0992 535.188" fill="white"/>
<path d="M0.903393 599.606C0.999725 600.713 1.42236 601.766 2.11777 602.632C2.81319 603.499 3.75008 604.139 4.8098 604.473C5.86951 604.806 7.00437 604.818 8.07062 604.506C9.13687 604.194 10.0865 603.572 10.7994 602.72C11.5122 601.868 11.9561 600.824 12.0748 599.719C12.1935 598.614 11.9817 597.499 11.4663 596.515C10.9508 595.531 10.1549 594.722 9.17931 594.191C8.20371 593.659 7.09233 593.429 5.98595 593.53C5.25301 593.595 4.53998 593.803 3.88769 594.143C3.2354 594.484 2.65665 594.949 2.18456 595.514C1.71247 596.078 1.35631 596.73 1.13647 597.432C0.916634 598.134 0.83743 598.873 0.903393 599.606Z" fill="#C91459"/>
<path d="M13.32 598C13.1544 595.904 13.8207 593.828 15.1747 592.22C16.5287 590.611 18.4615 589.601 20.5548 589.408L35.2726 588.1C36.3495 588 37.4353 588.121 38.4633 588.457C39.4912 588.793 40.4394 589.337 41.2492 590.053L60.7351 588.315C62.3014 588.195 63.8519 588.696 65.0513 589.711C66.2507 590.725 67.0024 592.171 67.1438 593.736C67.2852 595.3 66.805 596.858 65.8071 598.071C64.8091 599.284 63.3736 600.055 61.8112 600.218L42.2922 601.907C41.6222 602.756 40.7865 603.459 39.8358 603.974C38.8851 604.489 37.8395 604.806 36.7626 604.904L22.0448 606.211C21.003 606.307 19.9526 606.196 18.9538 605.885C17.9551 605.573 17.0277 605.068 16.2247 604.397C15.4218 603.726 14.7592 602.904 14.2749 601.977C13.7907 601.049 13.4943 600.035 13.4028 598.993L13.3034 598H13.32Z" fill="#C91459"/>
<path d="M60.7351 588.249C62.3014 588.129 63.852 588.63 65.0513 589.645C66.2507 590.659 67.0024 592.105 67.1438 593.67C67.2853 595.234 66.8051 596.792 65.8071 598.005C64.8091 599.218 63.3736 599.989 61.8112 600.152" fill="#C91459"/>
<path d="M9.46253 675.066C9.75471 676.137 10.3583 677.098 11.1967 677.826C12.0352 678.555 13.071 679.018 14.1729 679.157C15.2747 679.297 16.3932 679.106 17.3866 678.609C18.3801 678.113 19.2039 677.333 19.7536 676.368C20.3034 675.402 20.5545 674.296 20.4751 673.188C20.3958 672.08 19.9895 671.021 19.3077 670.144C18.6259 669.267 17.6994 668.613 16.6453 668.263C15.5912 667.913 14.4569 667.884 13.3862 668.179C11.9562 668.577 10.7415 669.525 10.0066 670.815C9.27173 672.104 9.07618 673.632 9.46253 675.066Z" fill="white"/>
<path d="M21.3824 671.275C20.8241 669.235 21.098 667.057 22.1441 665.22C23.1902 663.382 24.9229 662.035 26.9617 661.474L41.216 657.567C42.2588 657.283 43.3485 657.214 44.4187 657.365C45.4889 657.516 46.5171 657.883 47.4409 658.444L66.3142 653.262C67.0751 653.055 67.8695 652.999 68.652 653.098C69.4345 653.198 70.1897 653.45 70.8746 653.841C71.5595 654.233 72.1606 654.755 72.6436 655.378C73.1266 656.002 73.4821 656.715 73.6897 657.476C73.8973 658.236 73.953 659.031 73.8537 659.813C73.7543 660.596 73.5018 661.351 73.1105 662.036C72.7193 662.721 72.197 663.322 71.5734 663.805C70.9498 664.288 70.2372 664.643 69.4763 664.851L50.5699 669.967C50.0544 670.927 49.3478 671.772 48.4937 672.45C47.6396 673.128 46.656 673.623 45.6032 673.907L31.3654 677.814C29.3307 678.346 27.1684 678.053 25.3485 676.999C23.5287 675.944 22.1986 674.215 21.6473 672.185L21.3824 671.225V671.275Z" fill="white"/>
<path d="M66.3145 653.262C67.0755 653.055 67.8698 652.999 68.6523 653.098C69.4348 653.198 70.19 653.45 70.8749 653.841C71.5598 654.233 72.1609 654.755 72.6439 655.378C73.1269 656.002 73.4824 656.715 73.69 657.476C73.8976 658.236 73.9534 659.031 73.854 659.813C73.7546 660.596 73.5021 661.351 73.1108 662.036C72.7196 662.721 72.1973 663.322 71.5737 663.805C70.9502 664.288 70.2376 664.643 69.4766 664.851" fill="white"/>
<path d="M26.3326 736.504C26.6248 737.576 27.2283 738.536 28.0668 739.265C28.9053 739.993 29.9411 740.456 31.0429 740.596C32.1448 740.735 33.2633 740.544 34.2567 740.048C35.2501 739.551 36.0739 738.771 36.6237 737.806C37.1735 736.841 37.4246 735.734 37.3452 734.626C37.2658 733.519 36.8595 732.459 36.1778 731.582C35.496 730.706 34.5694 730.051 33.5153 729.701C32.4612 729.351 31.327 729.322 30.2562 729.617C28.8262 730.015 27.6115 730.963 26.8767 732.253C26.1418 733.543 25.9462 735.071 26.3326 736.504Z" fill="white"/>
<path d="M38.2526 732.712C37.9739 731.702 37.8971 730.648 38.0268 729.608C38.1565 728.568 38.49 727.565 39.0083 726.654C39.5266 725.744 40.2195 724.944 41.0472 724.302C41.8749 723.66 42.8212 723.187 43.8318 722.912L58.0696 719.004C59.1146 718.715 60.2078 718.644 61.2815 718.795C62.3551 718.946 63.3863 719.316 64.311 719.882L83.1844 714.683C84.7212 714.264 86.3616 714.472 87.7448 715.263C89.1279 716.053 90.1406 717.36 90.5599 718.897C90.9792 720.434 90.7709 722.074 89.9807 723.457C89.1905 724.84 87.8833 725.853 86.3465 726.272L67.4732 731.454C66.9599 732.415 66.2538 733.259 65.3992 733.934C64.5446 734.609 63.5598 735.101 62.5065 735.378L48.2522 739.302C47.2434 739.578 46.19 739.653 45.1523 739.522C44.1146 739.391 43.1129 739.057 42.2043 738.539C41.2957 738.021 40.4981 737.329 39.8569 736.502C39.2158 735.676 38.7438 734.731 38.4678 733.722L38.2029 732.762L38.2526 732.712Z" fill="white"/>
<path d="M83.1845 714.7C83.9454 714.493 84.7398 714.437 85.5223 714.536C86.3048 714.636 87.06 714.888 87.7449 715.28C88.4298 715.671 89.0309 716.193 89.5139 716.817C89.9969 717.44 90.3524 718.153 90.56 718.914C90.7676 719.675 90.8233 720.469 90.724 721.252C90.6246 722.034 90.3721 722.789 89.9808 723.474C89.5896 724.159 89.0673 724.76 88.4437 725.243C87.8201 725.726 87.1076 726.082 86.3466 726.289" fill="white"/>
<path d="M54.6429 806.583C55.1187 807.587 55.8817 808.427 56.8353 808.997C57.7889 809.567 58.8902 809.841 59.9996 809.784C61.1091 809.728 62.1768 809.343 63.0676 808.68C63.9584 808.016 64.6322 807.103 65.0036 806.056C65.375 805.009 65.4274 803.875 65.1541 802.798C64.8808 801.722 64.294 800.75 63.4682 800.007C62.6424 799.264 61.6147 798.783 60.5152 798.624C59.4156 798.466 58.2938 798.637 57.2917 799.117C55.9523 799.758 54.9214 800.903 54.4249 802.303C53.9284 803.702 54.0068 805.241 54.6429 806.583Z" fill="white"/>
<path d="M65.7182 800.772C65.2691 799.828 65.0104 798.804 64.9571 797.759C64.9037 796.714 65.0567 795.67 65.4072 794.684C65.7577 793.699 66.299 792.792 67 792.016C67.701 791.239 68.5481 790.609 69.4929 790.16L82.8532 783.819C83.8276 783.354 84.8872 783.093 85.9664 783.053C87.0457 783.013 88.1216 783.195 89.1277 783.587L106.859 775.194C108.292 774.513 109.938 774.43 111.433 774.962C112.927 775.495 114.15 776.599 114.83 778.033C115.511 779.467 115.594 781.112 115.062 782.607C114.529 784.102 113.425 785.324 111.991 786.005L94.3096 794.398C93.9726 795.425 93.4305 796.373 92.7162 797.184C92.0019 797.995 91.1303 798.652 90.1542 799.117L76.8104 805.457C75.8658 805.906 74.8419 806.165 73.7974 806.218C72.7528 806.272 71.7079 806.119 70.7224 805.768C69.737 805.418 68.8302 804.877 68.0539 804.176C67.2777 803.475 66.6471 802.627 66.1983 801.683L65.7679 800.772H65.7182Z" fill="white"/>
<path d="M106.859 775.194C108.293 774.513 109.938 774.43 111.433 774.962C112.928 775.495 114.15 776.599 114.831 778.033C115.511 779.467 115.594 781.112 115.062 782.607C114.529 784.102 113.425 785.324 111.991 786.005" fill="white"/>
<path d="M91.2309 872.507C91.8694 873.411 92.7617 874.106 93.7949 874.502C94.8281 874.899 95.9558 874.981 97.0354 874.737C98.115 874.493 99.098 873.934 99.86 873.132C100.622 872.329 101.129 871.318 101.317 870.227C101.504 869.137 101.364 868.015 100.914 867.003C100.464 865.992 99.724 865.137 98.7879 864.547C97.8519 863.956 96.7617 863.656 95.6552 863.685C94.5488 863.714 93.4758 864.07 92.5719 864.709C91.3675 865.571 90.5513 866.873 90.3003 868.333C90.0492 869.793 90.3836 871.292 91.2309 872.507Z" fill="#41B9FF"/>
<path d="M101.148 864.842C100.544 863.987 100.114 863.021 99.8832 861.999C99.6526 860.978 99.6257 859.921 99.8041 858.889C99.9825 857.857 100.363 856.871 100.923 855.986C101.483 855.101 102.212 854.336 103.068 853.733L115.137 845.207C116.02 844.579 117.022 844.139 118.081 843.914C119.14 843.689 120.235 843.684 121.296 843.899L137.272 832.608C137.914 832.155 138.638 831.832 139.404 831.659C140.17 831.486 140.963 831.465 141.737 831.598C142.511 831.731 143.251 832.015 143.915 832.434C144.579 832.853 145.155 833.399 145.608 834.04C146.061 834.682 146.384 835.406 146.557 836.172C146.731 836.938 146.751 837.731 146.618 838.505C146.485 839.279 146.201 840.019 145.782 840.683C145.363 841.347 144.817 841.923 144.176 842.376L128.2 853.667C128.045 854.74 127.671 855.77 127.101 856.693C126.532 857.615 125.779 858.411 124.889 859.031L112.836 867.54C111.108 868.757 108.967 869.237 106.885 868.877C104.802 868.517 102.947 867.346 101.727 865.62L101.148 864.809L101.148 864.842Z" fill="#41B9FF"/>
<path d="M137.272 832.608C138.568 831.693 140.173 831.329 141.737 831.598C143.3 831.866 144.692 832.745 145.608 834.04C146.523 835.335 146.887 836.941 146.618 838.505C146.35 840.068 145.471 841.46 144.176 842.376" fill="#41B9FF"/>
<path d="M131.692 929.028C132.407 929.872 133.357 930.485 134.42 930.789C135.483 931.094 136.613 931.076 137.666 930.739C138.72 930.402 139.65 929.76 140.339 928.895C141.028 928.03 141.445 926.979 141.537 925.877C141.629 924.775 141.393 923.67 140.858 922.702C140.323 921.734 139.513 920.947 138.53 920.439C137.548 919.931 136.437 919.725 135.337 919.849C134.238 919.972 133.2 920.418 132.354 921.131C131.792 921.605 131.328 922.186 130.99 922.84C130.652 923.494 130.446 924.208 130.385 924.942C130.323 925.676 130.407 926.414 130.631 927.115C130.856 927.816 131.216 928.466 131.692 929.028Z" fill="white"/>
<path d="M140.947 920.601C139.588 918.981 138.926 916.889 139.106 914.782C139.286 912.676 140.293 910.726 141.907 909.36L153.214 899.84C154.041 899.146 155 898.627 156.032 898.314C157.065 898.001 158.151 897.901 159.224 898.019L174.124 885.404C175.348 884.47 176.884 884.042 178.414 884.21C179.945 884.378 181.352 885.128 182.344 886.305C183.336 887.483 183.837 888.997 183.743 890.533C183.649 892.07 182.967 893.512 181.839 894.559L166.939 907.175C166.876 908.252 166.593 909.306 166.109 910.27C165.626 911.235 164.95 912.092 164.124 912.787L152.817 922.323C151.2 923.681 149.11 924.342 147.006 924.162C144.902 923.982 142.956 922.975 141.592 921.363L140.947 920.601Z" fill="white"/>
<path d="M174.19 885.404C175.414 884.47 176.95 884.042 178.481 884.21C180.011 884.378 181.418 885.128 182.41 886.305C183.403 887.483 183.904 888.997 183.809 890.533C183.715 892.07 183.034 893.512 181.905 894.559" fill="white"/>
<path d="M180.746 978.463C181.53 979.244 182.527 979.774 183.612 979.988C184.697 980.202 185.821 980.09 186.842 979.666C187.863 979.242 188.736 978.524 189.349 977.605C189.963 976.685 190.291 975.604 190.291 974.498C190.291 973.392 189.963 972.312 189.349 971.392C188.736 970.472 187.863 969.755 186.842 969.331C185.821 968.906 184.697 968.794 183.612 969.008C182.527 969.222 181.53 969.753 180.746 970.533C180.224 971.053 179.81 971.671 179.527 972.351C179.245 973.032 179.099 973.761 179.099 974.498C179.099 975.235 179.245 975.965 179.527 976.645C179.81 977.325 180.224 977.943 180.746 978.463Z" fill="white"/>
<path d="M189.223 969.225C187.73 967.729 186.891 965.702 186.891 963.588C186.891 961.474 187.73 959.447 189.223 957.951L199.67 947.504C200.433 946.737 201.345 946.134 202.35 945.733C203.355 945.331 204.432 945.14 205.514 945.17L219.354 931.329C220.476 930.208 221.998 929.577 223.584 929.577C225.171 929.577 226.692 930.208 227.814 931.329C228.936 932.451 229.566 933.973 229.566 935.559C229.566 937.146 228.936 938.667 227.814 939.789L213.974 953.63C214.004 954.712 213.812 955.788 213.411 956.793C213.009 957.798 212.407 958.711 211.639 959.474L201.226 969.92C199.73 971.414 197.702 972.252 195.589 972.252C193.475 972.252 191.448 971.414 189.951 969.92L189.256 969.225H189.223Z" fill="white"/>
<path d="M219.437 931.329C220.559 930.208 222.08 929.577 223.667 929.577C225.253 929.577 226.775 930.208 227.897 931.329C229.019 932.451 229.649 933.973 229.649 935.559C229.649 937.146 229.019 938.668 227.897 939.789" fill="white"/>
<path d="M239.535 1025.35C240.441 1025.99 241.517 1026.35 242.627 1026.38C243.738 1026.41 244.832 1026.11 245.771 1025.52C246.711 1024.93 247.454 1024.07 247.906 1023.05C248.358 1022.04 248.499 1020.91 248.312 1019.82C248.124 1018.73 247.615 1017.71 246.851 1016.91C246.086 1016.1 245.1 1015.54 244.017 1015.29C242.934 1015.05 241.802 1015.13 240.766 1015.53C239.729 1015.93 238.834 1016.63 238.194 1017.53C237.768 1018.13 237.464 1018.81 237.301 1019.53C237.137 1020.25 237.117 1020.99 237.242 1021.72C237.366 1022.45 237.633 1023.14 238.027 1023.76C238.42 1024.39 238.933 1024.92 239.535 1025.35Z" fill="white"/>
<path d="M246.34 1014.89C245.484 1014.28 244.757 1013.52 244.198 1012.63C243.64 1011.74 243.261 1010.76 243.084 1009.73C242.907 1008.69 242.936 1007.64 243.168 1006.62C243.4 1005.6 243.83 1004.63 244.436 1003.78L252.962 991.708C253.585 990.817 254.383 990.064 255.309 989.495C256.234 988.925 257.267 988.551 258.342 988.397L269.633 972.421C270.076 971.754 270.647 971.183 271.314 970.741C271.982 970.3 272.731 969.997 273.517 969.85C274.303 969.703 275.111 969.716 275.893 969.887C276.674 970.059 277.413 970.385 278.066 970.848C278.719 971.31 279.273 971.898 279.694 972.579C280.115 973.259 280.396 974.017 280.519 974.807C280.641 975.598 280.604 976.405 280.41 977.181C280.215 977.957 279.866 978.686 279.384 979.324L268.094 995.3C268.309 996.361 268.305 997.454 268.083 998.513C267.861 999.572 267.425 1000.57 266.802 1001.46L258.26 1013.53C257.037 1015.25 255.181 1016.42 253.099 1016.78C251.016 1017.13 248.877 1016.65 247.151 1015.43L246.34 1014.85V1014.89Z" fill="white"/>
<path d="M269.633 972.42C270.548 971.125 271.941 970.246 273.504 969.977C275.067 969.709 276.673 970.072 277.969 970.988C279.264 971.903 280.142 973.296 280.411 974.859C280.68 976.422 280.316 978.028 279.401 979.324" fill="white"/>
<path d="M303.755 1064.78C304.758 1065.26 305.88 1065.43 306.979 1065.27C308.077 1065.11 309.104 1064.62 309.928 1063.88C310.751 1063.13 311.336 1062.16 311.607 1061.08C311.878 1060.01 311.823 1058.87 311.45 1057.83C311.076 1056.78 310.401 1055.87 309.509 1055.21C308.617 1054.55 307.549 1054.16 306.44 1054.11C305.331 1054.05 304.231 1054.33 303.278 1054.9C302.326 1055.47 301.564 1056.31 301.089 1057.32C300.455 1058.66 300.379 1060.2 300.878 1061.6C301.378 1063 302.412 1064.15 303.755 1064.78Z" fill="#FFC82D"/>
<path d="M308.672 1053.28C307.726 1052.83 306.877 1052.2 306.174 1051.43C305.471 1050.65 304.928 1049.74 304.576 1048.76C304.224 1047.77 304.07 1046.73 304.122 1045.68C304.174 1044.64 304.432 1043.61 304.88 1042.67L311.221 1029.31C311.684 1028.33 312.343 1027.45 313.158 1026.74C313.973 1026.03 314.925 1025.49 315.956 1025.17L324.333 1007.48C324.67 1006.78 325.144 1006.14 325.727 1005.61C326.31 1005.08 326.991 1004.68 327.731 1004.41C328.471 1004.15 329.256 1004.04 330.041 1004.08C330.826 1004.11 331.595 1004.31 332.305 1004.65C333.015 1004.98 333.651 1005.46 334.178 1006.04C334.705 1006.62 335.112 1007.3 335.375 1008.04C335.639 1008.78 335.754 1009.57 335.715 1010.35C335.675 1011.14 335.481 1011.91 335.144 1012.62L326.75 1030.28C327.142 1031.29 327.324 1032.37 327.284 1033.45C327.244 1034.53 326.984 1035.6 326.519 1036.57L320.178 1049.93C319.729 1050.88 319.098 1051.73 318.322 1052.43C317.546 1053.13 316.639 1053.67 315.654 1054.02C314.668 1054.37 313.623 1054.52 312.579 1054.47C311.534 1054.42 310.51 1054.16 309.566 1053.71L308.672 1053.28Z" fill="#FFC82D"/>
<path d="M324.35 1007.49C324.667 1006.75 325.13 1006.08 325.71 1005.53C326.291 1004.97 326.977 1004.54 327.729 1004.25C328.48 1003.97 329.281 1003.84 330.084 1003.87C330.886 1003.91 331.674 1004.1 332.4 1004.44C333.126 1004.79 333.775 1005.28 334.309 1005.88C334.842 1006.48 335.249 1007.18 335.505 1007.94C335.761 1008.7 335.861 1009.51 335.799 1010.31C335.737 1011.11 335.514 1011.89 335.144 1012.6" fill="#FFC82D"/>
<path d="M366.914 1094.35C367.951 1094.73 369.079 1094.8 370.155 1094.54C371.23 1094.28 372.205 1093.71 372.956 1092.9C373.706 1092.09 374.2 1091.07 374.374 1089.98C374.547 1088.89 374.393 1087.77 373.931 1086.76C373.469 1085.76 372.72 1084.91 371.778 1084.33C370.836 1083.75 369.743 1083.47 368.638 1083.51C367.533 1083.55 366.464 1083.92 365.568 1084.57C364.672 1085.21 363.988 1086.11 363.602 1087.15C363.346 1087.84 363.228 1088.57 363.255 1089.31C363.283 1090.05 363.455 1090.77 363.763 1091.44C364.071 1092.11 364.507 1092.71 365.048 1093.21C365.589 1093.71 366.223 1094.1 366.914 1094.35Z" fill="white"/>
<path d="M370.804 1082.48C369.82 1082.12 368.918 1081.57 368.148 1080.86C367.379 1080.14 366.758 1079.29 366.321 1078.34C365.884 1077.38 365.64 1076.35 365.602 1075.31C365.565 1074.26 365.734 1073.21 366.102 1072.23L371.251 1058.39C371.626 1057.38 372.204 1056.45 372.95 1055.67C373.696 1054.89 374.594 1054.26 375.589 1053.84L382.409 1035.5C382.96 1034.01 384.079 1032.8 385.52 1032.14C386.961 1031.48 388.605 1031.42 390.091 1031.97C391.578 1032.52 392.784 1033.64 393.445 1035.08C394.107 1036.52 394.169 1038.17 393.618 1039.65L386.797 1057.93C387.273 1058.9 387.548 1059.96 387.605 1061.04C387.662 1062.12 387.5 1063.2 387.128 1064.22L381.979 1078.08C381.242 1080.05 379.751 1081.66 377.833 1082.54C375.914 1083.42 373.726 1083.5 371.748 1082.76L370.821 1082.42L370.804 1082.48Z" fill="white"/>
<path d="M382.41 1035.5C382.682 1034.76 383.098 1034.09 383.631 1033.51C384.165 1032.93 384.807 1032.47 385.52 1032.14C386.233 1031.82 387.004 1031.63 387.789 1031.6C388.573 1031.57 389.355 1031.7 390.091 1031.97C390.827 1032.24 391.502 1032.66 392.078 1033.19C392.653 1033.73 393.118 1034.37 393.445 1035.08C393.773 1035.79 393.957 1036.57 393.986 1037.35C394.016 1038.13 393.891 1038.92 393.618 1039.65" fill="white"/>
<path d="M434.113 1113.09C435.183 1113.39 436.317 1113.36 437.372 1113.01C438.426 1112.66 439.352 1112 440.034 1111.13C440.716 1110.25 441.122 1109.19 441.201 1108.08C441.281 1106.98 441.03 1105.87 440.48 1104.9C439.93 1103.94 439.106 1103.16 438.113 1102.66C437.12 1102.17 436.001 1101.97 434.899 1102.11C433.797 1102.25 432.762 1102.72 431.923 1103.44C431.085 1104.17 430.481 1105.13 430.189 1106.21C429.993 1106.92 429.939 1107.66 430.031 1108.39C430.122 1109.12 430.357 1109.82 430.721 1110.46C431.086 1111.1 431.573 1111.66 432.155 1112.12C432.737 1112.57 433.402 1112.9 434.113 1113.09Z" fill="white"/>
<path d="M436.944 1100.97C435.933 1100.7 434.987 1100.23 434.159 1099.58C433.331 1098.94 432.638 1098.14 432.12 1097.23C431.602 1096.32 431.268 1095.32 431.139 1094.28C431.009 1093.24 431.086 1092.18 431.365 1091.17L435.272 1076.92C435.552 1075.87 436.047 1074.88 436.725 1074.03C437.403 1073.17 438.249 1072.47 439.212 1071.95L444.377 1053.1C444.796 1051.56 445.809 1050.25 447.192 1049.46C448.575 1048.67 450.216 1048.46 451.753 1048.88C453.289 1049.3 454.597 1050.31 455.387 1051.7C456.177 1053.08 456.385 1054.72 455.966 1056.26L450.784 1075.13C451.346 1076.05 451.714 1077.08 451.865 1078.15C452.015 1079.22 451.946 1080.31 451.662 1081.36L447.738 1095.61C447.462 1096.62 446.99 1097.56 446.349 1098.39C445.707 1099.21 444.909 1099.91 444 1100.42C443.091 1100.94 442.089 1101.27 441.052 1101.4C440.014 1101.53 438.961 1101.45 437.954 1101.17L436.993 1100.92L436.944 1100.97Z" fill="white"/>
<path d="M444.393 1053.08C444.815 1051.54 445.83 1050.24 447.214 1049.45C448.599 1048.66 450.24 1048.45 451.777 1048.87C453.314 1049.3 454.62 1050.31 455.409 1051.7C456.198 1053.08 456.404 1054.72 455.982 1056.26" fill="white"/>
<path d="M508.96 1125C510.062 1125.09 511.168 1124.86 512.139 1124.33C513.109 1123.8 513.9 1122.99 514.412 1122.01C514.924 1121.03 515.133 1119.92 515.014 1118.82C514.895 1117.72 514.453 1116.68 513.743 1115.83C513.033 1114.98 512.088 1114.36 511.026 1114.05C509.965 1113.74 508.835 1113.75 507.779 1114.08C506.723 1114.41 505.789 1115.05 505.095 1115.91C504.4 1116.77 503.977 1117.82 503.878 1118.92C503.812 1119.65 503.891 1120.39 504.111 1121.09C504.331 1121.8 504.687 1122.45 505.159 1123.01C505.631 1123.58 506.21 1124.04 506.862 1124.38C507.514 1124.72 508.227 1124.93 508.96 1125Z" fill="white"/>
<path d="M509.573 1112.56C507.468 1112.37 505.526 1111.35 504.173 1109.73C502.82 1108.1 502.166 1106.01 502.354 1103.9L503.662 1089.19C503.76 1088.11 504.076 1087.06 504.592 1086.11C505.107 1085.16 505.81 1084.33 506.659 1083.66L508.414 1064.17C508.468 1063.38 508.68 1062.6 509.037 1061.89C509.394 1061.18 509.889 1060.55 510.494 1060.03C511.099 1059.52 511.801 1059.13 512.558 1058.88C513.316 1058.64 514.114 1058.55 514.906 1058.62C515.699 1058.69 516.469 1058.92 517.172 1059.29C517.875 1059.67 518.496 1060.17 519 1060.79C519.504 1061.41 519.88 1062.11 520.106 1062.88C520.333 1063.64 520.404 1064.44 520.317 1065.23L518.579 1084.73C519.297 1085.54 519.841 1086.49 520.177 1087.52C520.514 1088.55 520.634 1089.63 520.532 1090.71L519.224 1105.43C519.031 1107.53 518.011 1109.47 516.388 1110.83C514.765 1112.18 512.671 1112.83 510.566 1112.65H509.573V1112.56Z" fill="white"/>
<path d="M508.414 1064.1C508.474 1063.32 508.691 1062.55 509.051 1061.84C509.412 1061.14 509.909 1060.51 510.513 1060C511.118 1059.49 511.818 1059.1 512.573 1058.86C513.328 1058.62 514.122 1058.54 514.911 1058.61C515.699 1058.68 516.466 1058.91 517.166 1059.28C517.866 1059.65 518.485 1060.15 518.988 1060.76C519.491 1061.38 519.868 1062.08 520.096 1062.84C520.324 1063.6 520.399 1064.39 520.317 1065.18" fill="white"/>
<path d="M584.753 1128.03C585.854 1127.92 586.899 1127.5 587.758 1126.8C588.617 1126.11 589.25 1125.17 589.578 1124.11C589.907 1123.06 589.914 1121.93 589.601 1120.87C589.288 1119.81 588.668 1118.87 587.819 1118.16C586.97 1117.45 585.931 1117.01 584.832 1116.89C583.732 1116.77 582.623 1116.98 581.643 1117.49C580.663 1118.01 579.857 1118.8 579.326 1119.77C578.795 1120.74 578.564 1121.84 578.66 1122.94C578.795 1124.43 579.512 1125.79 580.655 1126.75C581.797 1127.7 583.271 1128.16 584.753 1128.03Z" fill="#00AA6D"/>
<path d="M583.13 1115.63C582.089 1115.72 581.038 1115.61 580.04 1115.3C579.041 1114.99 578.113 1114.48 577.31 1113.81C576.508 1113.14 575.845 1112.32 575.361 1111.39C574.876 1110.46 574.58 1109.45 574.488 1108.41L573.164 1093.69C573.065 1092.61 573.189 1091.52 573.528 1090.5C573.867 1089.47 574.414 1088.52 575.134 1087.71L573.379 1068.21C573.273 1066.65 573.783 1065.11 574.798 1063.92C575.814 1062.73 577.255 1061.99 578.812 1061.85C580.369 1061.71 581.919 1062.19 583.129 1063.18C584.338 1064.17 585.112 1065.6 585.283 1067.15L586.971 1086.64C587.821 1087.31 588.525 1088.15 589.041 1089.1C589.556 1090.05 589.871 1091.1 589.968 1092.18L591.292 1106.9C591.476 1109.01 590.818 1111.1 589.462 1112.72C588.105 1114.34 586.162 1115.35 584.058 1115.54L583.064 1115.63L583.13 1115.63Z" fill="#00AA6D"/>
<path d="M573.379 1068.21C573.292 1067.42 573.364 1066.62 573.59 1065.86C573.816 1065.1 574.192 1064.39 574.696 1063.77C575.2 1063.15 575.822 1062.65 576.525 1062.27C577.228 1061.9 577.998 1061.67 578.79 1061.6C579.582 1061.53 580.38 1061.62 581.138 1061.86C581.896 1062.11 582.597 1062.5 583.202 1063.01C583.807 1063.53 584.302 1064.16 584.66 1064.87C585.017 1065.58 585.229 1066.36 585.283 1067.15" fill="#00AA6D"/>
<path d="M650.301 1122.12C651.4 1121.96 652.424 1121.47 653.246 1120.72C654.067 1119.97 654.647 1119 654.914 1117.92C655.18 1116.84 655.12 1115.71 654.742 1114.66C654.364 1113.62 653.684 1112.71 652.789 1112.05C651.894 1111.39 650.824 1111.02 649.714 1110.97C648.604 1110.92 647.504 1111.2 646.555 1111.77C645.605 1112.35 644.847 1113.2 644.378 1114.2C643.909 1115.21 643.749 1116.33 643.919 1117.43C644.029 1118.16 644.282 1118.86 644.662 1119.49C645.043 1120.12 645.544 1120.67 646.137 1121.1C646.73 1121.54 647.403 1121.85 648.117 1122.03C648.832 1122.2 649.574 1122.24 650.301 1122.12Z" fill="white"/>
<path d="M647.872 1109.85C645.781 1110.17 643.65 1109.64 641.945 1108.39C640.241 1107.14 639.102 1105.26 638.777 1103.17L636.549 1088.57C636.381 1087.5 636.435 1086.41 636.706 1085.36C636.977 1084.31 637.459 1083.33 638.124 1082.48L635.168 1063.14C635.036 1062.36 635.061 1061.56 635.242 1060.79C635.422 1060.02 635.753 1059.29 636.217 1058.65C636.681 1058.01 637.267 1057.46 637.943 1057.05C638.618 1056.64 639.369 1056.36 640.151 1056.24C640.934 1056.12 641.732 1056.16 642.501 1056.35C643.269 1056.54 643.992 1056.88 644.628 1057.35C645.263 1057.83 645.798 1058.42 646.202 1059.1C646.606 1059.78 646.87 1060.54 646.98 1061.32L649.954 1080.67C650.843 1081.29 651.597 1082.08 652.171 1083C652.745 1083.91 653.126 1084.94 653.291 1086.01L655.519 1100.61C655.68 1101.65 655.635 1102.7 655.387 1103.72C655.138 1104.73 654.692 1105.69 654.073 1106.54C653.454 1107.38 652.675 1108.09 651.78 1108.63C650.884 1109.17 649.891 1109.53 648.857 1109.69L647.872 1109.85Z" fill="white"/>
<path d="M635.184 1063.14C635.053 1062.36 635.078 1061.56 635.258 1060.79C635.438 1060.02 635.77 1059.29 636.234 1058.65C636.697 1058.01 637.284 1057.46 637.959 1057.05C638.635 1056.64 639.385 1056.36 640.168 1056.24C640.95 1056.12 641.749 1056.16 642.518 1056.35C643.286 1056.54 644.009 1056.88 644.644 1057.35C645.28 1057.83 645.815 1058.42 646.219 1059.1C646.622 1059.78 646.887 1060.54 646.997 1061.32" fill="white"/>
<path d="M722.113 1105.23C723.183 1104.93 724.141 1104.33 724.867 1103.49C725.593 1102.65 726.053 1101.61 726.191 1100.51C726.328 1099.41 726.135 1098.29 725.638 1097.3C725.14 1096.31 724.359 1095.49 723.394 1094.94C722.429 1094.39 721.324 1094.14 720.217 1094.22C719.11 1094.3 718.052 1094.71 717.176 1095.39C716.3 1096.07 715.645 1097 715.295 1098.05C714.945 1099.1 714.915 1100.24 715.209 1101.31C715.403 1102.02 715.735 1102.68 716.188 1103.27C716.64 1103.85 717.203 1104.34 717.845 1104.7C718.486 1105.07 719.194 1105.3 719.926 1105.39C720.659 1105.48 721.402 1105.43 722.113 1105.23Z" fill="white"/>
<path d="M718.322 1093.31C717.312 1093.59 716.257 1093.67 715.216 1093.54C714.176 1093.41 713.171 1093.08 712.26 1092.56C711.349 1092.04 710.55 1091.35 709.908 1090.52C709.266 1089.69 708.795 1088.74 708.521 1087.73L704.614 1073.49C704.322 1072.45 704.248 1071.36 704.396 1070.28C704.545 1069.21 704.912 1068.18 705.475 1067.25L700.293 1048.39C699.871 1046.86 700.078 1045.22 700.866 1043.83C701.655 1042.45 702.961 1041.43 704.498 1041.01C706.035 1040.59 707.676 1040.79 709.061 1041.58C710.446 1042.37 711.46 1043.68 711.882 1045.22L717.064 1064.09C718.022 1064.6 718.865 1065.31 719.54 1066.17C720.215 1067.02 720.708 1068 720.987 1069.06L724.894 1083.31C725.173 1084.32 725.251 1085.37 725.122 1086.41C724.993 1087.45 724.661 1088.45 724.144 1089.36C723.627 1090.27 722.936 1091.06 722.11 1091.7C721.285 1092.35 720.34 1092.82 719.332 1093.09L718.372 1093.36L718.322 1093.31Z" fill="white"/>
<path d="M700.293 1048.38C700.085 1047.62 700.029 1046.82 700.129 1046.04C700.228 1045.26 700.481 1044.5 700.872 1043.82C701.662 1042.43 702.969 1041.42 704.506 1041C706.043 1040.58 707.683 1040.79 709.067 1041.58C710.45 1042.37 711.462 1043.68 711.882 1045.22" fill="white"/>
<path d="M793.103 1079.35C794.101 1078.88 794.936 1078.11 795.501 1077.16C796.066 1076.21 796.337 1075.11 796.279 1074.01C796.222 1072.91 795.838 1071.84 795.176 1070.96C794.514 1070.07 793.605 1069.4 792.562 1069.03C791.52 1068.66 790.391 1068.61 789.319 1068.88C788.246 1069.15 787.278 1069.73 786.537 1070.55C785.796 1071.38 785.315 1072.4 785.155 1073.49C784.994 1074.59 785.162 1075.7 785.637 1076.7C785.951 1077.37 786.393 1077.97 786.939 1078.46C787.485 1078.96 788.124 1079.34 788.818 1079.58C789.512 1079.83 790.248 1079.94 790.984 1079.9C791.719 1079.86 792.439 1079.67 793.103 1079.35Z" fill="white"/>
<path d="M787.292 1068.29C785.379 1069.2 783.187 1069.3 781.195 1068.59C779.203 1067.88 777.574 1066.41 776.663 1064.5L770.323 1051.16C769.859 1050.18 769.601 1049.12 769.564 1048.03C769.527 1046.95 769.712 1045.87 770.107 1044.87L761.714 1027.19C761.343 1026.47 761.121 1025.69 761.059 1024.89C760.996 1024.09 761.096 1023.29 761.353 1022.52C761.609 1021.76 762.016 1021.06 762.549 1020.46C763.083 1019.86 763.732 1019.37 764.458 1019.03C765.184 1018.69 765.971 1018.49 766.774 1018.46C767.577 1018.43 768.377 1018.56 769.129 1018.84C769.88 1019.12 770.567 1019.56 771.148 1020.11C771.728 1020.67 772.191 1021.33 772.508 1022.07L780.902 1039.72C781.932 1040.05 782.884 1040.59 783.698 1041.3C784.512 1042.01 785.172 1042.88 785.637 1043.86L791.961 1057.22C792.41 1058.16 792.669 1059.19 792.722 1060.23C792.775 1061.28 792.622 1062.32 792.272 1063.31C791.921 1064.29 791.38 1065.2 790.679 1065.97C789.978 1066.75 789.131 1067.38 788.186 1067.83L787.292 1068.26V1068.29Z" fill="white"/>
<path d="M761.714 1027.19C761.365 1026.48 761.161 1025.7 761.113 1024.91C761.066 1024.12 761.175 1023.33 761.435 1022.59C761.696 1021.84 762.102 1021.15 762.63 1020.56C763.158 1019.97 763.798 1019.5 764.513 1019.16C765.227 1018.82 766.002 1018.62 766.792 1018.58C767.582 1018.55 768.372 1018.66 769.116 1018.93C769.86 1019.2 770.542 1019.62 771.125 1020.15C771.707 1020.69 772.177 1021.34 772.508 1022.05" fill="white"/>
<path d="M860.269 1044.97C861.177 1044.33 861.874 1043.43 862.272 1042.39C862.671 1041.36 862.753 1040.23 862.508 1039.14C862.264 1038.06 861.703 1037.07 860.897 1036.31C860.092 1035.55 859.078 1035.04 857.983 1034.85C856.889 1034.66 855.763 1034.8 854.749 1035.25C853.734 1035.71 852.877 1036.45 852.285 1037.39C851.693 1038.33 851.393 1039.42 851.424 1040.53C851.454 1041.64 851.813 1042.72 852.455 1043.63C853.314 1044.84 854.62 1045.66 856.085 1045.91C857.55 1046.16 859.055 1045.82 860.269 1044.97Z" fill="#C91459"/>
<path d="M852.637 1035.05C851.783 1035.65 850.818 1036.09 849.797 1036.32C848.776 1036.55 847.719 1036.58 846.688 1036.4C845.656 1036.22 844.669 1035.85 843.784 1035.29C842.898 1034.73 842.132 1034 841.528 1033.15L833.002 1021.08C832.379 1020.19 831.943 1019.19 831.721 1018.13C831.499 1017.07 831.495 1015.98 831.711 1014.92L820.403 998.942C819.488 997.647 819.124 996.041 819.393 994.478C819.661 992.914 820.54 991.522 821.835 990.606C823.13 989.691 824.736 989.327 826.3 989.596C827.863 989.865 829.255 990.743 830.171 992.038L841.462 1008.03C842.538 1008.18 843.57 1008.56 844.496 1009.13C845.422 1009.7 846.22 1010.45 846.842 1011.34L855.368 1023.41C856.586 1025.13 857.069 1027.27 856.712 1029.35C856.355 1031.43 855.187 1033.28 853.465 1034.5L852.637 1035.08V1035.05Z" fill="#C91459"/>
<path d="M820.403 998.942C819.488 997.647 819.124 996.041 819.393 994.478C819.661 992.914 820.54 991.522 821.835 990.606C823.13 989.691 824.736 989.327 826.3 989.596C827.863 989.865 829.255 990.743 830.171 992.038" fill="#C91459"/>
<path d="M912.287 1008.26C913.194 1007.62 913.891 1006.73 914.29 1005.69C914.688 1004.65 914.771 1003.52 914.526 1002.44C914.281 1001.36 913.72 1000.37 912.915 999.606C912.109 998.842 911.095 998.333 910.001 998.145C908.906 997.958 907.78 998.099 906.766 998.551C905.752 999.003 904.895 999.746 904.303 1000.69C903.711 1001.63 903.411 1002.72 903.441 1003.83C903.471 1004.94 903.83 1006.02 904.472 1006.92C904.897 1007.52 905.435 1008.04 906.058 1008.43C906.681 1008.82 907.375 1009.09 908.101 1009.22C908.827 1009.34 909.57 1009.32 910.289 1009.16C911.007 1008.99 911.686 1008.69 912.287 1008.26Z" fill="white"/>
<path d="M904.671 998.33C902.945 999.548 900.806 1000.03 898.723 999.674C896.641 999.317 894.785 998.149 893.562 996.426L884.97 984.307C884.347 983.422 883.911 982.42 883.689 981.361C883.467 980.302 883.463 979.209 883.679 978.148L872.371 962.172C871.456 960.877 871.092 959.271 871.361 957.708C871.629 956.145 872.508 954.752 873.803 953.836C875.099 952.921 876.705 952.558 878.268 952.826C879.831 953.095 881.224 953.973 882.139 955.269L893.446 971.245C894.518 971.405 895.546 971.781 896.468 972.351C897.39 972.92 898.187 973.67 898.81 974.556L907.337 986.625C907.942 987.479 908.373 988.444 908.605 989.465C908.836 990.486 908.865 991.542 908.688 992.574C908.511 993.606 908.133 994.592 907.574 995.478C907.015 996.363 906.288 997.13 905.433 997.734L904.621 998.313L904.671 998.33Z" fill="white"/>
<path d="M872.421 962.172C871.968 961.531 871.645 960.806 871.472 960.04C871.298 959.274 871.278 958.482 871.411 957.708C871.544 956.934 871.828 956.193 872.247 955.529C872.666 954.865 873.212 954.29 873.853 953.836C874.494 953.383 875.219 953.061 875.985 952.887C876.751 952.714 877.543 952.693 878.317 952.826C879.091 952.959 879.832 953.243 880.496 953.662C881.16 954.081 881.735 954.627 882.189 955.269" fill="white"/>
<path d="M967.83 957.388C968.611 956.604 969.141 955.607 969.355 954.522C969.569 953.438 969.457 952.314 969.033 951.292C968.609 950.271 967.892 949.399 966.972 948.785C966.052 948.171 964.971 947.843 963.865 947.843C962.76 947.843 961.679 948.171 960.759 948.785C959.839 949.399 959.122 950.271 958.698 951.292C958.274 952.314 958.161 953.438 958.375 954.522C958.589 955.607 959.12 956.604 959.9 957.388C960.42 957.91 961.038 958.324 961.719 958.607C962.399 958.89 963.129 959.035 963.865 959.035C964.602 959.035 965.332 958.89 966.012 958.607C966.693 958.324 967.31 957.91 967.83 957.388Z" fill="white"/>
<path d="M958.642 948.911C957.146 950.404 955.118 951.243 953.005 951.243C950.891 951.243 948.864 950.404 947.368 948.911L936.921 938.465C936.156 937.7 935.556 936.788 935.157 935.782C934.758 934.777 934.57 933.701 934.603 932.62L920.763 918.863C919.661 917.739 919.047 916.226 919.055 914.652C919.062 913.079 919.689 911.571 920.801 910.457C921.912 909.343 923.419 908.713 924.992 908.703C926.566 908.693 928.08 909.304 929.206 910.403L943.047 924.243C944.131 924.213 945.21 924.404 946.218 924.805C947.226 925.207 948.141 925.81 948.907 926.578L959.354 937.024C960.847 938.52 961.686 940.548 961.686 942.661C961.686 944.775 960.847 946.803 959.354 948.299L958.642 948.994V948.911Z" fill="white"/>
<path d="M920.763 918.863C919.661 917.739 919.047 916.226 919.055 914.652C919.062 913.079 919.689 911.571 920.801 910.457C921.912 909.343 923.419 908.713 924.992 908.703C926.566 908.693 928.08 909.304 929.206 910.403" fill="white"/>
<path d="M1016.7 900.221C1017.34 899.315 1017.7 898.239 1017.73 897.129C1017.76 896.019 1017.46 894.925 1016.87 893.985C1016.28 893.045 1015.42 892.302 1014.41 891.85C1013.39 891.398 1012.27 891.257 1011.17 891.445C1010.08 891.632 1009.07 892.141 1008.26 892.905C1007.45 893.67 1006.89 894.656 1006.65 895.739C1006.4 896.822 1006.49 897.954 1006.88 898.991C1007.28 900.027 1007.98 900.922 1008.89 901.562C1009.49 901.989 1010.17 902.292 1010.89 902.456C1011.6 902.619 1012.35 902.639 1013.07 902.514C1013.8 902.39 1014.49 902.123 1015.12 901.729C1015.74 901.336 1016.28 900.823 1016.7 900.221Z" fill="white"/>
<path d="M1006.21 893.417C1005.6 894.272 1004.84 895 1003.95 895.558C1003.07 896.117 1002.08 896.495 1001.05 896.672C1000.01 896.849 998.958 896.821 997.937 896.589C996.917 896.357 995.952 895.926 995.097 895.321L983.028 886.795C982.138 886.175 981.385 885.379 980.816 884.457C980.246 883.534 979.872 882.504 979.717 881.431L963.741 870.14C963.1 869.686 962.554 869.111 962.135 868.447C961.716 867.783 961.432 867.043 961.299 866.268C961.166 865.494 961.187 864.702 961.36 863.936C961.533 863.17 961.856 862.445 962.309 861.804C962.762 861.163 963.338 860.617 964.002 860.198C964.666 859.779 965.406 859.495 966.18 859.362C966.954 859.229 967.747 859.249 968.513 859.423C969.279 859.596 970.004 859.919 970.645 860.372L986.621 871.663C987.682 871.447 988.777 871.451 989.836 871.676C990.896 871.901 991.898 872.342 992.78 872.971L1004.85 881.497C1006.57 882.719 1007.74 884.575 1008.1 886.658C1008.45 888.74 1007.97 890.879 1006.75 892.606L1006.17 893.417H1006.21Z" fill="white"/>
<path d="M963.774 870.123C963.108 869.681 962.537 869.109 962.095 868.442C961.654 867.775 961.351 867.026 961.204 866.239C961.057 865.453 961.07 864.645 961.241 863.864C961.413 863.082 961.739 862.343 962.201 861.69C962.664 861.037 963.252 860.484 963.932 860.062C964.613 859.641 965.37 859.361 966.161 859.238C966.951 859.115 967.759 859.152 968.534 859.347C969.31 859.542 970.039 859.89 970.678 860.372" fill="white"/>
<path d="M1058.34 837.294C1058.82 836.29 1058.99 835.169 1058.82 834.07C1058.66 832.971 1058.18 831.945 1057.43 831.121C1056.69 830.297 1055.72 829.713 1054.64 829.442C1053.56 829.171 1052.43 829.225 1051.38 829.599C1050.34 829.972 1049.43 830.648 1048.76 831.539C1048.1 832.431 1047.72 833.499 1047.67 834.608C1047.61 835.717 1047.89 836.818 1048.46 837.77C1049.03 838.723 1049.87 839.485 1050.87 839.959C1052.22 840.594 1053.76 840.67 1055.16 840.17C1056.56 839.67 1057.7 838.636 1058.34 837.294Z" fill="#41B9FF"/>
<path d="M1046.83 832.393C1046.39 833.338 1045.75 834.185 1044.98 834.886C1044.2 835.587 1043.3 836.129 1042.31 836.479C1041.32 836.83 1040.28 836.983 1039.24 836.929C1038.19 836.876 1037.17 836.617 1036.22 836.168L1022.86 829.827C1021.89 829.366 1021.02 828.709 1020.3 827.897C1019.59 827.086 1019.05 826.137 1018.72 825.109L1001.04 816.715C1000.33 816.378 999.695 815.905 999.168 815.322C998.641 814.739 998.235 814.058 997.971 813.318C997.707 812.577 997.592 811.793 997.632 811.008C997.671 810.223 997.865 809.454 998.202 808.744C998.539 808.034 999.013 807.397 999.596 806.871C1000.18 806.344 1000.86 805.937 1001.6 805.673C1002.34 805.41 1003.12 805.294 1003.91 805.334C1004.69 805.374 1005.46 805.568 1006.17 805.905L1023.86 814.298C1024.86 813.906 1025.94 813.724 1027.02 813.764C1028.1 813.804 1029.16 814.064 1030.13 814.53L1043.49 820.871C1044.43 821.32 1045.28 821.95 1045.98 822.726C1046.68 823.503 1047.23 824.409 1047.58 825.395C1047.93 826.38 1048.08 827.425 1048.03 828.47C1047.97 829.514 1047.71 830.538 1047.26 831.483L1046.83 832.393Z" fill="#41B9FF"/>
<path d="M1001.04 816.699C1000.32 816.368 999.677 815.898 999.142 815.315C998.606 814.733 998.191 814.05 997.922 813.307C997.652 812.563 997.533 811.773 997.571 810.983C997.609 810.193 997.803 809.418 998.143 808.704C998.483 807.989 998.961 807.349 999.55 806.821C1000.14 806.293 1000.83 805.887 1001.57 805.626C1002.32 805.366 1003.11 805.256 1003.9 805.304C1004.69 805.352 1005.46 805.556 1006.17 805.905" fill="#41B9FF"/>
<path d="M1085.66 779.797C1086.13 778.796 1086.29 777.679 1086.13 776.585C1085.97 775.491 1085.48 774.47 1084.74 773.651C1084 772.832 1083.03 772.251 1081.96 771.982C1080.88 771.713 1079.76 771.768 1078.71 772.14C1077.67 772.511 1076.76 773.183 1076.1 774.071C1075.44 774.958 1075.06 776.021 1075.01 777.126C1074.95 778.23 1075.22 779.327 1075.79 780.276C1076.36 781.226 1077.19 781.987 1078.19 782.462C1078.85 782.781 1079.58 782.965 1080.31 783.003C1081.05 783.042 1081.78 782.934 1082.48 782.686C1083.17 782.438 1083.81 782.055 1084.36 781.559C1084.9 781.063 1085.34 780.464 1085.66 779.797Z" fill="white"/>
<path d="M1074.17 774.83C1073.26 776.739 1071.63 778.209 1069.64 778.92C1067.64 779.63 1065.45 779.523 1063.54 778.621L1050.19 772.28C1049.22 771.815 1048.34 771.155 1047.63 770.341C1046.91 769.527 1046.37 768.576 1046.04 767.545L1028.36 759.168C1026.92 758.488 1025.82 757.265 1025.29 755.77C1024.75 754.275 1024.84 752.63 1025.52 751.197C1026.2 749.763 1027.42 748.658 1028.92 748.126C1030.41 747.594 1032.06 747.677 1033.49 748.357L1051.17 756.751C1052.18 756.359 1053.26 756.177 1054.34 756.217C1055.42 756.257 1056.48 756.518 1057.46 756.983L1070.81 763.324C1071.75 763.771 1072.6 764.4 1073.3 765.176C1074.01 765.952 1074.55 766.858 1074.9 767.844C1075.25 768.829 1075.41 769.875 1075.36 770.92C1075.3 771.965 1075.05 772.99 1074.6 773.936L1074.17 774.83Z" fill="white"/>
<path d="M1028.36 759.151C1027.64 758.821 1026.99 758.35 1026.46 757.768C1025.92 757.186 1025.51 756.503 1025.24 755.759C1024.97 755.016 1024.85 754.226 1024.89 753.436C1024.93 752.645 1025.12 751.871 1025.46 751.156C1025.8 750.442 1026.28 749.802 1026.87 749.274C1027.45 748.745 1028.14 748.339 1028.89 748.079C1029.64 747.819 1030.43 747.709 1031.22 747.757C1032.01 747.805 1032.78 748.009 1033.49 748.357" fill="white"/>
<path d="M1109.1 707.846C1109.39 706.775 1109.36 705.641 1109.01 704.587C1108.66 703.533 1108.01 702.606 1107.13 701.925C1106.26 701.243 1105.2 700.837 1104.09 700.757C1102.98 700.678 1101.88 700.929 1100.91 701.479C1099.95 702.029 1099.16 702.852 1098.67 703.846C1098.17 704.839 1097.98 705.958 1098.12 707.06C1098.26 708.161 1098.72 709.197 1099.45 710.036C1100.18 710.874 1101.14 711.478 1102.21 711.77C1103.65 712.161 1105.18 711.967 1106.47 711.232C1107.76 710.496 1108.7 709.279 1109.1 707.846Z" fill="white"/>
<path d="M1096.88 705.015C1096.61 706.026 1096.13 706.972 1095.49 707.8C1094.85 708.628 1094.05 709.32 1093.14 709.839C1092.23 710.357 1091.22 710.691 1090.18 710.82C1089.14 710.95 1088.09 710.873 1087.08 710.594L1072.83 706.687C1071.77 706.407 1070.79 705.912 1069.93 705.234C1069.08 704.556 1068.37 703.71 1067.86 702.747L1048.99 697.565C1048.22 697.358 1047.51 697.002 1046.89 696.519C1046.27 696.036 1045.74 695.435 1045.35 694.75C1044.56 693.367 1044.35 691.726 1044.77 690.19C1045.19 688.653 1046.2 687.346 1047.59 686.556C1048.97 685.765 1050.61 685.557 1052.15 685.976L1071.02 691.158C1071.94 690.597 1072.97 690.23 1074.04 690.079C1075.11 689.928 1076.2 689.997 1077.25 690.281L1091.5 694.204C1092.51 694.48 1093.45 694.952 1094.28 695.594C1095.11 696.235 1095.8 697.032 1096.32 697.941C1096.83 698.849 1097.17 699.851 1097.3 700.889C1097.43 701.927 1097.36 702.98 1097.08 703.989L1096.81 704.949L1096.88 705.015Z" fill="white"/>
<path d="M1049.09 697.565C1048.32 697.358 1047.61 697.002 1046.99 696.519C1046.36 696.036 1045.84 695.435 1045.45 694.75C1045.06 694.065 1044.81 693.31 1044.71 692.527C1044.61 691.745 1044.66 690.951 1044.87 690.19C1045.08 689.429 1045.43 688.716 1045.92 688.093C1046.4 687.469 1047 686.947 1047.69 686.555C1048.37 686.164 1049.13 685.912 1049.91 685.812C1050.69 685.713 1051.49 685.769 1052.25 685.976" fill="white"/>
<path d="M1123.6 633.462C1123.7 632.36 1123.47 631.254 1122.94 630.284C1122.4 629.313 1121.6 628.522 1120.62 628.01C1119.64 627.498 1118.53 627.289 1117.43 627.408C1116.33 627.527 1115.29 627.969 1114.44 628.679C1113.59 629.389 1112.97 630.334 1112.66 631.396C1112.35 632.457 1112.36 633.587 1112.69 634.643C1113.02 635.699 1113.65 636.633 1114.52 637.327C1115.38 638.022 1116.42 638.445 1117.53 638.544C1118.26 638.61 1119 638.531 1119.7 638.311C1120.4 638.092 1121.05 637.735 1121.62 637.263C1122.18 636.791 1122.65 636.212 1122.99 635.56C1123.33 634.908 1123.54 634.195 1123.6 633.462Z" fill="white"/>
<path d="M1111.12 632.849C1110.93 634.955 1109.91 636.898 1108.28 638.254C1106.66 639.61 1104.57 640.268 1102.46 640.084L1087.74 638.76C1086.66 638.665 1085.62 638.35 1084.67 637.834C1083.72 637.319 1082.88 636.614 1082.21 635.763L1062.71 634.108C1061.13 633.965 1059.67 633.2 1058.65 631.981C1057.64 630.763 1057.15 629.19 1057.29 627.609C1057.43 626.029 1058.2 624.57 1059.41 623.553C1060.63 622.536 1062.21 622.045 1063.79 622.187L1083.27 623.942C1084.08 623.223 1085.03 622.677 1086.06 622.338C1087.08 621.999 1088.17 621.875 1089.25 621.972L1103.97 623.297C1105.01 623.388 1106.02 623.685 1106.95 624.169C1107.88 624.653 1108.7 625.315 1109.38 626.118C1110.05 626.92 1110.56 627.848 1110.87 628.846C1111.18 629.845 1111.29 630.896 1111.2 631.939V632.932L1111.12 632.849Z" fill="white"/>
<path d="M1062.71 634.008C1061.92 633.948 1061.15 633.731 1060.45 633.371C1059.74 633.01 1059.12 632.513 1058.6 631.909C1058.09 631.304 1057.71 630.604 1057.47 629.849C1057.23 629.094 1057.14 628.299 1057.21 627.511C1057.29 626.722 1057.51 625.956 1057.88 625.256C1058.25 624.556 1058.76 623.937 1059.37 623.434C1059.98 622.931 1060.69 622.554 1061.44 622.326C1062.2 622.098 1063 622.023 1063.79 622.105" fill="white"/>
<path d="M1129.28 570.021C1129.38 568.919 1129.15 567.813 1128.61 566.843C1128.08 565.873 1127.28 565.082 1126.29 564.57C1125.31 564.058 1124.2 563.848 1123.1 563.967C1122 564.086 1120.96 564.529 1120.12 565.239C1119.27 565.948 1118.65 566.894 1118.34 567.955C1118.03 569.017 1118.04 570.147 1118.37 571.203C1118.7 572.258 1119.33 573.192 1120.19 573.887C1121.05 574.581 1122.1 575.005 1123.2 575.104C1123.94 575.17 1124.68 575.091 1125.38 574.871C1126.08 574.651 1126.73 574.295 1127.3 573.823C1127.86 573.351 1128.33 572.772 1128.67 572.12C1129.01 571.467 1129.22 570.754 1129.28 570.021Z" fill="#C91459"/>
<path d="M1116.75 569.392C1116.56 571.5 1115.54 573.446 1113.92 574.802C1112.29 576.159 1110.2 576.815 1108.09 576.627L1093.37 575.303C1092.29 575.208 1091.25 574.893 1090.3 574.377C1089.34 573.862 1088.51 573.157 1087.84 572.306L1068.36 570.568C1066.77 570.427 1065.31 569.664 1064.3 568.447C1063.28 567.23 1062.78 565.659 1062.93 564.078C1063.07 562.497 1063.83 561.037 1065.05 560.019C1066.26 559 1067.83 558.507 1069.42 558.648L1088.92 560.403C1089.73 559.686 1090.68 559.142 1091.7 558.803C1092.73 558.465 1093.82 558.339 1094.89 558.432L1109.61 559.757C1111.72 559.946 1113.66 560.963 1115.01 562.583C1116.36 564.204 1117.02 566.296 1116.83 568.399L1116.75 569.392Z" fill="#C91459"/>
<path d="M1068.41 570.567C1067.62 570.498 1066.86 570.275 1066.17 569.911C1065.47 569.547 1064.85 569.05 1064.35 568.447C1063.84 567.844 1063.46 567.148 1063.23 566.399C1062.99 565.649 1062.91 564.86 1062.98 564.078C1063.04 563.295 1063.27 562.534 1063.63 561.837C1064 561.141 1064.49 560.523 1065.1 560.018C1065.7 559.514 1066.39 559.133 1067.14 558.898C1067.89 558.663 1068.68 558.578 1069.47 558.647" fill="#C91459"/>
</svg>
