<?xml version="1.0" standalone="no"?>
<!DOCTYPE svg PUBLIC "-//W3C//DTD SVG 20010904//EN"
 "http://www.w3.org/TR/2001/REC-SVG-20010904/DTD/svg10.dtd">
<svg version="1.0" xmlns="http://www.w3.org/2000/svg"
 width="1121.000000pt" height="1280.000000pt" viewBox="0 0 1121.000000 1280.000000"
 preserveAspectRatio="xMidYMid meet">
<metadata>
Created by potrace 1.15, written by Peter Selinger 2001-2017
</metadata>
<g transform="translate(0.000000,1280.000000) scale(0.100000,-0.100000)"
fill="#000000" stroke="none">
<path d="M480 12521 l-475 -279 -3 -366 c-1 -206 2 -366 7 -366 4 0 273 -116
597 -258 1236 -543 1371 -602 1378 -602 3 0 7 163 8 361 l3 362 472 276 c259
152 469 279 465 283 -4 3 -115 53 -247 111 -132 57 -478 209 -770 337 -900
395 -958 420 -959 420 -1 0 -215 -126 -476 -279z"/>
<path d="M2542 11612 l-472 -277 2 -364 3 -364 535 -234 c294 -129 738 -324
985 -432 l450 -198 5 360 5 359 478 281 479 280 -34 14 c-18 8 -463 203 -989
434 -526 230 -960 419 -965 419 -5 0 -222 -125 -482 -278z"/>
<path d="M0 11099 l0 -360 58 -26 c85 -38 875 -384 890 -390 10 -4 12 68 10
357 l-3 361 -410 180 c-226 99 -440 193 -477 209 l-68 29 0 -360z"/>
<path d="M1030 10643 l0 -358 433 -189 c237 -104 685 -301 995 -437 l562 -246
0 361 0 361 -980 430 c-540 237 -987 431 -995 433 -13 3 -15 -45 -15 -355z"/>
<path d="M4611 10706 l-481 -281 2 -360 3 -360 25 -12 c66 -31 1927 -846 1943
-850 16 -5 17 16 17 353 l0 359 469 275 c258 151 470 279 471 284 1 5 -383
177 -852 382 -469 206 -912 401 -985 433 l-131 59 -481 -282z"/>
<path d="M0 10316 c0 -338 1 -364 18 -369 9 -2 454 -196 988 -431 535 -234
975 -426 978 -426 3 0 6 161 6 358 l0 359 -943 413 c-518 227 -966 424 -994
437 l-53 23 0 -364z"/>
<path d="M3102 9738 l3 -362 645 -283 c1133 -497 1329 -583 1335 -583 3 0 5
162 5 359 0 278 -3 360 -12 364 -7 3 -256 112 -553 242 -977 429 -1269 557
-1348 591 l-77 33 2 -361z"/>
<path d="M6680 9802 l-475 -278 0 -364 0 -364 225 -99 c1311 -575 1751 -767
1755 -767 3 0 6 163 7 362 l3 363 474 277 474 278 -59 26 c-32 14 -221 97
-419 184 -198 87 -618 271 -933 409 -315 138 -574 251 -575 251 -2 0 -216
-125 -477 -278z"/>
<path d="M0 9534 l0 -359 463 -202 c254 -111 470 -205 480 -209 16 -6 17 15
17 353 l0 359 -462 203 c-255 112 -471 206 -480 209 -17 4 -18 -18 -18 -354z"/>
<path d="M2072 9410 l3 -363 295 -129 c162 -71 545 -239 850 -373 305 -134
617 -270 693 -303 l137 -60 0 361 0 362 -543 237 c-298 131 -738 323 -977 428
-239 106 -441 194 -448 197 -10 4 -12 -68 -10 -357z"/>
<path d="M1030 9083 l0 -358 833 -364 c457 -201 905 -397 995 -437 l162 -72 0
361 0 362 -312 137 c-1261 554 -1661 728 -1669 728 -5 0 -9 -154 -9 -357z"/>
<path d="M5172 8830 l3 -362 530 -233 c292 -127 728 -319 970 -425 242 -106
448 -196 458 -202 16 -8 17 12 17 354 l0 364 -27 10 c-16 6 -455 199 -978 429
-522 229 -956 419 -963 422 -10 4 -12 -68 -10 -357z"/>
<path d="M8742 8894 l-472 -277 2 -364 3 -364 395 -174 c217 -95 662 -290 989
-434 l594 -260 476 279 476 278 2 364 3 363 -982 430 c-539 237 -988 431 -997
433 -9 1 -229 -122 -489 -274z"/>
<path d="M2 8757 l3 -362 985 -432 c542 -238 988 -432 993 -433 4 0 7 161 7
358 l0 359 -377 166 c-999 437 -1532 671 -1571 688 l-42 18 2 -362z"/>
<path d="M4130 8505 l0 -354 28 -15 c39 -20 1924 -847 1945 -853 16 -5 17 17
17 354 l0 359 -357 157 c-197 86 -641 280 -986 432 -345 151 -632 275 -637
275 -6 0 -10 -133 -10 -355z"/>
<path d="M3102 8178 l3 -362 430 -189 c1251 -548 1545 -677 1550 -677 3 0 5
161 5 359 l0 358 -137 61 c-137 60 -634 278 -1333 584 -201 88 -400 175 -443
194 l-77 33 2 -361z"/>
<path d="M0 7974 c0 -200 4 -364 9 -364 4 0 218 -92 475 -205 257 -113 469
-205 472 -205 2 0 3 162 2 360 l-3 361 -445 195 c-245 107 -460 202 -477 209
l-33 14 0 -365z"/>
<path d="M7232 7923 l3 -358 345 -152 c977 -429 1601 -702 1619 -708 21 -6 21
-5 21 353 l0 358 -482 212 c-266 116 -709 310 -986 432 -276 121 -507 220
-512 220 -7 0 -9 -123 -8 -357z"/>
<path d="M2072 7850 l3 -363 370 -162 c204 -89 640 -280 970 -425 330 -144
608 -267 618 -272 16 -8 17 12 17 354 l0 363 -468 204 c-257 113 -696 306
-977 429 -280 123 -516 226 -523 229 -10 4 -12 -68 -10 -357z"/>
<path d="M6202 7598 l3 -362 380 -166 c209 -92 648 -285 977 -428 328 -144
603 -265 612 -268 14 -6 16 29 16 353 l0 360 -27 12 c-16 7 -356 157 -758 333
-997 438 -1135 498 -1173 514 l-32 14 2 -362z"/>
<path d="M1030 7523 l0 -358 228 -99 c652 -285 1725 -757 1742 -766 20 -11 20
-7 20 352 l0 363 -522 229 c-288 127 -731 321 -986 433 -255 112 -467 203
-472 203 -6 0 -10 -138 -10 -357z"/>
<path d="M5172 7270 l3 -362 245 -108 c135 -59 571 -250 970 -425 399 -174
733 -321 743 -327 16 -8 17 12 17 354 l0 363 -981 430 c-539 237 -985 432
-990 433 -6 2 -8 -140 -7 -358z"/>
<path d="M2 7197 l3 -361 985 -433 c542 -238 988 -432 993 -433 4 0 7 161 7
359 l0 358 -297 131 c-164 71 -577 252 -918 402 -341 150 -655 287 -698 306
l-77 33 2 -362z"/>
<path d="M10735 7248 c-253 -149 -467 -272 -475 -275 -8 -2 -226 88 -484 201
-258 114 -470 206 -472 206 -3 0 -3 -162 -2 -361 l3 -360 75 -33 c41 -18 252
-111 468 -205 217 -95 401 -171 411 -168 9 2 227 127 484 277 l467 273 0 359
c0 197 -3 358 -7 357 -5 0 -215 -122 -468 -271z"/>
<path d="M4130 6947 c0 -356 0 -356 22 -368 32 -17 1930 -850 1951 -856 16 -5
17 16 17 354 l0 359 -977 428 c-538 236 -986 431 -995 434 -17 4 -18 -16 -18
-351z"/>
<path d="M8270 6690 l5 -362 989 -433 c847 -372 992 -432 1010 -423 65 35 913
532 924 542 9 9 12 91 10 368 l-3 356 -474 -278 -475 -278 -75 33 c-42 18
-483 212 -981 430 -498 219 -912 400 -920 402 -13 4 -14 -39 -10 -357z"/>
<path d="M3102 6618 l3 -361 130 -58 c400 -177 1846 -809 1850 -809 3 0 5 161
5 359 l0 358 -57 26 c-68 30 -1852 813 -1901 833 l-32 14 2 -362z"/>
<path d="M2 6417 l3 -362 470 -207 c259 -113 473 -207 478 -207 4 -1 6 161 5
359 l-3 361 -445 195 c-245 108 -460 202 -478 209 l-32 14 2 -362z"/>
<path d="M7232 6368 l3 -362 150 -67 c390 -173 1823 -799 1828 -799 4 0 7 161
7 359 l0 358 -332 146 c-183 80 -612 267 -953 417 -341 150 -639 281 -663 291
l-42 18 2 -361z"/>
<path d="M2072 6290 l3 -363 75 -32 c243 -107 1737 -762 1843 -808 l57 -26 0
362 0 362 -98 42 c-53 24 -493 216 -977 429 -484 212 -886 388 -893 391 -10 4
-12 -68 -10 -357z"/>
<path d="M6202 6038 l3 -362 380 -166 c209 -92 648 -285 977 -428 328 -144
603 -265 612 -268 14 -6 16 29 16 354 l0 359 -102 46 c-122 54 -1808 793
-1856 814 l-32 13 2 -362z"/>
<path d="M1032 5963 l3 -358 25 -12 c68 -32 1927 -846 1943 -850 16 -5 17 17
17 354 l0 359 -437 192 c-241 105 -685 299 -986 432 -302 132 -552 240 -558
240 -6 0 -8 -136 -7 -357z"/>
<path d="M5170 5711 l0 -362 37 -15 c36 -15 1772 -777 1886 -827 l57 -26 0
362 0 362 -158 69 c-202 88 -754 330 -1337 586 -253 111 -466 204 -472 207
-10 4 -13 -71 -13 -356z"/>
<path d="M2 5638 l3 -362 645 -283 c1216 -534 1329 -583 1335 -583 3 0 5 161
5 359 l0 358 -942 413 c-519 228 -967 424 -996 437 l-52 23 2 -362z"/>
<path d="M10729 5681 l-476 -278 -474 208 -474 207 -3 -356 c-1 -196 1 -359 5
-363 5 -4 219 -100 477 -213 l469 -205 471 275 c259 152 474 279 479 283 4 4
6 168 5 364 l-3 357 -476 -279z"/>
<path d="M4130 5385 l0 -354 28 -15 c15 -7 266 -118 557 -246 292 -128 718
-315 947 -415 229 -101 426 -186 437 -190 21 -6 21 -5 21 352 l0 359 -207 91
c-1476 647 -1765 773 -1773 773 -6 0 -10 -127 -10 -355z"/>
<path d="M8270 5129 l5 -360 570 -250 c314 -138 755 -332 980 -431 226 -99
417 -181 425 -182 15 0 921 524 948 548 9 9 12 91 10 368 l-3 356 -470 -275
c-258 -152 -474 -276 -480 -276 -5 0 -264 111 -575 248 -311 136 -753 330
-984 431 -230 101 -422 184 -425 184 -3 0 -4 -162 -1 -361z"/>
<path d="M3102 5058 l3 -362 600 -263 c1046 -459 1350 -592 1368 -598 16 -7
17 14 17 353 l0 359 -57 26 c-73 32 -1856 814 -1901 833 l-32 14 2 -362z"/>
<path d="M0 4851 l0 -359 33 -13 c17 -7 224 -97 459 -200 235 -103 436 -190
447 -194 21 -6 21 -6 21 352 l0 359 -472 207 c-260 114 -476 207 -480 207 -5
0 -8 -161 -8 -359z"/>
<path d="M7232 4807 l3 -362 525 -230 c1229 -540 1447 -635 1453 -635 4 0 7
161 7 359 l0 358 -332 146 c-183 80 -612 267 -953 417 -341 150 -639 281 -663
291 l-42 18 2 -362z"/>
<path d="M2072 4730 l3 -362 860 -377 c473 -208 917 -403 988 -434 l127 -56 0
362 0 362 -303 132 c-166 73 -606 266 -977 429 -371 163 -681 298 -688 301
-10 4 -12 -68 -10 -357z"/>
<path d="M6202 4479 l3 -362 460 -202 c1283 -563 1492 -654 1508 -661 16 -6
17 16 15 355 l-3 362 -315 138 c-173 76 -605 265 -960 421 -355 155 -660 289
-678 297 l-32 13 2 -361z"/>
<path d="M1030 4405 l0 -354 28 -15 c15 -8 378 -168 807 -356 429 -188 861
-377 960 -421 98 -43 183 -79 187 -79 4 0 8 161 8 359 l0 358 -82 35 c-46 20
-303 132 -573 251 -1105 485 -1317 577 -1326 577 -5 0 -9 -142 -9 -355z"/>
<path d="M5172 4150 l3 -361 405 -178 c223 -98 659 -289 970 -426 311 -136
573 -251 583 -257 16 -8 17 12 17 355 l0 363 -72 31 c-40 17 -293 127 -563
246 -947 416 -1320 579 -1333 584 -10 4 -12 -68 -10 -357z"/>
<path d="M10730 4123 c-261 -153 -477 -277 -480 -276 -3 1 -213 92 -466 203
-252 111 -465 204 -472 207 -10 4 -12 -68 -10 -357 l3 -362 465 -204 c256
-113 472 -205 480 -206 13 -1 930 530 953 551 4 4 6 168 5 364 l-3 357 -475
-277z"/>
<path d="M4130 3824 l0 -355 68 -31 c61 -28 837 -368 1603 -704 169 -74 309
-134 313 -134 3 0 6 161 6 358 l0 358 -482 212 c-266 116 -709 310 -986 432
-276 121 -507 220 -512 220 -6 0 -10 -127 -10 -356z"/>
<path d="M8270 3570 l5 -361 350 -153 c193 -85 638 -280 989 -435 l639 -280
471 275 c259 152 474 279 479 283 4 4 6 168 5 364 l-3 357 -476 -278 -475
-279 -500 219 c-274 121 -715 314 -979 430 -264 116 -487 213 -495 215 -13 4
-14 -39 -10 -357z"/>
<path d="M3102 3498 l3 -362 300 -131 c1098 -482 1676 -735 1680 -735 3 0 5
161 5 358 l0 359 -27 12 c-34 16 -1885 828 -1931 848 l-32 13 2 -362z"/>
<path d="M7232 3247 l3 -362 310 -136 c963 -423 1664 -729 1669 -729 3 0 6
161 6 358 l0 359 -257 113 c-142 62 -571 250 -953 417 -382 168 -714 314 -738
324 l-42 18 2 -362z"/>
<path d="M6202 2918 l3 -361 988 -434 c544 -238 991 -433 993 -433 2 0 3 162
2 360 l-3 361 -605 265 c-333 146 -765 335 -960 421 -195 86 -370 162 -388
170 l-32 13 2 -362z"/>
<path d="M5172 2589 l3 -361 475 -208 c261 -114 706 -309 988 -433 l512 -225
0 362 0 361 -353 154 c-193 85 -637 280 -986 433 -348 153 -635 278 -637 278
-3 0 -3 -162 -2 -361z"/>
<path d="M10730 2565 c-256 -151 -470 -274 -477 -275 -6 0 -218 90 -470 201
-252 111 -464 203 -471 206 -10 4 -12 -68 -10 -357 l3 -361 474 -208 474 -208
426 249 c234 138 450 264 479 280 l52 30 0 359 c0 197 -3 359 -7 358 -5 0
-217 -124 -473 -274z"/>
<path d="M8270 2009 l5 -360 445 -195 c245 -107 691 -303 991 -435 l546 -239
464 271 c255 149 470 277 477 283 9 9 12 91 10 368 l-3 356 -474 -278 -474
-278 -41 18 c-22 10 -468 205 -990 434 -521 229 -951 416 -955 416 -3 0 -4
-162 -1 -361z"/>
<path d="M7232 1687 l3 -362 390 -171 c215 -94 659 -289 987 -432 328 -144
599 -262 602 -262 3 0 6 161 6 359 l0 358 -92 41 c-51 22 -280 122 -508 222
-228 100 -615 270 -860 377 -245 108 -464 204 -488 214 l-42 18 2 -362z"/>
<path d="M10845 1069 c-198 -116 -412 -241 -476 -279 l-116 -68 -474 208 -474
208 -3 -356 c-1 -196 1 -359 5 -363 5 -4 219 -100 477 -213 l469 -206 471 276
c259 151 474 279 479 283 4 4 6 168 5 364 l-3 357 -360 -211z"/>
</g>
</svg>
